<svg xmlns="http://www.w3.org/2000/svg" viewBox="0 0 64 64" width="50" height="50">
    <path d="M 19.4375 2.0078125 C 19.089582 2.018166 18.739875 2.051 18.390625 2.109375 C 15.200625 2.639375 12.629141 5.2296875 12.119141 8.4296875 C 11.729141 10.899688 12.510703 13.320547 14.220703 15.060547 C 13.430703 16.960547 13.019531 18.96 13.019531 21 C 13.019531 22.18 13.150156 23.329453 13.410156 24.439453 L 2.3496094 31.349609 C 0.25960938 32.659609 -0.55007812 35.249531 0.41992188 37.519531 L 0.4609375 37.609375 C 1.0109375 38.839375 2.0092969 39.770469 3.2792969 40.230469 C 4.5792969 40.710469 5.9809375 40.629766 7.2109375 40.009766 L 13.570312 36.830078 L 13.109375 38.960938 C 12.849375 40.150937 12.709687 41.360313 12.679688 42.570312 L 12.679688 42.580078 C 8.8096875 43.950078 6.0195312 47.66 6.0195312 52 C 6.0195312 57.51 10.509531 62 16.019531 62 C 19.289531 62 22.189766 60.43 24.009766 58 L 40.029297 58 C 41.849297 60.43 44.759531 62 48.019531 62 C 53.539531 62 58.019531 57.51 58.019531 52 C 58.019531 47.66 55.229609 43.940313 51.349609 42.570312 C 51.319609 41.340313 51.170391 40.100625 50.900391 38.890625 L 50.439453 36.839844 L 56.789062 40.009766 C 58.019062 40.629766 59.420703 40.710469 60.720703 40.230469 C 61.990703 39.770469 62.989062 38.839375 63.539062 37.609375 L 63.580078 37.519531 C 64.550078 35.249531 63.740391 32.659609 61.650391 31.349609 L 50.619141 24.460938 C 50.877141 23.350938 51.015578 22.20025 51.017578 21.03125 C 51.017578 21.02025 51.023438 21.011 51.023438 21 C 51.023438 20.492 50.994359 19.984469 50.943359 19.480469 C 50.942359 19.470469 50.940453 19.461172 50.939453 19.451172 C 50.889453 18.964172 50.816703 18.48 50.720703 18 C 50.712703 17.959 50.699406 17.919906 50.691406 17.878906 C 50.489406 16.913906 50.193547 15.966828 49.810547 15.048828 C 51.247547 13.600828 52.03125 11.689687 52.03125 9.6796875 C 52.03125 9.2596875 52.001641 8.8496875 51.931641 8.4296875 C 51.421641 5.2296875 48.850156 2.639375 45.660156 2.109375 C 42.840156 1.639375 40.010781 2.7509375 38.300781 4.9609375 C 36.145781 4.2849375 33.874234 3.9686719 31.615234 4.0136719 C 31.248234 4.0206719 30.883531 4.0306406 30.519531 4.0566406 C 30.404531 4.0646406 30.290781 4.0788438 30.175781 4.0898438 C 28.655781 4.2218437 27.168281 4.5168438 25.738281 4.9648438 C 24.221031 3.0188438 21.872926 1.9353379 19.4375 2.0078125 z M 19.699219 4 C 21.235219 4 22.664375 4.6020781 23.734375 5.7050781 C 22.970375 6.0370781 22.227672 6.4109375 21.513672 6.8359375 C 21.038672 7.1179375 20.882062 7.7300781 21.164062 8.2050781 C 21.351063 8.5190781 21.685391 8.6953125 22.025391 8.6953125 C 22.199391 8.6953125 22.374156 8.6506875 22.535156 8.5546875 C 23.722156 7.8486875 24.998125 7.2900469 26.328125 6.8730469 C 26.335125 6.8710469 26.342609 6.8730937 26.349609 6.8710938 C 26.798609 6.7290937 27.252938 6.6050469 27.710938 6.4980469 C 27.729937 6.4940469 27.749531 6.4903281 27.769531 6.4863281 C 28.197531 6.3873281 28.630453 6.3062813 29.064453 6.2382812 C 29.111453 6.2312813 29.157125 6.2218437 29.203125 6.2148438 C 29.644125 6.1488438 30.08725 6.0984531 30.53125 6.0644531 C 30.55425 6.0624531 30.576609 6.0605937 30.599609 6.0585938 C 32.988609 5.8815938 35.410219 6.1540938 37.699219 6.8710938 C 38.499219 7.1210938 39.379141 6.8607031 39.869141 6.2207031 C 41.169141 4.5307031 43.210078 3.7300781 45.330078 4.0800781 C 46.500078 4.2800781 47.570859 4.8516406 48.380859 5.6816406 C 49.200859 6.5016406 49.759219 7.5602344 49.949219 8.7402344 C 50.201219 10.330234 49.802656 11.898906 48.847656 13.128906 C 48.273656 12.143906 47.604359 11.200078 46.818359 10.330078 C 46.448359 9.9190781 45.81525 9.8888125 45.40625 10.257812 C 44.99625 10.627812 44.963984 11.260875 45.333984 11.671875 C 46.500984 12.965875 47.394672 14.388438 48.013672 15.898438 C 48.138672 16.201437 48.244703 16.511312 48.345703 16.820312 C 48.380703 16.926313 48.423078 17.031672 48.455078 17.138672 C 48.559078 17.484672 48.64375 17.834547 48.71875 18.185547 C 48.73375 18.253547 48.753578 18.319672 48.767578 18.388672 C 48.935578 19.245672 49.019531 20.119953 49.019531 21.001953 C 49.019531 21.791953 48.950547 22.570078 48.810547 23.330078 C 48.690547 24.020078 48.519063 24.701328 48.289062 25.361328 C 46.169063 31.510328 39.679531 36 32.019531 36 C 24.359531 36 17.86 31.499844 15.75 25.339844 C 15.52 24.679844 15.340703 24.000781 15.220703 23.300781 C 15.090703 22.550781 15.019531 21.78 15.019531 21 C 15.019531 19.22 15.370547 17.490078 16.060547 15.830078 C 16.380547 15.070078 16.229688 14.220156 15.679688 13.660156 C 14.379687 12.370156 13.809609 10.570234 14.099609 8.7402344 C 14.469609 6.3902344 16.370703 4.4700781 18.720703 4.0800781 C 19.050703 4.0300781 19.379219 4 19.699219 4 z M 26.023438 14 A 2 2 0 0 0 24.023438 16 A 2 2 0 0 0 26.023438 18 A 2 2 0 0 0 28.023438 16 A 2 2 0 0 0 26.023438 14 z M 38.023438 14 A 2 2 0 0 0 36.023438 16 A 2 2 0 0 0 38.023438 18 A 2 2 0 0 0 40.023438 16 A 2 2 0 0 0 38.023438 14 z M 32.023438 18 C 26.509437 18 22.023438 21.589 22.023438 26 C 22.023438 30.411 26.510437 34 32.023438 34 C 37.537438 34 42.023438 30.411 42.023438 26 C 42.023438 21.589 37.537438 18 32.023438 18 z M 32.023438 20 C 36.434438 20 40.023438 22.691 40.023438 26 C 40.023438 29.309 36.434438 32 32.023438 32 C 27.612437 32 24.023438 29.309 24.023438 26 C 24.023438 22.691 27.612437 20 32.023438 20 z M 32.023438 21 C 30.920437 21 30.023438 21.897 30.023438 23 C 30.023438 23.737 30.428438 24.375656 31.023438 24.722656 L 31.023438 26.585938 L 30.732422 26.878906 C 30.341422 27.268906 29.707406 27.269906 29.316406 26.878906 L 28.730469 26.292969 C 28.339469 25.901969 27.707406 25.901969 27.316406 26.292969 C 26.925406 26.683969 26.925406 27.314078 27.316406 27.705078 L 27.902344 28.292969 C 29.032344 29.421969 30.846438 29.461203 32.023438 28.408203 C 32.591437 28.916203 33.307437 29.169922 34.023438 29.169922 C 34.792437 29.169922 35.560484 28.877969 36.146484 28.292969 L 36.732422 27.707031 C 37.122422 27.316031 37.122469 26.682969 36.730469 26.292969 C 36.341469 25.901969 35.707406 25.902922 35.316406 26.294922 L 34.732422 26.878906 C 34.342422 27.268906 33.708406 27.269906 33.316406 26.878906 L 33.023438 26.585938 L 33.023438 24.722656 C 33.618437 24.375656 34.023438 23.737 34.023438 23 C 34.023438 21.897 33.126438 21 32.023438 21 z M 14.019531 26.419922 C 16.549531 33.139922 23.669531 38 32.019531 38 C 40.369531 38 47.479531 33.149453 50.019531 26.439453 L 60.580078 33.039062 C 61.820078 33.809062 62.309766 35.329688 61.759766 36.679688 L 61.740234 36.740234 C 61.410234 37.500234 60.809297 38.069609 60.029297 38.349609 C 59.259297 38.639609 58.419687 38.590703 57.679688 38.220703 L 51.330078 35.050781 C 50.630078 34.700781 49.820938 34.779766 49.210938 35.259766 C 48.590938 35.739766 48.320234 36.519297 48.490234 37.279297 L 48.949219 39.330078 C 49.159219 40.240078 49.279844 41.159844 49.339844 42.089844 C 48.909844 42.029844 48.469531 42 48.019531 42 C 42.509531 42 38.019531 46.49 38.019531 52 C 38.019531 53.42 38.319375 54.78 38.859375 56 L 25.179688 56 C 25.719687 54.78 26.019531 53.42 26.019531 52 C 26.019531 49.1 24.780781 46.490391 22.800781 44.650391 C 25.290781 42.960391 28.289531 41.970703 31.519531 41.970703 C 31.989531 41.970703 32.469453 41.989297 32.939453 42.029297 C 33.479453 42.079297 33.940234 41.690391 33.990234 41.150391 C 34.030234 40.620391 33.639375 40.149375 33.109375 40.109375 C 32.579375 40.059375 32.049531 40.029297 31.519531 40.029297 C 27.639531 40.029297 24.059922 41.299688 21.169922 43.429688 C 19.669922 42.519688 17.899531 42 16.019531 42 C 15.569531 42 15.119453 42.029844 14.689453 42.089844 C 14.739453 41.179844 14.870547 40.280625 15.060547 39.390625 L 15.529297 37.259766 C 15.689297 36.499766 15.420781 35.73 14.800781 35.25 C 14.190781 34.78 13.379687 34.689063 12.679688 35.039062 L 6.3203125 38.220703 C 5.5803125 38.590703 4.7407031 38.639609 3.9707031 38.349609 C 3.1907031 38.069609 2.5897656 37.500234 2.2597656 36.740234 L 2.2402344 36.689453 C 1.6902344 35.349453 2.1799219 33.819063 3.4199219 33.039062 L 14.019531 26.419922 z M 36.96875 40.974609 C 36.593656 40.996969 36.248734 41.237234 36.115234 41.615234 C 35.937234 42.117234 36.200125 42.669656 36.703125 42.847656 C 37.349125 43.076656 37.982844 43.349156 38.589844 43.660156 C 38.730844 43.732156 38.880344 43.765625 39.027344 43.765625 C 39.379344 43.765625 39.715719 43.574234 39.886719 43.240234 C 40.129719 42.765234 39.940797 42.183453 39.466797 41.939453 C 38.784797 41.591453 38.072656 41.284344 37.347656 41.027344 C 37.222656 40.983094 37.093781 40.967156 36.96875 40.974609 z M 16.019531 44 C 17.279531 44 18.469297 44.290547 19.529297 44.810547 C 20.129297 45.110547 20.699219 45.480156 21.199219 45.910156 C 22.929219 47.370156 24.019531 49.56 24.019531 52 C 24.019531 53.45 23.629453 54.82 22.939453 56 C 22.509453 56.75 21.960547 57.43 21.310547 58 C 19.900547 59.24 18.049531 60 16.019531 60 C 11.609531 60 8.0195312 56.41 8.0195312 52 C 8.0195312 48.76 9.96 45.950938 12.75 44.710938 L 12.75 44.699219 C 13.36 44.429219 14.019219 44.219375 14.699219 44.109375 C 15.129219 44.039375 15.569531 44 16.019531 44 z M 48.019531 44 C 48.469531 44 48.900078 44.039375 49.330078 44.109375 C 50.020078 44.219375 50.669062 44.419219 51.289062 44.699219 C 54.079062 45.949219 56.019531 48.75 56.019531 52 C 56.019531 56.41 52.439531 60 48.019531 60 C 45.999531 60 44.150234 59.24 42.740234 58 C 42.090234 57.43 41.529609 56.75 41.099609 56 C 40.409609 54.82 40.019531 53.45 40.019531 52 C 40.019531 47.59 43.609531 44 48.019531 44 z M 16.023438 46 C 15.470437 46 15.023438 46.448 15.023438 47 L 15.023438 49 C 15.023438 49.552 15.470438 50 16.023438 50 C 16.576438 50 17.023438 49.552 17.023438 49 L 17.023438 47 C 17.023438 46.448 16.576438 46 16.023438 46 z M 48.023438 46 C 47.470438 46 47.023438 46.448 47.023438 47 L 47.023438 49 C 47.023438 49.552 47.470438 50 48.023438 50 C 48.576437 50 49.023438 49.552 49.023438 49 L 49.023438 47 C 49.023438 46.448 48.576437 46 48.023438 46 z M 11.818359 48.507812 C 11.4315 48.459766 11.035125 48.6415 10.828125 49 C 10.552125 49.478 10.717313 50.089234 11.195312 50.365234 L 12.927734 51.365234 C 13.084734 51.456234 13.255781 51.5 13.425781 51.5 C 13.771781 51.5 14.107969 51.321 14.292969 51 C 14.568969 50.521 14.405734 49.910766 13.927734 49.634766 L 12.195312 48.634766 C 12.075563 48.565516 11.947313 48.523828 11.818359 48.507812 z M 20.230469 48.507812 C 20.101688 48.523828 19.974719 48.565516 19.855469 48.634766 L 18.123047 49.634766 C 17.645047 49.910766 17.480812 50.521 17.757812 51 C 17.943812 51.321 18.277047 51.5 18.623047 51.5 C 18.793047 51.5 18.966047 51.456234 19.123047 51.365234 L 20.855469 50.365234 C 21.334469 50.089234 21.497703 49.478 21.220703 49 C 21.012953 48.6415 20.616813 48.459766 20.230469 48.507812 z M 43.818359 48.507812 C 43.4315 48.459766 43.035125 48.6415 42.828125 49 C 42.552125 49.478 42.717312 50.089234 43.195312 50.365234 L 44.927734 51.365234 C 45.084734 51.456234 45.255781 51.5 45.425781 51.5 C 45.771781 51.5 46.107969 51.321 46.292969 51 C 46.568969 50.521 46.405734 49.910766 45.927734 49.634766 L 44.195312 48.634766 C 44.075563 48.565516 43.947313 48.523828 43.818359 48.507812 z M 52.230469 48.507812 C 52.101734 48.523906 51.974469 48.565516 51.855469 48.634766 L 50.123047 49.634766 C 49.645047 49.910766 49.480813 50.521 49.757812 51 C 49.942813 51.321 50.277047 51.5 50.623047 51.5 C 50.793047 51.5 50.966047 51.456234 51.123047 51.365234 L 52.855469 50.365234 C 53.334469 50.089234 53.497703 49.478 53.220703 49 C 53.012953 48.64075 52.616672 48.459531 52.230469 48.507812 z"/>
</svg>