<svg xmlns="http://www.w3.org/2000/svg" width="132" height="7" viewBox="0 0 132 7">
  <path fill="#02D4FD" d="M17.65,0 L16.6,0 L11.5,0 L4,0 C4,5.5 0,5.5 0,11 C0,16.5 4,16.5 4,22 C4,27.5 0,27.5 0,33 C0,38.5 4,38.5 4,44 C4,49.5 0,49.5 0,55 C0,60.5 4,60.5 4,66 L11.5,66 L16.6,66 L17.65,66 L14.5,66 L7,66 C7,60.5 3,60.5 3,55 C3,49.5 7,49.5 7,44 C7,38.5 3,38.5 3,33 C3,27.5 7,27.5 7,22 C7,16.5 3,16.5 3,11 C3,5.5 7,5.5 7,0 L14.5,0 L17.65,0 Z M17.65,66 L16.6,66 L11.5,66 L4,66 C4,71.5 0,71.5 0,77 C0,82.5 4,82.5 4,88 C4,93.5 0,93.5 0,99 C0,104.5 4,104.5 4,110 C4,115.5 0,115.5 0,121 C0,126.5 4,126.5 4,132 L11.5,132 L16.6,132 L17.65,132 L14.5,132 L7,132 C7,126.5 3,126.5 3,121 C3,115.5 7,115.5 7,110 C7,104.5 3,104.5 3,99 C3,93.5 7,93.5 7,88 C7,82.5 3,82.5 3,77 C3,71.5 7,71.5 7,66 L14.5,66 L17.65,66 Z" transform="rotate(90 66 66)"/>
</svg>
