<svg xmlns="http://www.w3.org/2000/svg" width="26" height="66" viewBox="0 0 26 66">
  <g fill="none">
    <path fill="#F2F2F2" d="M16.6,0 L11.5,0 L4,0 C4,5.5 0,5.5 0,11 C0,16.5 4,16.5 4,22 C4,27.5 0,27.5 0,33 C0,38.5 4,38.5 4,44 C4,49.5 0,49.5 0,55 C0,60.5 4,60.5 4,66 L11.5,66 L16.6,66 L18.7,66 L18.7,0 L16.6,0 Z" transform="matrix(-1 0 0 1 18.7 0)"/>
    <path fill="#C42DFF" d="M23.6,0 L18.5,0 L11,0 C11,5.5 7,5.5 7,11 C7,16.5 11,16.5 11,22 C11,27.5 7,27.5 7,33 C7,38.5 11,38.5 11,44 C11,49.5 7,49.5 7,55 C7,60.5 11,60.5 11,66 L18.5,66 L23.6,66 L25.7,66 L25.7,0 L23.6,0 Z"/>
  </g>
</svg>
