<svg xmlns="http://www.w3.org/2000/svg" width="1858" height="530" viewBox="0 0 1858 530">
  <g fill="none" opacity=".2">
    <path fill="#6E00FF" d="M771.1,72.4 C766.7,71.8 763.1,69.5 759.7,67.2 L759.1,66.8 C758.8,66.6 758.4,66.4 758.1,66.3 C758,66.3 757.9,66.2 757.9,66.2 C757.5,66.3 757.4,66.5 757.3,66.9 C757.2,67.3 757.1,67.7 757,68.2 C756.8,69.2 756.6,70.2 756.1,71.1 C754.9,73.5 753.7,75.8 751.2,77.1 C750.4,77.5 749.5,78.4 749.9,79.8 C750.1,80.4 750.4,80.5 751.4,80.5 C751.6,80.5 751.8,80.5 752,80.6 C753.8,80.8 755.6,81.5 757.5,82.8 C759.1,83.8 760.5,85.2 761.8,86.5 L762.2,86.9 C762.8,87.5 763.5,87.8 764.1,87.8 C764.8,87.8 765.3,87.4 765.4,86.6 C766.2,81.6 768.2,78.2 771.9,75.7 C772.7,75.1 773.1,74.4 773,73.8 C772.7,73 772,72.6 771.1,72.4 Z M767,75.5 C766.9,75.7 766.9,75.9 766.9,76 C766.8,76.3 766.8,76.6 766.4,76.8 C765.7,77.2 765.3,78 764.9,78.9 C764.4,80.1 763.7,81.5 762,81.5 C760.8,81.5 759.7,80.7 758.8,79.9 C758.1,79.3 757.3,78.7 756.5,78.5 L756,78.4 L756,77.9 C756,76.6 756.6,75.9 757.1,75.3 C757.3,75 757.6,74.8 757.7,74.5 L757.9,74.1 C758.2,73.2 758.6,72.2 759.6,71.4 L760,71.1 L767.3,74.9 L767,75.5 Z M390.7,299.9 C386.4,298.4 383.2,296.6 381.7,292.3 C381.6,292 381.4,291.9 381.2,291.9 C380.9,291.9 380.4,292.2 380.3,292.8 C379,297.6 377,302.4 371.9,306 C376.5,307.6 376.9,308 381.4,312.7 L381.6,312.9 C382,313.3 382.4,313.8 382.8,313.8 C382.9,313.8 382.9,313.8 383,313.8 C383.8,313.5 383.8,312.4 383.7,312.2 C383.4,307.8 386.2,305.5 389.1,303.8 C389.3,303.7 389.5,303.6 389.7,303.4 C390.2,303.1 390.6,302.9 391,302.6 C392.4,301.6 392.4,301.1 392.4,301.1 C392.3,300.8 392.2,300.4 390.7,299.9 Z M387.2,301.3 C386.5,302.9 385.4,304 384.4,305 C383.5,305.9 382.7,306.7 382.2,307.8 L381.9,308.5 L381.2,308.1 C380.8,307.9 380.4,307.7 380.1,307.5 C379.3,307.1 378.7,306.7 378,306.3 C377.4,305.9 377,305.4 376.9,304.8 C376.8,304.3 377,303.7 377.5,303.3 C378.1,302.7 378.5,301.9 378.8,301.1 C379.3,299.9 379.9,298.7 381.2,297.8 L381.4,297.6 L381.7,297.7 C382.8,297.9 383.5,298.6 384.2,299.2 C384.9,299.9 385.6,300.4 386.6,300.5 L387.6,300.5 L387.2,301.3 Z M420,122.1 C420.3,120.7 420.6,120.2 421.2,119.9 C425.4,117.9 427.4,114.4 427.7,109.8 C427.8,108.9 427.7,107.8 428.8,107.5 C430.1,107.2 430.1,108.4 430.6,109.1 C433.2,112.7 436.5,115.2 441.3,114.6 C442,114.5 442.6,114.7 442.8,115.3 C443.1,116 442.7,116.5 442.2,116.9 C441.7,117.3 441.2,117.7 440.6,117.9 C437,119.8 435,122.8 434.1,126.7 C433.9,127.5 433.9,128.3 433.6,129 C432.9,130.5 431.3,130.7 430.3,129.2 C429.6,128.2 429.2,126.9 428.5,125.9 C426.8,122.8 423.7,121.9 420,122.1 Z M426.8,119.3 C428.5,120.7 430,121.9 431.7,123.2 C433,121 434.2,119.1 435.5,117.1 C433.5,115.9 431.7,114.8 429.9,113.6 C428.8,115.6 427.9,117.3 426.8,119.3 Z M856.6,186.6 C853,188.9 850.8,191.7 848.9,195 C848.1,196.4 846.5,195.7 846.4,194.7 C846.3,190.4 842.7,190.2 840.1,189 C839.8,187.9 840.4,187.2 841.1,187 C843.8,186 844.4,183.4 845.6,181.3 C847,178.8 847.7,178.7 849,181 C850.8,183.8 852.9,185.8 856.6,186.6 Z M847.6,183.3 C846.8,184.5 845.9,185.4 845.5,186.6 C844.9,188.3 846.6,189 847.5,189.8 C848.5,190.6 849.2,189.6 849.8,189 C850.6,188.2 851,187.3 850,186.3 C849.1,185.3 848.4,184.3 847.6,183.3 Z M342.6,460.4 C344.7,457.3 346.1,454.5 347.2,451.4 C347.8,449.6 349.2,450.3 350.1,451.4 C351.7,453.4 353.2,455.1 356,455.4 C357.4,455.6 358.1,457.1 356.5,458.1 C354.3,459.6 353.1,461.6 352.6,464.2 C352.4,465.2 352.1,466.5 350.7,466.4 C349.6,466.4 349.1,465.6 348.8,464.6 C348,462 346,460.5 342.6,460.4 Z M348.9,455.3 C348,456 347.7,457 347.6,457.9 C347.5,459.2 348.6,459.7 349.6,460.2 C350.5,460.6 351,460 351.5,459.3 C352.3,458.1 351.9,457.3 350.7,456.7 C350.1,456.3 349.5,455.7 348.9,455.3 Z M1149.8,393 C1146.6,396 1144.1,398.7 1142.2,401.9 C1141.6,402.9 1140.6,402.7 1139.8,402 C1138.6,400.8 1136.3,398.8 1135.1,397.6 C1134,396.5 1133.8,395.5 1135,394.4 C1136.9,392.8 1138.5,391.5 1137.8,389.2 C1137.6,388.6 1137.8,388 1138.3,387.6 C1139,387.1 1139.6,387.6 1140,388 C1142.7,390.3 1145.4,392.5 1149.8,393 Z M1140.7,398.3 C1141.7,398.2 1143.6,395.5 1143.3,394.7 C1143,393.8 1141.6,392.4 1140.8,392.5 C1139.3,392.7 1137.9,394.6 1137.9,396 C1137.9,397.7 1139.7,398.2 1140.7,398.3 Z M619.8,163 C616.6,166 614.1,168.7 612.2,171.9 C611.6,172.9 610.6,172.7 609.8,172 C608.6,170.8 606.3,168.8 605.1,167.6 C604,166.5 603.8,165.5 605,164.4 C606.9,162.8 608.5,161.5 607.8,159.2 C607.6,158.6 607.8,158 608.3,157.6 C609,157.1 609.6,157.6 610,158 C612.7,160.3 615.4,162.5 619.8,163 Z M610.7,168.3 C611.7,168.2 613.6,165.5 613.3,164.7 C613,163.8 611.6,162.4 610.8,162.5 C609.3,162.7 607.9,164.6 607.9,166 C607.9,167.7 609.7,168.2 610.7,168.3 Z M966.3,511.4 C963.2,514.6 961,517.1 959.6,520.3 C959.3,520.9 958.3,521.6 957.7,520.7 C955.4,517.9 951.8,518.1 948.6,516.5 C951.4,513.9 953.1,510.8 954.6,507.6 C955.2,506.4 956.2,505.8 957.2,507 C959.3,509.6 962.1,511 966.3,511.4 Z M956.1,509.2 C952.9,514 952.9,514.6 955.1,515.7 C958.3,517.4 958.8,517.2 960.9,512.4 C959.4,511.5 957.9,510.4 956.1,509.2 Z M978.1,76.5 C977,71.5 972.4,73.8 969.8,71.9 C971.7,68.9 974.8,66.7 974.8,62.7 C974.8,61.6 976.5,61.6 977,62.4 C978.8,64.9 981,66.7 984.1,67.2 C985,67.4 985.1,68.6 984.3,69 C981.5,70.7 980.2,73.6 978.1,76.5 Z M974,70.2 C975.2,70.6 976,70.9 976.9,71.2 C978.1,71.8 978.9,71.3 979.6,70.2 C980.4,69 979.8,68.2 978.9,67.5 C978.2,67 977.5,66.4 976.8,65.8 C975.4,67.1 974.8,68.5 974,70.2 Z M209.9,53 C208.4,49.9 207.5,47.6 203.7,48.5 C206,45.7 208.4,44.7 208.8,41.9 C210.4,44.1 212.7,45 214.7,46.5 C213.4,48.8 210.6,49.5 209.9,53 Z M210.9,47.1 C210.6,46.3 210.1,45.9 209.3,45.9 C208.8,45.9 208.5,46.1 208.4,46.7 C208.3,47.6 209,48.1 209.7,48.2 C210.3,48.2 210.8,47.8 210.9,47.1 Z M202.1,339.3 C203.5,342.6 206.8,342.7 209.6,344.6 C206.4,345.8 204.2,347.8 202.2,350 C200.4,348.8 199,347.3 197,346.5 C198.3,343.8 201.7,342.8 202.1,339.3 Z M206.1,344.9 C204,343 202.8,341.4 200.9,343.7 C200,344.8 199.5,345.7 200.9,346.7 C203.6,348.5 203.7,345.1 206.1,344.9 Z M5.3,519.3 C6.7,522.6 10,522.7 12.8,524.6 C9.6,525.8 7.4,527.8 5.4,530 C3.6,528.8 2.2,527.3 0.2,526.5 C1.6,523.8 4.9,522.8 5.3,519.3 Z M9.3,524.9 C7.2,523 6,521.4 4.1,523.7 C3.2,524.8 2.7,525.7 4.1,526.7 C6.8,528.5 7,525.1 9.3,524.9 Z M1627.5,79.9 C1627.4,79.1 1625,78.9 1627.1,77.6 C1628.1,77 1628.8,75.9 1629.9,74.7 C1631.5,76.2 1632.8,77.9 1635.1,78.4 C1634.1,81.1 1631.5,81.7 1630.1,83.6 C1628.7,82.5 1628.2,81 1627.4,79.7 C1628.2,79.4 1628.9,79.7 1629.5,80.1 C1630.4,80.7 1631.2,80.7 1631.9,79.9 C1632.5,79.2 1631.9,78.8 1631.4,78.5 C1630.6,77.9 1629.8,76.8 1628.7,78 C1628.3,78.5 1627.9,79.2 1627.5,79.9 Z M1832.1,5.6 C1832,4.8 1829.6,4.6 1831.7,3.3 C1832.7,2.7 1833.4,1.6 1834.5,0.4 C1836.1,1.9 1837.4,3.6 1839.7,4.1 C1838.7,6.8 1836.1,7.4 1834.7,9.3 C1833.3,8.2 1832.8,6.7 1832,5.4 C1832.8,5.1 1833.5,5.4 1834.1,5.8 C1835,6.4 1835.8,6.4 1836.5,5.6 C1837.1,4.9 1836.5,4.5 1836,4.2 C1835.2,3.6 1834.4,2.5 1833.3,3.7 C1832.9,4.3 1832.6,5 1832.1,5.6 Z M1417,312.6 C1415.4,313.2 1414.3,314.7 1413,316.1 C1411.4,315.1 1411,313 1408.3,312.9 C1410.8,311.4 1411.5,309.4 1412.9,307.9 C1414.3,309.4 1415.5,310.8 1417,312.6 Z M1414.2,311.7 C1414,311.1 1413.6,310.6 1413,310.7 C1412.4,310.8 1412,311.4 1412,312.1 C1412,313 1412.6,313.1 1413.2,313 C1413.9,312.9 1414.1,312.4 1414.2,311.7 Z" transform="translate(18)"/>
    <path fill="#02D3FB" d="M948,303.1 C948,304.1 947.6,304.8 946.9,305.2 C943.8,306.9 941.6,309.4 939.7,312.4 C938.1,314.9 936.6,314.5 935.7,311.6 C934.5,308 933.6,304.4 929.4,302.8 C928.2,302.4 928.2,300.9 929.4,300.1 C932.3,298.2 934.8,296 936.7,293 C937.4,291.9 938.7,292.1 939.5,293.1 C940.3,294.1 940.9,295.2 941.6,296.2 C943,298.1 944,300.3 946.4,301.1 C947.5,301.5 947.9,302.3 948,303.1 Z M942.9,303.6 C941.7,302.2 940.7,300.9 939.6,299.6 C937.7,297.3 937.7,297.3 935.5,299.5 C935,300 934.2,300.5 934.4,301.6 C936.2,302.9 937.3,305 938.1,307.5 C940,306 941.4,304.8 942.9,303.6 Z M737.4,219.3 C738.9,220.7 740.2,222 741.6,223.3 C743.4,225.1 745.5,226.5 748.1,226.7 C748.8,226.8 749.7,226.6 750,227.6 C750.3,228.5 749.6,229.2 748.9,229.5 C744.6,231.2 743.8,234.6 744.2,238.7 C744.3,239.7 744.2,240.6 743.1,241 C742,241.4 741.3,240.7 740.9,239.7 C739.3,235.4 735.9,234.1 731.7,233.8 C731.1,233.8 730.5,233.7 729.8,233.6 C729.2,233.5 728.7,233.1 728.5,232.4 C728.3,231.7 728.7,231.1 729.3,230.9 C734.5,229.3 735.9,225.2 736.4,220.5 C736.4,220.3 736.8,220.1 737.4,219.3 Z M552.4,319.3 C553.9,320.7 555.2,322 556.6,323.3 C558.4,325.1 560.5,326.5 563.1,326.7 C563.8,326.8 564.7,326.6 565,327.6 C565.3,328.5 564.6,329.2 563.9,329.5 C559.6,331.2 558.8,334.6 559.2,338.7 C559.3,339.7 559.2,340.6 558.1,341 C557,341.4 556.3,340.7 555.9,339.7 C554.3,335.4 550.9,334.1 546.7,333.8 C546.1,333.8 545.5,333.7 544.8,333.6 C544.2,333.5 543.7,333.1 543.5,332.4 C543.3,331.7 543.7,331.1 544.3,330.9 C549.5,329.3 550.9,325.2 551.4,320.5 C551.4,320.3 551.8,320.1 552.4,319.3 Z M735.7,231.1 C742,234.2 741.1,233.3 742.5,230.5 C743.5,228.5 743.2,228.3 738.4,226.1 C737.4,227.5 737.3,229.6 735.7,231.1 Z M1591.8,433.5 C1595.4,433.1 1598.4,432.6 1600.9,430 C1602.6,428.2 1604.3,429 1604,431.4 C1603.6,435 1606.7,436.8 1608,440 C1604.3,440.2 1601,440.8 1598.5,443.5 C1597.9,444.2 1596.7,443.6 1596.8,442.9 C1597.7,438.3 1595,436 1591.8,433.5 Z M1597,435.4 C1599.1,436.4 1598.1,440 1601.4,438.4 C1604.8,436.8 1601.3,435.2 1601.8,433.3 C1600.9,433.6 1600.4,433.7 1600,433.9 C1599.3,434.1 1598.6,434.5 1597,435.4 Z M595.3,16.9 C594.4,12.4 592.2,9.7 587,10 C591.4,7.9 592.7,4.4 593,0.3 C595.8,1 596.2,3.6 597.6,5.1 C599.2,6.8 601.6,6.6 603.6,8.6 C599.8,10.4 597.5,13.3 595.3,16.9 Z M595,5.8 C593.8,6.1 593.3,7.2 593.4,7.9 C593.6,9.4 594.8,10.3 596.2,10.5 C597.1,10.6 597.9,9.5 597.7,8.6 C597.3,7.3 596.3,6.3 595,5.8 Z M549.1,487.1 C552.9,484.3 554.2,480.8 554,476.9 C555.7,476.2 556.2,477.1 556.5,477.9 C557.6,480.6 559.2,482.5 562.4,482.2 C563.2,482.1 564.1,482.4 564.3,483.2 C564.6,484.1 563.8,484.5 563.1,484.9 C560.8,486.2 559.8,488.5 558.8,490.8 C557.6,493.5 557.7,493.4 555.7,491.5 C553.9,489.9 552.1,488.2 549.1,487.1 Z M559.4,484.6 C558.1,483.7 557,482.8 555.4,482.5 C555.4,484.2 553.6,485 553.3,486.5 C556.9,489 556.9,489 559.4,484.6 Z M350,350.3 C351.4,354.1 354.4,355.2 358.3,355.6 C356.1,358.8 353.7,361.2 352.7,364.5 C352.4,365.3 351.2,365.4 350.9,364.5 C349.6,360.5 346.4,360.2 342.6,360.5 C343.5,358.2 346.1,358 346.7,355.9 C347.3,354 347.6,351.9 350,350.3 Z M353.7,357.3 C352.4,356.3 351.1,355.4 349.6,354.3 C348.9,355.8 348.4,357.1 347.9,358.3 C351.6,360.4 351.6,360.4 353.7,357.3 Z M375.8,96.5 C375.7,93.8 377.8,91.6 380.8,91.5 C383.4,91.3 385.2,93 385.4,95.7 C385.6,98.6 383.6,101 380.8,101 C378,100.9 375.9,99 375.8,96.5 Z M386.7,236.6 C382.8,238.9 382.1,242.8 380.8,246.9 C378.4,244 376.8,240.3 372,242.8 C374.8,239.4 376.3,236.1 376.6,231.1 C379.4,235.2 382.6,236.4 386.7,236.6 Z M378.8,236.5 C377.4,236.8 376.8,238 376.8,239.2 C376.7,240.5 378.1,240.8 379.1,241 C380.6,241.3 380.8,239.9 381.1,239 C381.5,237.3 379.8,237.2 378.8,236.5 Z M770.3,421.1 C768.4,418.5 766.7,416.2 763.4,415.4 C765.1,413 767,411.5 766.9,408.8 C766.9,407.6 768.4,407.2 768.8,408 C770.2,410.8 773.1,410.7 776,411.8 C773,414.5 771.8,417.7 770.3,421.1 Z M769.4,412.5 C768.8,412.9 768,413.3 768.1,414.2 C768.2,415 768.8,415.6 769.7,415.4 C770.5,415.2 770.9,414.4 770.7,413.6 C770.6,413 770,412.7 769.4,412.5 Z M1531.7,164 C1529.6,158.7 1529.6,158.7 1525.8,157.4 C1528.5,155.3 1531.5,153.7 1533.4,150.3 C1535.5,153.1 1536,156.2 1538.5,158 C1539.4,158.7 1538.9,160 1537.8,160 C1535.1,160.3 1533.7,162.1 1531.7,164 Z M1532.9,159.9 C1533.7,159.3 1534.5,158.9 1535,158.2 C1535.4,157.6 1533.4,154.5 1532.7,154.7 C1531.9,154.9 1530.8,155.5 1530.8,156.4 C1530.8,157.8 1531.7,158.9 1532.9,159.9 Z M1840.3,400.7 C1838.2,395.4 1838.2,395.4 1834.4,394.1 C1837.1,392 1840.1,390.4 1842,387 C1844.1,389.8 1844.6,392.9 1847.1,394.7 C1848,395.4 1847.5,396.7 1846.4,396.7 C1843.8,396.9 1842.3,398.8 1840.3,400.7 Z M1841.5,396.6 C1842.3,396 1843.1,395.6 1843.6,394.9 C1844,394.3 1842,391.2 1841.3,391.4 C1840.5,391.6 1839.4,392.2 1839.4,393.1 C1839.4,394.5 1840.4,395.5 1841.5,396.6 Z M1075.1,223.3 C1073.7,221.2 1073.6,219 1071.5,218.2 C1070.7,217.9 1070.9,216.9 1071.5,216.2 C1073,214.4 1073.4,212 1074.4,209.1 C1076.5,212.2 1079.1,213.9 1083,215.2 C1078.6,216.8 1076.7,219.6 1075.1,223.3 Z M1077.8,215.6 C1077.5,214.4 1076.6,213.5 1075.5,213.5 C1073.8,213.5 1073.4,215.2 1073.1,216.5 C1072.8,217.6 1074,218.2 1074.9,218.2 C1076.3,218.1 1077.1,216.8 1077.8,215.6 Z M82.8,260 C83.6,258.3 84.5,256.7 85.5,254.6 C87.2,257 88.5,259.4 92.2,259.5 C89.4,261.8 87.1,263.3 86.7,267.3 C84.5,264.6 83.6,262 80.6,262.2 C80.7,260.6 81.7,260.3 82.8,260 C83.4,260.6 84,261.3 84.7,261.9 C85.5,262.7 86.3,262.6 87,261.7 C87.8,260.8 87.4,260.2 86.8,259.4 C84.9,256.7 84.3,260.3 82.8,260 Z M864.2,248.6 C865.9,248.5 867.7,250.7 867.7,252.9 C867.7,254.6 867,256 865.1,256.1 C863.1,256.3 861.2,254.8 861.1,253.1 C860.9,250.9 862.4,248.7 864.2,248.6 Z M1785.2,215.7 C1786.9,215.6 1788.7,217.8 1788.7,220 C1788.7,221.7 1788,223.1 1786.1,223.2 C1784.1,223.4 1782.2,221.9 1782.1,220.2 C1781.9,217.9 1783.4,215.8 1785.2,215.7 Z M316.5,273.9 C316.5,276 315.2,277.8 313.4,277.8 C311.8,277.9 310.1,276.2 310.1,274.6 C310.1,272.9 311.9,270.6 313.3,270.5 C315.1,270.4 316.5,271.9 316.5,273.9 Z M1340.1,164.6 C1337.6,166.1 1335.5,167 1334.2,169.4 C1333,167.9 1332.1,166.8 1331,165.4 C1332.7,164.1 1333.5,162.3 1334.7,160.2 C1336,162.4 1337.4,164 1340.1,164.6 Z M1296.5,481.1 C1298.1,482.6 1299.6,484.2 1302.4,484.8 C1300.1,486.4 1298.5,487.9 1297.3,489.8 C1293.4,486.5 1293.4,486.5 1296.5,481.1 Z M1298.4,485.1 C1298,484.4 1297.5,483.8 1296.7,483.9 C1295.7,484 1295.7,484.9 1295.8,485.7 C1295.9,486.4 1296.5,486.8 1297.1,486.7 C1297.9,486.6 1298.4,486 1298.4,485.1 Z M210.9,485.9 C212.9,487.5 214.4,488.8 216.9,489.3 C215.6,491.2 214,492.3 213.8,494.3 C211.5,494.1 210.7,491.4 208.1,492.5 C209.2,490 210,488.2 210.9,485.9 Z M212.6,491.3 C213.1,491.1 213.5,491 213.4,490.4 C213.3,489.5 212.7,489 211.9,488.9 C211,488.7 210.9,489.5 211,490.1 C211.1,490.9 211.7,491.3 212.6,491.3 Z M228,211.4 C228,212.9 227.1,214 225.6,214.4 C224.4,214.7 222.6,213 222.4,211.5 C222.2,210 223.7,208.1 225,208.1 C226.3,208.1 227.9,209.9 228,211.4 Z M1196.2,79.5 C1196.2,81 1195.3,82.1 1193.8,82.5 C1192.6,82.8 1190.8,81.1 1190.6,79.6 C1190.4,78.1 1191.9,76.2 1193.2,76.2 C1194.5,76.2 1196.2,77.9 1196.2,79.5 Z M318.1,506.4 C316.2,505.4 314.9,504.7 314.1,503.2 C313.6,502.2 313.7,501.5 314.6,500.8 C315.6,500.1 316.6,499.9 317.4,501.1 C318.4,502.7 318.6,504.3 318.1,506.4 Z M500.1,88 C498.9,87.7 498.3,87 498.4,85.9 C498.5,84.8 499,83.7 500.4,83.9 C501.5,84 502.4,84.8 502.2,86.1 C502,87.4 501,87.7 500.1,88 Z M2,9.9 C0.8,9.6 0.2,8.9 0.3,7.8 C0.4,6.7 0.9,5.6 2.3,5.8 C3.4,5.9 4.3,6.7 4.1,8 C4,9.3 3,9.7 2,9.9 Z" transform="translate(0 6)"/>
  </g>
</svg>
