<svg xmlns="http://www.w3.org/2000/svg" width="1858" height="530" viewBox="0 0 1858 530">
  <g fill="none">
    <g fill="#6E00FF" transform="translate(18)">
      <path d="M771.1 72.4C766.7 71.8 763.1 69.5 759.7 67.2L759.1 66.8C758.8 66.6 758.4 66.4 758.1 66.3 758 66.3 757.9 66.2 757.9 66.2 757.5 66.3 757.4 66.5 757.3 66.9 757.2 67.3 757.1 67.7 757 68.2 756.8 69.2 756.6 70.2 756.1 71.1 754.9 73.5 753.7 75.8 751.2 77.1 750.4 77.5 749.5 78.4 749.9 79.8 750.1 80.4 750.4 80.5 751.4 80.5 751.6 80.5 751.8 80.5 752 80.6 753.8 80.8 755.6 81.5 757.5 82.8 759.1 83.8 760.5 85.2 761.8 86.5L762.2 86.9C762.8 87.5 763.5 87.8 764.1 87.8 764.8 87.8 765.3 87.4 765.4 86.6 766.2 81.6 768.2 78.2 771.9 75.7 772.7 75.1 773.1 74.4 773 73.8 772.7 73 772 72.6 771.1 72.4zM767 75.5C766.9 75.7 766.9 75.9 766.9 76 766.8 76.3 766.8 76.6 766.4 76.8 765.7 77.2 765.3 78 764.9 78.9 764.4 80.1 763.7 81.5 762 81.5 760.8 81.5 759.7 80.7 758.8 79.9 758.1 79.3 757.3 78.7 756.5 78.5L756 78.4 756 77.9C756 76.6 756.6 75.9 757.1 75.3 757.3 75 757.6 74.8 757.7 74.5L757.9 74.1C758.2 73.2 758.6 72.2 759.6 71.4L760 71.1 767.3 74.9 767 75.5zM390.7 299.9C386.4 298.4 383.2 296.6 381.7 292.3 381.6 292 381.4 291.9 381.2 291.9 380.9 291.9 380.4 292.2 380.3 292.8 379 297.6 377 302.4 371.9 306 376.5 307.6 376.9 308 381.4 312.7L381.6 312.9C382 313.3 382.4 313.8 382.8 313.8 382.9 313.8 382.9 313.8 383 313.8 383.8 313.5 383.8 312.4 383.7 312.2 383.4 307.8 386.2 305.5 389.1 303.8 389.3 303.7 389.5 303.6 389.7 303.4 390.2 303.1 390.6 302.9 391 302.6 392.4 301.6 392.4 301.1 392.4 301.1 392.3 300.8 392.2 300.4 390.7 299.9zM387.2 301.3C386.5 302.9 385.4 304 384.4 305 383.5 305.9 382.7 306.7 382.2 307.8L381.9 308.5 381.2 308.1C380.8 307.9 380.4 307.7 380.1 307.5 379.3 307.1 378.7 306.7 378 306.3 377.4 305.9 377 305.4 376.9 304.8 376.8 304.3 377 303.7 377.5 303.3 378.1 302.7 378.5 301.9 378.8 301.1 379.3 299.9 379.9 298.7 381.2 297.8L381.4 297.6 381.7 297.7C382.8 297.9 383.5 298.6 384.2 299.2 384.9 299.9 385.6 300.4 386.6 300.5L387.6 300.5 387.2 301.3zM420 122.1C420.3 120.7 420.6 120.2 421.2 119.9 425.4 117.9 427.4 114.4 427.7 109.8 427.8 108.9 427.7 107.8 428.8 107.5 430.1 107.2 430.1 108.4 430.6 109.1 433.2 112.7 436.5 115.2 441.3 114.6 442 114.5 442.6 114.7 442.8 115.3 443.1 116 442.7 116.5 442.2 116.9 441.7 117.3 441.2 117.7 440.6 117.9 437 119.8 435 122.8 434.1 126.7 433.9 127.5 433.9 128.3 433.6 129 432.9 130.5 431.3 130.7 430.3 129.2 429.6 128.2 429.2 126.9 428.5 125.9 426.8 122.8 423.7 121.9 420 122.1zM426.8 119.3C428.5 120.7 430 121.9 431.7 123.2 433 121 434.2 119.1 435.5 117.1 433.5 115.9 431.7 114.8 429.9 113.6 428.8 115.6 427.9 117.3 426.8 119.3zM856.6 186.6C853 188.9 850.8 191.7 848.9 195 848.1 196.4 846.5 195.7 846.4 194.7 846.3 190.4 842.7 190.2 840.1 189 839.8 187.9 840.4 187.2 841.1 187 843.8 186 844.4 183.4 845.6 181.3 847 178.8 847.7 178.7 849 181 850.8 183.8 852.9 185.8 856.6 186.6zM847.6 183.3C846.8 184.5 845.9 185.4 845.5 186.6 844.9 188.3 846.6 189 847.5 189.8 848.5 190.6 849.2 189.6 849.8 189 850.6 188.2 851 187.3 850 186.3 849.1 185.3 848.4 184.3 847.6 183.3zM342.6 460.4C344.7 457.3 346.1 454.5 347.2 451.4 347.8 449.6 349.2 450.3 350.1 451.4 351.7 453.4 353.2 455.1 356 455.4 357.4 455.6 358.1 457.1 356.5 458.1 354.3 459.6 353.1 461.6 352.6 464.2 352.4 465.2 352.1 466.5 350.7 466.4 349.6 466.4 349.1 465.6 348.8 464.6 348 462 346 460.5 342.6 460.4zM348.9 455.3C348 456 347.7 457 347.6 457.9 347.5 459.2 348.6 459.7 349.6 460.2 350.5 460.6 351 460 351.5 459.3 352.3 458.1 351.9 457.3 350.7 456.7 350.1 456.3 349.5 455.7 348.9 455.3zM1149.8 393C1146.6 396 1144.1 398.7 1142.2 401.9 1141.6 402.9 1140.6 402.7 1139.8 402 1138.6 400.8 1136.3 398.8 1135.1 397.6 1134 396.5 1133.8 395.5 1135 394.4 1136.9 392.8 1138.5 391.5 1137.8 389.2 1137.6 388.6 1137.8 388 1138.3 387.6 1139 387.1 1139.6 387.6 1140 388 1142.7 390.3 1145.4 392.5 1149.8 393zM1140.7 398.3C1141.7 398.2 1143.6 395.5 1143.3 394.7 1143 393.8 1141.6 392.4 1140.8 392.5 1139.3 392.7 1137.9 394.6 1137.9 396 1137.9 397.7 1139.7 398.2 1140.7 398.3zM619.8 163C616.6 166 614.1 168.7 612.2 171.9 611.6 172.9 610.6 172.7 609.8 172 608.6 170.8 606.3 168.8 605.1 167.6 604 166.5 603.8 165.5 605 164.4 606.9 162.8 608.5 161.5 607.8 159.2 607.6 158.6 607.8 158 608.3 157.6 609 157.1 609.6 157.6 610 158 612.7 160.3 615.4 162.5 619.8 163zM610.7 168.3C611.7 168.2 613.6 165.5 613.3 164.7 613 163.8 611.6 162.4 610.8 162.5 609.3 162.7 607.9 164.6 607.9 166 607.9 167.7 609.7 168.2 610.7 168.3zM966.3 511.4C963.2 514.6 961 517.1 959.6 520.3 959.3 520.9 958.3 521.6 957.7 520.7 955.4 517.9 951.8 518.1 948.6 516.5 951.4 513.9 953.1 510.8 954.6 507.6 955.2 506.4 956.2 505.8 957.2 507 959.3 509.6 962.1 511 966.3 511.4zM956.1 509.2C952.9 514 952.9 514.6 955.1 515.7 958.3 517.4 958.8 517.2 960.9 512.4 959.4 511.5 957.9 510.4 956.1 509.2zM978.1 76.5C977 71.5 972.4 73.8 969.8 71.9 971.7 68.9 974.8 66.7 974.8 62.7 974.8 61.6 976.5 61.6 977 62.4 978.8 64.9 981 66.7 984.1 67.2 985 67.4 985.1 68.6 984.3 69 981.5 70.7 980.2 73.6 978.1 76.5zM974 70.2C975.2 70.6 976 70.9 976.9 71.2 978.1 71.8 978.9 71.3 979.6 70.2 980.4 69 979.8 68.2 978.9 67.5 978.2 67 977.5 66.4 976.8 65.8 975.4 67.1 974.8 68.5 974 70.2zM209.9 53C208.4 49.9 207.5 47.6 203.7 48.5 206 45.7 208.4 44.7 208.8 41.9 210.4 44.1 212.7 45 214.7 46.5 213.4 48.8 210.6 49.5 209.9 53zM210.9 47.1C210.6 46.3 210.1 45.9 209.3 45.9 208.8 45.9 208.5 46.1 208.4 46.7 208.3 47.6 209 48.1 209.7 48.2 210.3 48.2 210.8 47.8 210.9 47.1zM202.1 339.3C203.5 342.6 206.8 342.7 209.6 344.6 206.4 345.8 204.2 347.8 202.2 350 200.4 348.8 199 347.3 197 346.5 198.3 343.8 201.7 342.8 202.1 339.3zM206.1 344.9C204 343 202.8 341.4 200.9 343.7 200 344.8 199.5 345.7 200.9 346.7 203.6 348.5 203.7 345.1 206.1 344.9zM5.3 519.3C6.7 522.6 10 522.7 12.8 524.6 9.6 525.8 7.4 527.8 5.4 530 3.6 528.8 2.2 527.3.2 526.5 1.6 523.8 4.9 522.8 5.3 519.3zM9.3 524.9C7.2 523 6 521.4 4.1 523.7 3.2 524.8 2.7 525.7 4.1 526.7 6.8 528.5 7 525.1 9.3 524.9zM1627.5 79.9C1627.4 79.1 1625 78.9 1627.1 77.6 1628.1 77 1628.8 75.9 1629.9 74.7 1631.5 76.2 1632.8 77.9 1635.1 78.4 1634.1 81.1 1631.5 81.7 1630.1 83.6 1628.7 82.5 1628.2 81 1627.4 79.7 1628.2 79.4 1628.9 79.7 1629.5 80.1 1630.4 80.7 1631.2 80.7 1631.9 79.9 1632.5 79.2 1631.9 78.8 1631.4 78.5 1630.6 77.9 1629.8 76.8 1628.7 78 1628.3 78.5 1627.9 79.2 1627.5 79.9zM1832.1 5.6C1832 4.8 1829.6 4.6 1831.7 3.3 1832.7 2.7 1833.4 1.6 1834.5.4 1836.1 1.9 1837.4 3.6 1839.7 4.1 1838.7 6.8 1836.1 7.4 1834.7 9.3 1833.3 8.2 1832.8 6.7 1832 5.4 1832.8 5.1 1833.5 5.4 1834.1 5.8 1835 6.4 1835.8 6.4 1836.5 5.6 1837.1 4.9 1836.5 4.5 1836 4.2 1835.2 3.6 1834.4 2.5 1833.3 3.7 1832.9 4.3 1832.6 5 1832.1 5.6zM1417 312.6C1415.4 313.2 1414.3 314.7 1413 316.1 1411.4 315.1 1411 313 1408.3 312.9 1410.8 311.4 1411.5 309.4 1412.9 307.9 1414.3 309.4 1415.5 310.8 1417 312.6zM1414.2 311.7C1414 311.1 1413.6 310.6 1413 310.7 1412.4 310.8 1412 311.4 1412 312.1 1412 313 1412.6 313.1 1413.2 313 1413.9 312.9 1414.1 312.4 1414.2 311.7z"/>
    </g>
    <g fill="#FFFFFF" transform="translate(0 6)">
      <path d="M948 303.1C948 304.1 947.6 304.8 946.9 305.2 943.8 306.9 941.6 309.4 939.7 312.4 938.1 314.9 936.6 314.5 935.7 311.6 934.5 308 933.6 304.4 929.4 302.8 928.2 302.4 928.2 300.9 929.4 300.1 932.3 298.2 934.8 296 936.7 293 937.4 291.9 938.7 292.1 939.5 293.1 940.3 294.1 940.9 295.2 941.6 296.2 943 298.1 944 300.3 946.4 301.1 947.5 301.5 947.9 302.3 948 303.1zM942.9 303.6C941.7 302.2 940.7 300.9 939.6 299.6 937.7 297.3 937.7 297.3 935.5 299.5 935 300 934.2 300.5 934.4 301.6 936.2 302.9 937.3 305 938.1 307.5 940 306 941.4 304.8 942.9 303.6zM737.4 219.3C738.9 220.7 740.2 222 741.6 223.3 743.4 225.1 745.5 226.5 748.1 226.7 748.8 226.8 749.7 226.6 750 227.6 750.3 228.5 749.6 229.2 748.9 229.5 744.6 231.2 743.8 234.6 744.2 238.7 744.3 239.7 744.2 240.6 743.1 241 742 241.4 741.3 240.7 740.9 239.7 739.3 235.4 735.9 234.1 731.7 233.8 731.1 233.8 730.5 233.7 729.8 233.6 729.2 233.5 728.7 233.1 728.5 232.4 728.3 231.7 728.7 231.1 729.3 230.9 734.5 229.3 735.9 225.2 736.4 220.5 736.4 220.3 736.8 220.1 737.4 219.3zM552.4 319.3C553.9 320.7 555.2 322 556.6 323.3 558.4 325.1 560.5 326.5 563.1 326.7 563.8 326.8 564.7 326.6 565 327.6 565.3 328.5 564.6 329.2 563.9 329.5 559.6 331.2 558.8 334.6 559.2 338.7 559.3 339.7 559.2 340.6 558.1 341 557 341.4 556.3 340.7 555.9 339.7 554.3 335.4 550.9 334.1 546.7 333.8 546.1 333.8 545.5 333.7 544.8 333.6 544.2 333.5 543.7 333.1 543.5 332.4 543.3 331.7 543.7 331.1 544.3 330.9 549.5 329.3 550.9 325.2 551.4 320.5 551.4 320.3 551.8 320.1 552.4 319.3zM735.7 231.1C742 234.2 741.1 233.3 742.5 230.5 743.5 228.5 743.2 228.3 738.4 226.1 737.4 227.5 737.3 229.6 735.7 231.1zM1591.8 433.5C1595.4 433.1 1598.4 432.6 1600.9 430 1602.6 428.2 1604.3 429 1604 431.4 1603.6 435 1606.7 436.8 1608 440 1604.3 440.2 1601 440.8 1598.5 443.5 1597.9 444.2 1596.7 443.6 1596.8 442.9 1597.7 438.3 1595 436 1591.8 433.5zM1597 435.4C1599.1 436.4 1598.1 440 1601.4 438.4 1604.8 436.8 1601.3 435.2 1601.8 433.3 1600.9 433.6 1600.4 433.7 1600 433.9 1599.3 434.1 1598.6 434.5 1597 435.4zM595.3 16.9C594.4 12.4 592.2 9.7 587 10 591.4 7.9 592.7 4.4 593 .3 595.8 1 596.2 3.6 597.6 5.1 599.2 6.8 601.6 6.6 603.6 8.6 599.8 10.4 597.5 13.3 595.3 16.9zM595 5.8C593.8 6.1 593.3 7.2 593.4 7.9 593.6 9.4 594.8 10.3 596.2 10.5 597.1 10.6 597.9 9.5 597.7 8.6 597.3 7.3 596.3 6.3 595 5.8zM549.1 487.1C552.9 484.3 554.2 480.8 554 476.9 555.7 476.2 556.2 477.1 556.5 477.9 557.6 480.6 559.2 482.5 562.4 482.2 563.2 482.1 564.1 482.4 564.3 483.2 564.6 484.1 563.8 484.5 563.1 484.9 560.8 486.2 559.8 488.5 558.8 490.8 557.6 493.5 557.7 493.4 555.7 491.5 553.9 489.9 552.1 488.2 549.1 487.1zM559.4 484.6C558.1 483.7 557 482.8 555.4 482.5 555.4 484.2 553.6 485 553.3 486.5 556.9 489 556.9 489 559.4 484.6zM350 350.3C351.4 354.1 354.4 355.2 358.3 355.6 356.1 358.8 353.7 361.2 352.7 364.5 352.4 365.3 351.2 365.4 350.9 364.5 349.6 360.5 346.4 360.2 342.6 360.5 343.5 358.2 346.1 358 346.7 355.9 347.3 354 347.6 351.9 350 350.3zM353.7 357.3C352.4 356.3 351.1 355.4 349.6 354.3 348.9 355.8 348.4 357.1 347.9 358.3 351.6 360.4 351.6 360.4 353.7 357.3zM375.8 96.5C375.7 93.8 377.8 91.6 380.8 91.5 383.4 91.3 385.2 93 385.4 95.7 385.6 98.6 383.6 101 380.8 101 378 100.9 375.9 99 375.8 96.5zM386.7 236.6C382.8 238.9 382.1 242.8 380.8 246.9 378.4 244 376.8 240.3 372 242.8 374.8 239.4 376.3 236.1 376.6 231.1 379.4 235.2 382.6 236.4 386.7 236.6zM378.8 236.5C377.4 236.8 376.8 238 376.8 239.2 376.7 240.5 378.1 240.8 379.1 241 380.6 241.3 380.8 239.9 381.1 239 381.5 237.3 379.8 237.2 378.8 236.5zM770.3 421.1C768.4 418.5 766.7 416.2 763.4 415.4 765.1 413 767 411.5 766.9 408.8 766.9 407.6 768.4 407.2 768.8 408 770.2 410.8 773.1 410.7 776 411.8 773 414.5 771.8 417.7 770.3 421.1zM769.4 412.5C768.8 412.9 768 413.3 768.1 414.2 768.2 415 768.8 415.6 769.7 415.4 770.5 415.2 770.9 414.4 770.7 413.6 770.6 413 770 412.7 769.4 412.5zM1531.7 164C1529.6 158.7 1529.6 158.7 1525.8 157.4 1528.5 155.3 1531.5 153.7 1533.4 150.3 1535.5 153.1 1536 156.2 1538.5 158 1539.4 158.7 1538.9 160 1537.8 160 1535.1 160.3 1533.7 162.1 1531.7 164zM1532.9 159.9C1533.7 159.3 1534.5 158.9 1535 158.2 1535.4 157.6 1533.4 154.5 1532.7 154.7 1531.9 154.9 1530.8 155.5 1530.8 156.4 1530.8 157.8 1531.7 158.9 1532.9 159.9zM1840.3 400.7C1838.2 395.4 1838.2 395.4 1834.4 394.1 1837.1 392 1840.1 390.4 1842 387 1844.1 389.8 1844.6 392.9 1847.1 394.7 1848 395.4 1847.5 396.7 1846.4 396.7 1843.8 396.9 1842.3 398.8 1840.3 400.7zM1841.5 396.6C1842.3 396 1843.1 395.6 1843.6 394.9 1844 394.3 1842 391.2 1841.3 391.4 1840.5 391.6 1839.4 392.2 1839.4 393.1 1839.4 394.5 1840.4 395.5 1841.5 396.6zM1075.1 223.3C1073.7 221.2 1073.6 219 1071.5 218.2 1070.7 217.9 1070.9 216.9 1071.5 216.2 1073 214.4 1073.4 212 1074.4 209.1 1076.5 212.2 1079.1 213.9 1083 215.2 1078.6 216.8 1076.7 219.6 1075.1 223.3zM1077.8 215.6C1077.5 214.4 1076.6 213.5 1075.5 213.5 1073.8 213.5 1073.4 215.2 1073.1 216.5 1072.8 217.6 1074 218.2 1074.9 218.2 1076.3 218.1 1077.1 216.8 1077.8 215.6zM82.8 260C83.6 258.3 84.5 256.7 85.5 254.6 87.2 257 88.5 259.4 92.2 259.5 89.4 261.8 87.1 263.3 86.7 267.3 84.5 264.6 83.6 262 80.6 262.2 80.7 260.6 81.7 260.3 82.8 260 83.4 260.6 84 261.3 84.7 261.9 85.5 262.7 86.3 262.6 87 261.7 87.8 260.8 87.4 260.2 86.8 259.4 84.9 256.7 84.3 260.3 82.8 260zM864.2 248.6C865.9 248.5 867.7 250.7 867.7 252.9 867.7 254.6 867 256 865.1 256.1 863.1 256.3 861.2 254.8 861.1 253.1 860.9 250.9 862.4 248.7 864.2 248.6zM1785.2 215.7C1786.9 215.6 1788.7 217.8 1788.7 220 1788.7 221.7 1788 223.1 1786.1 223.2 1784.1 223.4 1782.2 221.9 1782.1 220.2 1781.9 217.9 1783.4 215.8 1785.2 215.7zM316.5 273.9C316.5 276 315.2 277.8 313.4 277.8 311.8 277.9 310.1 276.2 310.1 274.6 310.1 272.9 311.9 270.6 313.3 270.5 315.1 270.4 316.5 271.9 316.5 273.9zM1340.1 164.6C1337.6 166.1 1335.5 167 1334.2 169.4 1333 167.9 1332.1 166.8 1331 165.4 1332.7 164.1 1333.5 162.3 1334.7 160.2 1336 162.4 1337.4 164 1340.1 164.6zM1296.5 481.1C1298.1 482.6 1299.6 484.2 1302.4 484.8 1300.1 486.4 1298.5 487.9 1297.3 489.8 1293.4 486.5 1293.4 486.5 1296.5 481.1zM1298.4 485.1C1298 484.4 1297.5 483.8 1296.7 483.9 1295.7 484 1295.7 484.9 1295.8 485.7 1295.9 486.4 1296.5 486.8 1297.1 486.7 1297.9 486.6 1298.4 486 1298.4 485.1zM210.9 485.9C212.9 487.5 214.4 488.8 216.9 489.3 215.6 491.2 214 492.3 213.8 494.3 211.5 494.1 210.7 491.4 208.1 492.5 209.2 490 210 488.2 210.9 485.9zM212.6 491.3C213.1 491.1 213.5 491 213.4 490.4 213.3 489.5 212.7 489 211.9 488.9 211 488.7 210.9 489.5 211 490.1 211.1 490.9 211.7 491.3 212.6 491.3zM228 211.4C228 212.9 227.1 214 225.6 214.4 224.4 214.7 222.6 213 222.4 211.5 222.2 210 223.7 208.1 225 208.1 226.3 208.1 227.9 209.9 228 211.4zM1196.2 79.5C1196.2 81 1195.3 82.1 1193.8 82.5 1192.6 82.8 1190.8 81.1 1190.6 79.6 1190.4 78.1 1191.9 76.2 1193.2 76.2 1194.5 76.2 1196.2 77.9 1196.2 79.5zM318.1 506.4C316.2 505.4 314.9 504.7 314.1 503.2 313.6 502.2 313.7 501.5 314.6 500.8 315.6 500.1 316.6 499.9 317.4 501.1 318.4 502.7 318.6 504.3 318.1 506.4zM500.1 88C498.9 87.7 498.3 87 498.4 85.9 498.5 84.8 499 83.7 500.4 83.9 501.5 84 502.4 84.8 502.2 86.1 502 87.4 501 87.7 500.1 88zM2 9.9C.8 9.6.2 8.9.3 7.8.4 6.7.9 5.6 2.3 5.8 3.4 5.9 4.3 6.7 4.1 8 4 9.3 3 9.7 2 9.9z"/>
    </g>
  </g>
</svg>
