<svg xmlns="http://www.w3.org/2000/svg" width="2000" height="2000" viewBox="0 0 2000 2000"><g fill="#3EAFFF" opacity=".146"><path d="M161.46 73.155c1.33.19 2.47.378 3.61.568 11.21 1.892 20.9 7.759 30.4 13.625 3.61 2.271 7.03 4.92 10.45 7.57 3.8 2.839 5.13 7.002 4.94 11.355-.19 3.785-2.09 6.813-5.7 8.705-5.51 2.84-11.4 4.542-17.48 5.867-8.74 1.703-17.48 3.028-26.41 3.217-.95 0-1.9 0-2.66.19-.38 0-.76.567-1.52.946.38 2.082.76 4.163 1.14 6.434.38 2.271.95 4.353 1.14 6.624.95 10.598 1.71 21.196 2.47 31.793.38 6.246-2.85 11.355-8.36 13.248-4.37 1.514-8.55.378-12.35-2.082-5.7-3.974-10.07-9.084-14.25-14.572-3.42-4.163-6.65-8.705-9.88-13.058-1.52-2.082-2.66-4.163-3.99-6.245-.76-1.325-1.9-2.46-3.04-3.974-1.14.946-2.09 1.514-2.85 2.27-7.03 6.813-13.87 13.626-21.09 20.25-2.85 2.65-5.89 4.92-9.12 7.191-9.5 6.813-18.62-1.703-18.81-9.273 0-4.163.57-8.516 1.71-12.68 1.71-6.812 3.8-13.625 5.89-20.249 1.14-3.406 2.85-6.623 4.37-10.03.76-1.892 1.52-3.596 2.47-5.677-1.52-.757-2.66-1.514-3.99-1.893-6.46-2.081-13.11-3.974-19.57-6.245-7.79-2.65-14.82-6.813-20.9-12.49-1.52-1.325-2.85-3.028-3.8-4.731-2.28-4.542-.76-9.084 3.8-11.544 1.9-1.136 4.18-2.082 6.27-2.84 3.99-1.513 8.17-2.838 12.16-4.541 6.46-2.839 13.68-3.407 20.52-5.11 1.14-.378 2.09-.568 3.04-.946 1.52-1.893.38-3.785.19-5.488-.95-4.731-2.09-9.273-2.85-14.005-1.33-8.516-1.52-17.221 1.71-25.359 1.33-3.595 3.23-7.002 7.03-8.705 4.37-2.082 8.17-1.893 12.16.757 5.32 3.596 9.88 7.948 13.87 12.869 4.75 6.056 9.88 11.733 15.01 17.978 1.33-.567 2.85-.946 3.99-1.892 3.42-2.65 6.65-5.488 9.88-8.327 4.56-3.785 9.12-7.57 14.44-10.03 4.56-2.082 9.12-4.164 13.87-5.488 5.89-1.704 9.31 0 12.35 5.488 2.09 3.974 3.04 7.948 2.47 12.49-.57 4.731-1.9 9.273-3.8 13.626-2.85 6.434-5.51 12.869-8.17 19.492 0 .947-.19 2.46-.76 4.92zm-3.42 5.488c-.76.757-1.14.946-1.33 1.325-2.85 4.73-5.51 9.273-8.36 14.004-.95 1.514-.76 3.028-.38 4.542 1.9 5.299 3.61 10.787 5.51 16.086.76 2.271 2.47 3.217 4.75 3.406 2.66.19 5.51.19 8.17.19 8.36-.19 16.53-2.271 24.89-3.974 3.04-.568 6.08-1.893 9.12-3.028 4.94-2.082 6.08-6.056 3.04-10.41-.76-1.135-1.9-1.892-2.85-2.838-6.46-5.11-13.49-9.273-20.71-13.058-6.84-3.406-13.87-6.056-21.85-6.245zm-43.32 58.667c.76 3.595 2.28 6.434 4.18 9.084 2.47 3.406 5.13 7.002 7.79 10.408 3.8 4.731 7.41 9.652 11.59 14.194 2.28 2.46 4.94 4.542 7.79 6.434 3.23 2.082 6.46.946 8.93-2.27 1.52-2.083 1.52-4.164 1.33-6.435-.76-8.706-1.14-17.6-2.28-26.306-.76-6.245-1.52-12.49-4.18-18.546-7.03-.19-13.68-.378-20.52-.568-1.71 0-3.23.568-4.18 1.893-3.61 3.785-7.03 7.948-10.45 12.112zm39.71-66.615c.57-.757 1.14-1.136 1.52-1.704 3.61-8.516 7.22-17.032 10.64-25.737 1.14-2.65 1.71-5.678 2.28-8.516.57-3.596 0-7.192-2.09-10.409-1.52-2.27-2.47-2.65-5.13-2.082-5.13 1.136-10.26 2.65-14.44 5.678-7.98 5.488-15.58 11.733-22.23 18.735-.95 1.136-1.71 2.65-2.47 3.785 3.04 4.731 5.89 9.084 8.55 13.437 1.71 2.838 3.8 4.163 7.03 4.542 3.99.378 7.98 1.324 12.16 1.892 1.14.19 2.85.19 4.18.379zm-75.62-6.246c5.51.757 10.45.568 15.39.19 2.85-.19 5.89 0 8.74 0 1.71-2.271 3.42-4.731 5.13-7.002 2.09-2.65 3.99-5.489 6.08-8.138-.76-1.325-1.14-2.65-1.9-3.785-5.89-7.191-11.59-14.572-17.67-21.574-2.28-2.65-5.32-5.11-8.17-7.192-3.61-2.65-7.41-1.892-10.07 1.893-.57.757-1.14 1.514-1.33 2.27-1.14 3.407-2.28 6.814-2.47 10.599-.76 9.462 1.52 18.357 3.8 27.44.38 1.704 1.52 3.218 2.47 5.3zm27.36 73.24c-2.47-5.867-5.7-10.599-9.31-14.951-4.56-5.678-10.83-6.813-17.29-6.624-5.7 8.895-8.93 18.357-11.4 28.009-1.33 5.11-2.66 10.03-3.61 15.14-.38 1.892-.19 4.163.19 6.055.76 3.217 4.56 5.3 7.41 3.785a41.914 41.914 0 0 0 8.55-5.677c6.46-5.678 12.73-11.734 18.81-17.79 2.09-2.27 4.18-5.11 6.65-7.948zM73.68 71.072c-2.28.19-4.18-.19-6.27.379-6.65 1.514-13.3 3.028-19.76 5.11-5.13 1.703-10.07 3.973-15.01 6.244-3.23 1.514-3.61 3.596-1.33 6.435.76.946 1.52 1.514 2.47 2.27 3.42 3.029 7.22 5.678 11.4 7.381 7.98 3.028 16.34 5.867 24.51 8.517 2.09.757 4.37 1.324 6.84.567 1.9-3.217 3.99-6.434 5.89-9.84 1.14-1.893 1.52-3.785.57-5.867-2.66-7.002-5.89-14.004-9.31-21.196zm49.97 45.798c6.08-5.677 10.07-12.869 15.01-19.303 1.14-1.514 1.33-3.407.38-5.11-2.66-5.488-5.13-10.976-7.79-16.464-.76-1.704-2.28-2.84-4.18-3.028l-17.67-1.704c-2.28-.189-3.99.568-5.13 2.46-3.99 6.624-7.98 13.059-11.97 19.682-1.14 1.893-1.14 3.785-.19 5.867 1.9 3.596 3.61 7.38 5.32 10.976 1.14 2.271 2.85 3.407 5.32 3.785 5.32.946 10.64 1.893 16.15 2.839h4.75zM88.12 88.105c3.61-6.434 8.17-10.597 10.26-16.843-5.89-1.324-11.4-.946-17.29.19 1.52 5.866 3.99 10.787 7.03 16.653zm44.84 28.387c5.32 1.325 9.88 1.893 15.01-.378-.95-3.596-1.52-6.813-2.85-9.84-.38-1.136-1.71-1.704-2.66-2.84-3.99 3.975-7.03 7.949-9.5 13.058zm11.21-28.576c3.99-2.839 5.32-6.624 6.46-10.976-1.52-.568-2.47-.946-3.42-1.325-1.9-.378-3.99-.946-6.08-.946-.95 0-1.9.378-3.61.757 2.66 4.352 3.61 8.894 6.65 12.49zm-33.63 43.716c3.8-1.892 5.89-4.92 7.6-8.705-4.56-.946-8.74-2.082-13.49-.568.95 3.974 3.42 6.435 5.89 9.273zm13.68-66.047c-.57-3.974-3.42-6.245-5.7-9.462-2.66 2.649-4.75 5.11-5.32 8.894 3.8 1.136 7.22 2.271 11.02.568zM82.99 109.68c2.85.757 4.75 2.081 7.41.757-.57-1.704-.76-3.218-1.33-4.542-.95-2.082-2.85-2.271-4.18-.379-.76.946-1.14 2.271-1.9 4.164z"/><path d="M125.93 88.484c3.8 7.948 1.14 13.626-5.89 15.518-5.32 1.325-9.88 0-13.87-3.406-2.28-1.893-3.04-4.353-2.47-7.38.95-5.11 4.37-8.517 8.36-10.977 2.28-1.514 5.32-.947 7.79.378 2.85 1.703 5.13 4.164 6.08 5.867zm14.036 1784.776c.673.096 1.249.191 1.825.286 5.664.952 10.56 3.902 15.361 6.852 1.825 1.142 3.553 2.474 5.281 3.807 1.92 1.427 2.592 3.52 2.496 5.71-.096 1.903-1.056 3.425-2.88 4.377-2.784 1.428-5.76 2.284-8.833 2.95-4.417.857-8.833 1.523-13.346 1.618-.48 0-.96 0-1.344.095-.192 0-.384.286-.768.476.192 1.047.384 2.094.576 3.236.192 1.141.48 2.188.576 3.33.48 5.33.864 10.659 1.249 15.988.192 3.14-1.44 5.71-4.225 6.661-2.208.762-4.32.19-6.24-1.046-2.881-1.999-5.09-4.568-7.201-7.328-1.729-2.094-3.36-4.378-4.993-6.566-.768-1.047-1.344-2.094-2.016-3.14-.384-.667-.96-1.238-1.536-2-.576.477-1.057.762-1.44 1.143-3.553 3.426-7.01 6.852-10.658 10.182-1.44 1.333-2.976 2.475-4.608 3.617-4.8 3.425-9.41-.857-9.505-4.664 0-2.093.288-4.282.864-6.376.864-3.425 1.92-6.851 2.976-10.182.576-1.713 1.44-3.33 2.208-5.044.384-.952.768-1.808 1.249-2.855-.769-.38-1.345-.761-2.017-.951-3.264-1.047-6.624-1.999-9.889-3.14a29.081 29.081 0 0 1-10.561-6.282 9.13 9.13 0 0 1-1.92-2.379c-1.152-2.284-.384-4.568 1.92-5.805.96-.57 2.112-1.047 3.168-1.427 2.017-.762 4.129-1.428 6.145-2.284 3.264-1.428 6.913-1.713 10.37-2.57.575-.19 1.055-.285 1.535-.476.768-.951.192-1.903.096-2.76-.48-2.378-1.056-4.662-1.44-7.041-.672-4.283-.768-8.66.864-12.752.672-1.809 1.632-3.522 3.553-4.378 2.208-1.047 4.128-.952 6.144.38 2.689 1.809 4.993 3.998 7.01 6.472 2.4 3.045 4.992 5.9 7.584 9.04.672-.285 1.44-.475 2.016-.951 1.728-1.333 3.36-2.76 4.993-4.187 2.304-1.904 4.608-3.807 7.297-5.044 2.304-1.047 4.608-2.094 7.008-2.76 2.977-.856 4.705 0 6.241 2.76 1.056 1.998 1.536 3.997 1.248 6.28-.288 2.38-.96 4.664-1.92 6.853-1.44 3.235-2.784 6.47-4.128 9.801 0 .476-.096 1.238-.385 2.475zm-1.728 2.76c-.384.381-.576.476-.672.667-1.44 2.379-2.784 4.663-4.224 7.042-.48.761-.384 1.522-.192 2.284.96 2.664 1.824 5.424 2.784 8.089.384 1.142 1.248 1.618 2.4 1.713 1.344.095 2.785.095 4.129.095 4.224-.095 8.353-1.142 12.577-1.999 1.536-.285 3.073-.951 4.609-1.522 2.496-1.047 3.072-3.046 1.536-5.234-.384-.571-.96-.952-1.44-1.428-3.265-2.57-6.817-4.663-10.465-6.566-3.457-1.713-7.01-3.045-11.042-3.14zm-21.89 29.501c.384 1.809 1.152 3.236 2.112 4.568a186.33 186.33 0 0 0 3.937 5.234c1.92 2.38 3.744 4.854 5.856 7.138 1.152 1.237 2.496 2.284 3.937 3.235 1.632 1.047 3.264.476 4.512-1.142.768-1.046.768-2.093.672-3.235-.384-4.378-.576-8.85-1.152-13.228-.384-3.14-.768-6.281-2.112-9.326-3.553-.095-6.913-.19-10.37-.286-.863 0-1.631.286-2.112.952-1.824 1.903-3.552 3.997-5.28 6.09zm20.066-33.497c.288-.381.576-.571.768-.857 1.824-4.282 3.649-8.565 5.377-12.942.576-1.333.864-2.855 1.152-4.283.288-1.808 0-3.616-1.056-5.234-.768-1.142-1.248-1.332-2.592-1.046-2.593.57-5.185 1.332-7.297 2.854-4.033 2.76-7.873 5.9-11.234 9.422-.48.57-.864 1.332-1.248 1.903 1.536 2.38 2.977 4.568 4.32 6.757.865 1.427 1.921 2.093 3.553 2.284 2.016.19 4.033.666 6.145.951.576.095 1.44.095 2.112.19zm-38.212-3.14c2.784.38 5.28.285 7.777.094 1.44-.095 2.976 0 4.416 0 .864-1.142 1.728-2.379 2.593-3.52 1.056-1.333 2.016-2.76 3.072-4.093-.384-.666-.576-1.332-.96-1.903-2.977-3.616-5.857-7.328-8.93-10.849-1.151-1.332-2.688-2.57-4.128-3.616-1.824-1.332-3.744-.952-5.088.952-.288.38-.576.76-.672 1.142-.576 1.712-1.152 3.425-1.248 5.329-.385 4.758.768 9.23 1.92 13.799.192.856.768 1.617 1.248 2.664zm13.825 36.828c-1.248-2.95-2.88-5.33-4.704-7.518-2.304-2.855-5.473-3.426-8.737-3.331-2.88 4.473-4.513 9.231-5.76 14.084-.673 2.57-1.345 5.044-1.825 7.614-.192.951-.096 2.093.096 3.045.384 1.618 2.304 2.664 3.744 1.903a21.189 21.189 0 0 0 4.321-2.855c3.264-2.855 6.433-5.9 9.505-8.945 1.056-1.142 2.112-2.57 3.36-3.997zm-16.417-33.498c-1.153.095-2.113-.095-3.169.19-3.36.762-6.72 1.523-9.985 2.57-2.592.856-5.088 1.998-7.585 3.14-1.632.761-1.824 1.808-.672 3.236.384.476.768.761 1.248 1.142 1.729 1.522 3.649 2.855 5.761 3.711 4.032 1.523 8.257 2.95 12.385 4.282 1.056.381 2.209.667 3.457.286.96-1.618 2.016-3.236 2.976-4.949.576-.951.768-1.903.288-2.95-1.344-3.52-2.976-7.042-4.704-10.658zm25.25 23.03c3.073-2.855 5.089-6.471 7.585-9.707.576-.761.672-1.713.192-2.57-1.344-2.76-2.592-5.519-3.936-8.279a2.547 2.547 0 0 0-2.112-1.522l-8.93-.857c-1.152-.095-2.016.286-2.592 1.237-2.016 3.331-4.032 6.567-6.048 9.897-.576.952-.576 1.904-.096 2.95.96 1.809 1.824 3.712 2.688 5.52.576 1.142 1.44 1.713 2.688 1.903 2.688.476 5.377.952 8.161 1.428h2.4zm-17.954-14.465c1.825-3.236 4.129-5.33 5.185-8.47-2.976-.666-5.76-.476-8.737.095.768 2.95 2.016 5.425 3.552 8.375zm22.659 14.274c2.688.667 4.992.952 7.585-.19-.48-1.808-.768-3.426-1.44-4.949-.192-.57-.865-.856-1.345-1.427-2.016 1.998-3.552 3.997-4.8 6.566zm5.665-14.37c2.016-1.427 2.688-3.33 3.264-5.519-.768-.285-1.248-.476-1.728-.666-.96-.19-2.017-.476-3.073-.476-.48 0-.96.19-1.824.38 1.344 2.19 1.824 4.473 3.36 6.282zm-16.994 21.984c1.92-.952 2.976-2.475 3.84-4.378-2.304-.476-4.416-1.047-6.817-.286.48 1.999 1.729 3.236 2.977 4.664zm6.912-33.213c-.288-1.998-1.728-3.14-2.88-4.758-1.344 1.332-2.4 2.57-2.688 4.473 1.92.57 3.648 1.142 5.568.285zm-20.834 22.173c1.44.381 2.4 1.047 3.745.381-.289-.856-.385-1.618-.673-2.284-.48-1.047-1.44-1.142-2.112-.19-.384.476-.576 1.142-.96 2.093z"/><path d="M122.013 1880.969c1.92 3.997.576 6.852-2.977 7.804-2.688.666-4.992 0-7.009-1.713-1.152-.952-1.536-2.19-1.248-3.712.48-2.57 2.209-4.282 4.225-5.52 1.152-.76 2.688-.475 3.936.19 1.44.857 2.592 2.095 3.073 2.951zM1488.966 674.26c.673.096 1.249.191 1.825.286 5.664.952 10.56 3.902 15.361 6.852 1.825 1.142 3.553 2.474 5.281 3.807 1.92 1.427 2.592 3.52 2.496 5.71-.096 1.903-1.056 3.425-2.88 4.377-2.784 1.428-5.76 2.284-8.833 2.95-4.417.857-8.833 1.523-13.346 1.618-.48 0-.96 0-1.344.095-.192 0-.384.286-.768.476.192 1.047.384 2.094.576 3.236.192 1.141.48 2.188.576 3.33.48 5.33.864 10.659 1.249 15.988.192 3.14-1.44 5.71-4.225 6.661-2.208.762-4.32.19-6.24-1.046-2.881-1.999-5.09-4.568-7.201-7.328-1.729-2.094-3.36-4.378-4.993-6.566-.768-1.047-1.344-2.094-2.016-3.14-.384-.667-.96-1.238-1.536-2-.576.477-1.057.762-1.44 1.143-3.553 3.426-7.01 6.852-10.658 10.182-1.44 1.333-2.976 2.475-4.608 3.617-4.8 3.425-9.41-.857-9.505-4.664 0-2.093.288-4.282.864-6.376.864-3.425 1.92-6.851 2.976-10.182.576-1.713 1.44-3.33 2.208-5.044.384-.952.768-1.808 1.249-2.855-.769-.38-1.345-.761-2.017-.951-3.264-1.047-6.624-1.999-9.889-3.14a29.081 29.081 0 0 1-10.561-6.282 9.13 9.13 0 0 1-1.92-2.379c-1.152-2.284-.384-4.568 1.92-5.805.96-.57 2.112-1.047 3.168-1.427 2.017-.762 4.129-1.428 6.145-2.284 3.264-1.428 6.913-1.713 10.37-2.57.575-.19 1.055-.285 1.535-.476.768-.951.192-1.903.096-2.76-.48-2.378-1.056-4.662-1.44-7.041-.672-4.283-.768-8.66.864-12.752.672-1.809 1.633-3.522 3.553-4.378 2.208-1.047 4.128-.952 6.144.38 2.689 1.809 4.993 3.998 7.01 6.472 2.4 3.045 4.992 5.9 7.584 9.04.672-.285 1.44-.475 2.016-.951 1.728-1.333 3.36-2.76 4.993-4.187 2.304-1.904 4.608-3.807 7.297-5.044 2.304-1.047 4.608-2.094 7.008-2.76 2.977-.856 4.705 0 6.241 2.76 1.056 1.998 1.536 3.997 1.248 6.28-.288 2.38-.96 4.664-1.92 6.853-1.44 3.235-2.784 6.47-4.128 9.801 0 .476-.096 1.238-.385 2.475zm-1.728 2.76c-.384.381-.576.476-.672.667-1.44 2.379-2.784 4.663-4.224 7.042-.48.761-.384 1.522-.192 2.284.96 2.664 1.824 5.424 2.784 8.089.384 1.142 1.248 1.618 2.4 1.713 1.344.095 2.785.095 4.129.095 4.224-.095 8.353-1.142 12.577-1.999 1.536-.285 3.072-.951 4.609-1.522 2.496-1.047 3.072-3.046 1.536-5.234-.384-.571-.96-.952-1.44-1.428-3.265-2.57-6.817-4.663-10.465-6.566-3.457-1.713-7.01-3.045-11.042-3.14zm-21.89 29.501c.384 1.809 1.152 3.236 2.112 4.568a186.33 186.33 0 0 0 3.937 5.234c1.92 2.38 3.744 4.854 5.856 7.138 1.152 1.237 2.496 2.284 3.937 3.235 1.632 1.047 3.264.476 4.512-1.142.768-1.046.768-2.093.672-3.235-.384-4.378-.576-8.85-1.152-13.228-.384-3.14-.768-6.281-2.112-9.326-3.553-.095-6.913-.19-10.37-.286-.863 0-1.631.286-2.112.952-1.824 1.903-3.552 3.997-5.28 6.09zm20.066-33.497c.288-.381.576-.571.768-.857 1.824-4.282 3.649-8.565 5.377-12.942.576-1.333.864-2.855 1.152-4.283.288-1.808 0-3.616-1.056-5.234-.768-1.142-1.248-1.332-2.593-1.046-2.592.57-5.184 1.332-7.296 2.854-4.033 2.76-7.873 5.9-11.234 9.422-.48.57-.864 1.332-1.248 1.903 1.536 2.38 2.977 4.568 4.32 6.757.865 1.427 1.921 2.093 3.553 2.284 2.016.19 4.033.666 6.145.951.576.095 1.44.095 2.112.19zm-38.212-3.14c2.784.38 5.28.285 7.777.094 1.44-.095 2.976 0 4.416 0 .864-1.142 1.728-2.379 2.592-3.52 1.057-1.333 2.017-2.76 3.073-4.093-.384-.666-.576-1.332-.96-1.903-2.977-3.616-5.857-7.328-8.93-10.849-1.151-1.332-2.688-2.57-4.128-3.616-1.824-1.332-3.744-.952-5.088.952-.288.38-.576.76-.672 1.142-.576 1.712-1.152 3.425-1.248 5.329-.385 4.758.768 9.23 1.92 13.799.192.856.768 1.617 1.248 2.664zm13.825 36.828c-1.248-2.95-2.88-5.33-4.704-7.518-2.304-2.855-5.473-3.426-8.737-3.331-2.88 4.473-4.513 9.231-5.76 14.084-.673 2.57-1.345 5.044-1.825 7.614-.192.951-.096 2.093.096 3.045.384 1.618 2.304 2.664 3.744 1.903a21.189 21.189 0 0 0 4.321-2.855c3.264-2.855 6.433-5.9 9.505-8.945 1.056-1.142 2.112-2.57 3.36-3.997zm-16.417-33.498c-1.153.095-2.113-.095-3.169.19-3.36.762-6.72 1.523-9.985 2.57-2.592.856-5.088 1.998-7.585 3.14-1.632.761-1.824 1.808-.672 3.236.384.476.768.761 1.248 1.142 1.729 1.522 3.649 2.855 5.761 3.711 4.032 1.523 8.257 2.95 12.385 4.282 1.056.381 2.209.667 3.457.286.96-1.618 2.016-3.236 2.976-4.949.576-.951.768-1.903.288-2.95-1.344-3.52-2.976-7.042-4.704-10.658zm25.25 23.03c3.073-2.855 5.089-6.471 7.585-9.707.576-.761.672-1.713.192-2.57-1.344-2.76-2.592-5.519-3.936-8.279a2.547 2.547 0 0 0-2.112-1.522l-8.93-.857c-1.152-.095-2.016.286-2.592 1.237-2.016 3.331-4.032 6.567-6.048 9.897-.576.952-.576 1.904-.096 2.95.96 1.809 1.824 3.712 2.688 5.52.576 1.142 1.44 1.713 2.688 1.903 2.688.476 5.377.952 8.161 1.428h2.4zm-17.954-14.465c1.825-3.236 4.129-5.33 5.185-8.47-2.976-.666-5.76-.476-8.737.095.768 2.95 2.016 5.425 3.552 8.375zm22.659 14.274c2.688.667 4.992.952 7.585-.19-.48-1.808-.768-3.426-1.44-4.949-.192-.57-.865-.856-1.345-1.427-2.016 1.998-3.552 3.997-4.8 6.566zm5.665-14.37c2.016-1.427 2.688-3.33 3.264-5.519-.768-.285-1.248-.476-1.728-.666-.96-.19-2.017-.476-3.073-.476-.48 0-.96.19-1.824.38 1.344 2.19 1.824 4.473 3.36 6.282zm-16.994 21.984c1.92-.952 2.976-2.475 3.84-4.378-2.304-.476-4.416-1.047-6.817-.286.48 1.999 1.728 3.236 2.977 4.664zm6.912-33.213c-.288-1.998-1.728-3.14-2.88-4.758-1.344 1.332-2.4 2.57-2.688 4.473 1.92.57 3.648 1.142 5.568.285zm-20.834 22.173c1.44.381 2.4 1.047 3.745.381-.289-.856-.385-1.618-.673-2.284-.48-1.047-1.44-1.142-2.112-.19-.384.476-.576 1.142-.96 2.093z"/><path d="M1471.013 681.969c1.92 3.997.576 6.852-2.977 7.804-2.688.666-4.992 0-7.009-1.713-1.152-.952-1.536-2.19-1.248-3.712.48-2.57 2.209-4.282 4.225-5.52 1.152-.76 2.688-.475 3.936.19 1.44.857 2.592 2.095 3.073 2.951zm-123.794 472.714c.577 3.067-1.154 4.409-2.309 6.134a309.113 309.113 0 0 1-10.003 12.266c-3.078 3.834-5.772 8.242-9.62 11.692-1.346 1.15-1.923 2.875-3.077 4.6 2.5 2.875 6.156 3.833 9.041 5.367 2.694 1.533 5.964 2.3 7.503 5.175 0 2.683-1.731 4.025-3.078 5.558-11.735 14.375-23.663 28.75-35.59 43.125-1.732 2.108-3.463 4.408-5.195 6.517-1.539 1.916-3.462 2.3-5.386.766a84.61 84.61 0 0 1-6.156-5.558c-1.732-1.725-3.463-3.642-5.58-5.558-1.154.766-2.116 1.341-2.885 2.108-2.694 3.45-5.387 6.9-7.888 10.35-.577.767-.962 1.533-1.539 2.3-4.617 5.367-9.234 10.733-14.044 16.1a9.103 9.103 0 0 1-1.923 1.917c-1.732 1.341-3.463 1.533-5.002.191-4.425-4.025-9.042-8.05-11.736-13.416-4.81-9.2-9.619-18.4-13.466-27.792-3.848-9.392-6.926-18.975-6.926-29.325 0-.767-.192-1.342 0-2.108 1.539-5.175-.77-9.2-3.27-13.417a1057.71 1057.71 0 0 1-19.623-35.65c-4.233-7.858-7.31-16.292-10.004-24.917-1.732-5.941-2.116-12.266-2.693-18.4-.193-2.3.769-3.641 3.27-4.6 4.232-1.341 8.657-1.533 12.89-1.341 8.849.575 17.314 2.683 25.586 5.366 17.314 5.367 34.244 12.075 50.212 20.892 2.116 1.15 4.04 1.533 6.54 1.533 6.926 0 13.852.384 20.585.959 9.042.766 17.507 4.216 25.78 7.666 6.925 2.875 13.85 5.942 20.777 9.009 2.116.958 3.462 1.916 4.809 2.491zm-164.293-34.883c0 2.492-.193 3.642.192 4.6 3.655 10.925 7.695 21.658 12.89 31.817 10.58 20.316 22.123 40.25 35.205 59.033 7.503 10.733 15.39 21.275 24.24 30.858 1.924 2.109 3.848 4.6 6.926 5.75.77-.766 1.731-1.533 2.501-2.3 3.27-4.025 6.733-8.241 10.004-12.266 5.002-6.325 10.196-12.459 15.198-18.784 2.308-2.875 2.308-4.216-.192-6.516-5.002-4.792-10.004-9.392-15.199-14.184-1.923-1.916-4.232-3.45-6.348-5.175-1.347.575-2.501 1.15-3.463 1.534-2.693 1.533-5.194 3.066-7.695 4.408-4.81 2.683-9.812 3.642-15.39 2.3-2.886-.767-5.772-1.533-8.658-2.108-3.655-.575-6.156-2.684-8.657-5.367-4.04-4.408-5.771-9.775-7.695-15.142-2.694-7.858-2.886-15.141.962-22.616.77-1.342.962-3.067 1.346-4.6-6.156-5.175-12.12-10.35-17.891-15.334-5.772-4.6-10.581-10.733-18.276-15.908zm139.668 58.842c-1.924-1.917-3.078-3.259-4.617-4.409-10.196-7.666-20.007-15.333-30.396-22.616-7.503-5.175-15.39-10.159-23.47-14.567-16.545-9.008-34.244-15.717-52.52-20.892-7.119-1.916-14.237-3.641-21.74-3.45-.961 0-1.731.959-3.27 1.725 4.425 4.217 8.465 8.05 12.505 11.692 4.04 3.642 8.08 7.475 12.312 11.117 4.04 3.641 7.695 7.858 13.274 10.158 2.117-1.533 4.04-2.875 6.157-4.408 2.693-1.917 5.579-3.259 8.85-3.45 15.197-.575 26.74 6.133 35.397 17.825 1.924 2.683 3.463 6.325 3.655 9.583.193 6.325.193 12.842-3.847 18.592-1.924 2.683-1.54 3.833.77 5.941 4.616 4.217 9.041 8.434 13.658 12.65 2.117 1.917 4.233 4.217 7.31 5.559 1.732-1.534 3.464-3.067 4.81-4.792 6.926-8.433 14.044-16.867 21.162-26.258zm-102.154-13.225c0 2.108-.192 4.216.385 6.133.962 4.025 1.924 8.05 3.655 11.883 1.154 2.684 3.078 4.984 4.81 7.475 1.539 2.109 3.847 3.259 6.348 3.642 13.274 2.3 10.966 4.025 24.24-3.45.77-.383 1.54-.958 2.309-1.342 6.156-3.641 9.619-9.2 10.58-16.1.578-4.791.578-9.775-2.885-13.8-5.194-5.941-10.773-11.116-18.853-13.416-6.349-1.917-11.736-1.15-17.122 2.3-4.233 2.683-7.503 5.941-10.389 9.966-1.539 2.109-2.5 4.217-3.078 6.709zm70.604 83.758c4.617-3.833 25.202-27.983 37.706-44.467.578-.958.962-1.916 1.54-3.066-4.04-3.259-8.273-5.367-13.275-6.134-4.617 4.217-8.08 9.392-12.12 13.992-4.04 4.983-8.272 9.775-12.12 14.95-3.655 4.983-8.465 9.008-11.158 14.758 2.693 4.025 5.58 7.092 9.427 9.967zm-72.143-40.25c-.192 2.3-.577 3.642-.192 4.792 1.923 7.283 3.27 14.758 6.54 21.658 2.886 6.133 5.964 12.458 8.85 18.592 2.501 5.366 5.58 10.541 9.811 14.758.962.958 2.117 1.342 3.463 2.108 3.27-4.983 8.273-7.858 10.197-13.8-3.271-3.641-6.734-7.283-10.004-11.116-3.27-3.834-6.541-7.667-9.62-11.692-3.27-4.217-6.156-8.625-9.426-12.65-2.886-3.833-5.194-8.433-9.619-12.65zm64.64-68.425c1.539 2.108 1.924 2.875 2.5 3.258 2.117 1.534 4.233 2.684 6.35 4.217 9.81 7.283 19.43 14.567 29.241 21.85 1.54 1.15 2.886 2.875 5.195 2.875 6.733-6.517 10.003-10.733 11.35-15.525-2.693-1.15-5.194-2.492-7.887-3.642-7.503-3.258-15.199-6.708-22.894-9.583-6.926-2.683-14.62-3.067-23.855-3.45zm40.785 145.858c-1.155.767-1.924 1.725-2.886 1.725-.962 0-2.309-.383-3.078-.958-1.154-.767-2.116-1.725-3.078-2.683-4.425-4.984-8.85-9.967-13.082-14.95-.77-.767-1.54-1.725-1.924-2.684-.192-.766 0-1.725.385-2.491.577-.959 1.924-1.342 3.078-.767.77.383 1.539.958 2.116 1.725l10.389 10.925c2.116 2.3 4.232 4.792 6.348 7.092.577.766.962 1.725 1.732 3.066zm24.047-30.283c0 1.533-1.923 2.875-3.078 2.3-.77-.383-1.731-.767-2.308-1.342-6.349-4.6-12.697-9.008-19.046-13.8-1.347-.958-2.309-2.108-3.27-3.45-.385-.575 0-1.916.384-2.491.385-.575 1.54-.767 2.309-.767.577 0 1.346.575 1.731.958 6.734 4.792 13.467 9.392 20.2 14.184.962.575 1.732 1.533 2.309 2.491.577.959.577 1.725.77 1.917zm-2.308-46c1.154.192 1.539.192 2.116.383 6.926 2.684 14.044 5.559 20.97 8.242.192 0 .384.192.577.192 1.346.766 2.5 2.875 2.116 4.025-.385 1.341-2.501 2.108-4.81 1.15-6.733-2.684-13.659-5.367-20.392-8.05-.577-.192-1.154-.575-1.732-.959-1.923-1.15-2.885-2.875-1.923-3.833 1.154-.575 2.5-.958 3.078-1.15zm-12.697 60.758c1.154.575 1.923.767 2.693 1.342 4.232 3.642 8.465 7.092 12.505 10.733.77.767 1.539 1.725 2.116 2.684.385.575.385 1.533.192 1.916-.577.575-1.346 1.342-2.116 1.342-.77.192-1.924-.192-2.5-.767-5.003-4.025-9.812-8.241-14.622-12.458-.577-.575-.962-2.3-.77-3.067.193-.575 1.54-.958 2.502-1.725zm23.855-34.5c.962.192 1.731.192 2.308.575a663.745 663.745 0 0 1 15.199 9.584c.577.383 1.154.766 1.539 1.341.77.959 1.346 2.109.384 3.067-.77.575-1.923.767-3.078.958-.577 0-1.346-.383-1.924-.766-4.617-2.875-9.426-5.75-14.043-8.625-.962-.575-1.54-1.534-2.117-2.492-.192-.383-.192-1.342 0-1.917.385-.958 1.155-1.341 1.732-1.725zm-42.901 15.909c1.347.766 2.693 1.15 3.848 1.916 3.462 2.3 5.963 5.75 8.272 9.009.77.958.77 2.3-.385 3.066-.77.575-2.116.575-3.078.384-.77-.192-1.539-.959-2.116-1.534-2.309-2.875-4.81-5.558-7.888-7.666-.385-.192-.77-.767-.77-1.15-.192-.767-.384-1.917 0-2.492.385-.575 1.347-.958 2.117-1.533zm31.55-21.275c-.384.383-.77 1.15-1.154 1.341-.77.384-1.924.575-2.693.192-4.04-1.533-7.888-3.642-10.774-6.9-.577-.575-.77-1.917-.384-2.492.577-.766 2.116-1.725 2.693-1.533 4.232 1.917 8.465 4.217 11.928 7.667.192.383.192.958.384 1.725z"/><path d="M1256.415 1182.858c-.192.384-.192.959-.385 1.342-.577 1.15-1.154 2.108-2.5 1.725-.77-.192-1.732-.767-2.117-1.533-.577-1.534-.77-3.067-.962-4.6-.77-4.792-1.346-9.584-2.308-14.184-.385-2.683-1.154-5.366-1.54-8.05a14.107 14.107 0 0 1 0-4.025c.193-.575 1.347-1.341 2.117-1.533.577-.192 1.347.383 1.731.767.578.766.962 1.533 1.347 2.3 2.886 8.433 3.655 17.441 4.81 26.258 0 .575-.193 1.15-.193 1.533zm-17.891-1.916c-.385 1.725-.385 2.491-.77 3.066-.577.575-1.346 1.534-1.924 1.534-.769 0-1.731-.575-2.308-1.15-.385-.384-.577-1.15-.577-1.917-.77-5.75-1.347-11.308-2.116-17.058-.193-1.917.577-3.067 1.923-3.067 1.54 0 2.694.575 3.27 2.108.193.384.386.959.386 1.342.77 5.175 1.539 10.542 2.116 15.142zm-492.305 329.741c.577 3.067-1.154 4.409-2.309 6.134a309.113 309.113 0 0 1-10.003 12.266c-3.078 3.834-5.772 8.242-9.62 11.692-1.346 1.15-1.923 2.875-3.077 4.6 2.5 2.875 6.156 3.833 9.041 5.367 2.694 1.533 5.964 2.3 7.503 5.175 0 2.683-1.731 4.025-3.078 5.558-11.735 14.375-23.663 28.75-35.59 43.125-1.732 2.108-3.463 4.408-5.195 6.517-1.539 1.916-3.462 2.3-5.386.766a84.61 84.61 0 0 1-6.156-5.558c-1.732-1.725-3.463-3.642-5.58-5.558-1.154.766-2.116 1.341-2.885 2.108-2.694 3.45-5.387 6.9-7.888 10.35-.577.767-.962 1.533-1.539 2.3-4.617 5.367-9.234 10.733-14.044 16.1a9.103 9.103 0 0 1-1.923 1.917c-1.732 1.341-3.463 1.533-5.002.191-4.425-4.025-9.042-8.05-11.736-13.416-4.81-9.2-9.619-18.4-13.466-27.792-3.848-9.392-6.926-18.975-6.926-29.325 0-.767-.192-1.342 0-2.108 1.539-5.175-.77-9.2-3.27-13.417a1057.71 1057.71 0 0 1-19.623-35.65c-4.233-7.858-7.31-16.292-10.004-24.917-1.732-5.941-2.116-12.266-2.693-18.4-.193-2.3.769-3.641 3.27-4.6 4.232-1.341 8.657-1.533 12.89-1.341 8.849.575 17.314 2.683 25.586 5.366 17.314 5.367 34.244 12.075 50.212 20.892 2.116 1.15 4.04 1.533 6.54 1.533 6.926 0 13.852.384 20.585.959 9.042.766 17.507 4.216 25.78 7.666 6.925 2.875 13.85 5.942 20.777 9.009 2.116.958 3.462 1.916 4.809 2.491zM581.926 1475.8c0 2.492-.193 3.642.192 4.6 3.655 10.925 7.695 21.658 12.89 31.817 10.58 20.316 22.123 40.25 35.205 59.033 7.503 10.733 15.39 21.275 24.24 30.858 1.924 2.109 3.848 4.6 6.926 5.75.77-.766 1.731-1.533 2.501-2.3 3.27-4.025 6.733-8.241 10.004-12.266 5.002-6.325 10.196-12.459 15.198-18.784 2.308-2.875 2.308-4.216-.192-6.516-5.002-4.792-10.004-9.392-15.199-14.184-1.923-1.916-4.232-3.45-6.348-5.175-1.347.575-2.501 1.15-3.463 1.534-2.693 1.533-5.194 3.066-7.695 4.408-4.81 2.683-9.812 3.642-15.39 2.3-2.886-.767-5.772-1.533-8.658-2.108-3.655-.575-6.156-2.684-8.657-5.367-4.04-4.408-5.771-9.775-7.695-15.142-2.694-7.858-2.886-15.141.962-22.616.77-1.342.962-3.067 1.346-4.6-6.156-5.175-12.12-10.35-17.891-15.334-5.772-4.6-10.581-10.733-18.276-15.908zm139.668 58.842c-1.924-1.917-3.078-3.259-4.617-4.409-10.196-7.666-20.007-15.333-30.396-22.616-7.503-5.175-15.39-10.159-23.47-14.567-16.545-9.008-34.244-15.717-52.52-20.892-7.119-1.916-14.237-3.641-21.74-3.45-.961 0-1.731.959-3.27 1.725 4.425 4.217 8.465 8.05 12.505 11.692 4.04 3.642 8.08 7.475 12.312 11.117 4.04 3.641 7.695 7.858 13.274 10.158 2.117-1.533 4.04-2.875 6.157-4.408 2.693-1.917 5.579-3.259 8.85-3.45 15.197-.575 26.74 6.133 35.397 17.825 1.924 2.683 3.463 6.325 3.655 9.583.193 6.325.193 12.842-3.847 18.592-1.924 2.683-1.54 3.833.77 5.941 4.616 4.217 9.041 8.434 13.658 12.65 2.117 1.917 4.233 4.217 7.31 5.559 1.732-1.534 3.464-3.067 4.81-4.792 6.926-8.433 14.044-16.867 21.162-26.258zm-102.154-13.225c0 2.108-.192 4.216.385 6.133.962 4.025 1.924 8.05 3.655 11.883 1.154 2.684 3.078 4.984 4.81 7.475 1.539 2.109 3.847 3.259 6.348 3.642 13.274 2.3 10.966 4.025 24.24-3.45.77-.383 1.54-.958 2.309-1.342 6.156-3.641 9.619-9.2 10.58-16.1.578-4.791.578-9.775-2.885-13.8-5.194-5.941-10.773-11.116-18.853-13.416-6.349-1.917-11.736-1.15-17.122 2.3-4.233 2.683-7.503 5.941-10.389 9.966-1.539 2.109-2.5 4.217-3.078 6.709zm70.604 83.758c4.617-3.833 25.202-27.983 37.706-44.467.578-.958.962-1.916 1.54-3.066-4.04-3.259-8.273-5.367-13.275-6.134-4.617 4.217-8.08 9.392-12.12 13.992-4.04 4.983-8.272 9.775-12.12 14.95-3.655 4.983-8.465 9.008-11.158 14.758 2.693 4.025 5.58 7.092 9.427 9.967zm-72.143-40.25c-.192 2.3-.577 3.642-.192 4.792 1.923 7.283 3.27 14.758 6.54 21.658 2.886 6.133 5.964 12.458 8.85 18.592 2.501 5.366 5.58 10.541 9.811 14.758.962.958 2.117 1.342 3.463 2.108 3.27-4.983 8.273-7.858 10.197-13.8-3.271-3.641-6.734-7.283-10.004-11.116-3.27-3.834-6.541-7.667-9.62-11.692-3.27-4.217-6.156-8.625-9.426-12.65-2.886-3.833-5.194-8.433-9.619-12.65zm64.64-68.425c1.539 2.108 1.924 2.875 2.5 3.258 2.117 1.534 4.233 2.684 6.35 4.217 9.81 7.283 19.43 14.567 29.241 21.85 1.54 1.15 2.886 2.875 5.195 2.875 6.733-6.517 10.003-10.733 11.35-15.525-2.693-1.15-5.194-2.492-7.887-3.642-7.503-3.258-15.199-6.708-22.894-9.583-6.926-2.683-14.62-3.067-23.855-3.45zm40.785 145.858c-1.155.767-1.924 1.725-2.886 1.725-.962 0-2.309-.383-3.078-.958-1.154-.767-2.116-1.725-3.078-2.683-4.425-4.984-8.85-9.967-13.082-14.95-.77-.767-1.54-1.725-1.924-2.684-.192-.766 0-1.725.385-2.491.577-.959 1.924-1.342 3.078-.767.77.383 1.539.958 2.116 1.725l10.389 10.925c2.116 2.3 4.232 4.792 6.348 7.092.577.766.962 1.725 1.732 3.066zm24.047-30.283c0 1.533-1.923 2.875-3.078 2.3-.77-.383-1.731-.767-2.308-1.342-6.349-4.6-12.697-9.008-19.046-13.8-1.347-.958-2.309-2.108-3.27-3.45-.385-.575 0-1.916.384-2.491.385-.575 1.54-.767 2.309-.767.577 0 1.346.575 1.731.958 6.734 4.792 13.467 9.392 20.2 14.184.962.575 1.732 1.533 2.309 2.491.577.959.577 1.725.77 1.917zm-2.308-46c1.154.192 1.539.192 2.116.383 6.926 2.684 14.044 5.559 20.97 8.242.192 0 .384.192.577.192 1.346.766 2.5 2.875 2.116 4.025-.385 1.341-2.501 2.108-4.81 1.15-6.733-2.684-13.659-5.367-20.392-8.05-.577-.192-1.154-.575-1.732-.959-1.923-1.15-2.885-2.875-1.923-3.833 1.154-.575 2.5-.958 3.078-1.15zm-12.697 60.758c1.154.575 1.923.767 2.693 1.342 4.232 3.642 8.465 7.092 12.505 10.733.77.767 1.539 1.725 2.116 2.684.385.575.385 1.533.192 1.916-.577.575-1.346 1.342-2.116 1.342-.77.192-1.924-.192-2.5-.767-5.003-4.025-9.812-8.241-14.622-12.458-.577-.575-.962-2.3-.77-3.067.193-.575 1.54-.958 2.502-1.725zm23.855-34.5c.962.192 1.731.192 2.308.575a663.745 663.745 0 0 1 15.199 9.584c.577.383 1.154.766 1.539 1.341.77.959 1.346 2.109.384 3.067-.77.575-1.923.767-3.078.958-.577 0-1.346-.383-1.924-.766-4.617-2.875-9.426-5.75-14.043-8.625-.962-.575-1.54-1.534-2.117-2.492-.192-.383-.192-1.342 0-1.917.385-.958 1.155-1.341 1.732-1.725zm-42.901 15.909c1.347.766 2.693 1.15 3.848 1.916 3.462 2.3 5.963 5.75 8.272 9.009.77.958.77 2.3-.385 3.066-.77.575-2.116.575-3.078.384-.77-.192-1.539-.959-2.116-1.534-2.309-2.875-4.81-5.558-7.888-7.666-.385-.192-.77-.767-.77-1.15-.192-.767-.384-1.917 0-2.492.385-.575 1.347-.958 2.117-1.533zm31.55-21.275c-.384.383-.77 1.15-1.154 1.341-.77.384-1.924.575-2.693.192-4.04-1.533-7.888-3.642-10.774-6.9-.577-.575-.77-1.917-.384-2.492.577-.766 2.116-1.725 2.693-1.533 4.232 1.917 8.465 4.217 11.928 7.667.192.383.192.958.384 1.725z"/><path d="M655.415 1538.858c-.192.384-.192.959-.385 1.342-.577 1.15-1.154 2.108-2.5 1.725-.77-.192-1.732-.767-2.117-1.533-.577-1.534-.77-3.067-.962-4.6-.77-4.792-1.346-9.584-2.308-14.184-.385-2.683-1.154-5.366-1.54-8.05a14.107 14.107 0 0 1 0-4.025c.193-.575 1.347-1.341 2.117-1.533.577-.192 1.347.383 1.731.767.578.766.962 1.533 1.347 2.3 2.886 8.433 3.655 17.441 4.81 26.258 0 .575-.193 1.15-.193 1.533zm-17.891-1.916c-.385 1.725-.385 2.491-.77 3.066-.577.575-1.346 1.534-1.924 1.534-.769 0-1.731-.575-2.308-1.15-.385-.384-.577-1.15-.577-1.917-.77-5.75-1.347-11.308-2.116-17.058-.193-1.917.577-3.067 1.923-3.067 1.54 0 2.694.575 3.27 2.108.193.384.386.959.386 1.342.77 5.175 1.539 10.542 2.116 15.142zM750.652 150.806c-.605.888-1.356.79-2.059.927-1.828.225-3.609.403-5.437.535-1.688.179-3.42.592-5.203.489-.61-.05-1.172.228-1.874.365-.087 1.313.575 2.442.909 3.522.286 1.034.901 2.022.579 3.099-.654.653-1.405.555-2.108.598-6.375.624-12.797 1.2-19.219 1.777-.937.09-1.921.225-2.859.314-.844.09-1.408-.289-1.506-1.133a29.254 29.254 0 0 1-.156-2.862c-.004-.844.038-1.735-.014-2.72-.47-.096-.845-.192-1.22-.194-1.5.18-3 .36-4.452.587-.329.045-.61.137-.937.183-2.438.175-4.876.35-7.361.478-.328.045-.61.043-.938-.005-.75-.098-1.222-.476-1.272-1.18-.105-2.063-.256-4.174.39-6.14 1.061-3.419 2.122-6.837 3.466-10.066 1.343-3.23 2.922-6.316 5.441-8.836.187-.186.28-.373.513-.513 1.637-.883 2.051-2.428 2.465-4.067a363.415 363.415 0 0 1 3.87-13.487c.876-2.95 2.175-5.757 3.614-8.517 1.022-1.87 2.468-3.504 3.82-5.139.512-.607 1.074-.698 1.92-.318 1.364.71 2.495 1.748 3.486 2.832 2.028 2.308 3.589 4.895 4.963 7.576 2.936 5.549 5.451 11.33 7.218 17.389.238.799.617 1.363 1.23 1.976 1.696 1.697 3.3 3.487 4.81 5.277 2.03 2.403 3.263 5.317 4.45 8.184.998 2.396 1.948 4.84 2.899 7.284.285.751.382 1.315.572 1.785zm-31.766-48.75c-.607.607-.934.84-1.073 1.167-1.764 3.555-3.387 7.158-4.587 10.903-2.353 7.539-4.377 15.22-5.744 22.998-.774 4.451-1.407 8.95-1.572 13.451-.042.985-.177 2.063.298 3.097.375.002.797.051 1.172.053 1.781-.178 3.656-.356 5.438-.535 2.765-.314 5.53-.534 8.296-.848 1.266-.134 1.592-.46 1.54-1.634-.06-2.392-.166-4.737-.272-7.176-.005-.938-.197-1.877-.296-2.816-.47-.19-.893-.333-1.222-.475-1.033-.287-2.019-.526-2.958-.813-1.832-.525-3.291-1.517-4.332-3.21-.52-.895-1.04-1.788-1.608-2.635-.755-1.036-.855-2.162-.815-3.428.084-2.063.966-3.794 1.8-5.572 1.254-2.573 2.98-4.393 5.742-5.27.515-.138.982-.51 1.45-.79-.249-2.768-.45-5.489-.652-8.116-.294-2.534.02-5.206-.605-8.351zm19.9 48.548c-.005-.938.039-1.548-.059-2.205-.632-4.364-1.17-8.635-1.942-12.953-.579-3.099-1.299-6.245-2.205-9.298-1.862-6.247-4.565-12.216-7.784-17.955-1.278-2.21-2.602-4.374-4.487-6.166-.236-.236-.658-.191-1.221-.382.057 2.111.114 4.034.218 5.91.103 1.877.16 3.8.31 5.724.104 1.876-.027 3.798.78 5.725.892.145 1.69.29 2.582.436 1.127.193 2.16.573 3.008 1.328 3.864 3.584 5.06 8.046 4.335 13.013-.182 1.125-.691 2.388-1.437 3.229-1.493 1.587-3.08 3.173-5.469 3.583-1.124.181-1.31.556-1.258 1.635.105 2.157.163 4.268.268 6.426.052.985.01 2.064.438 3.144.798.051 1.595.102 2.345.012 3.75-.355 7.547-.664 11.578-1.206zm-21.813-28.251c-.513.513-1.073.98-1.398 1.587-.744 1.216-1.488 2.431-1.997 3.789-.37.936-.46 1.967-.642 2.998-.136.89.15 1.736.67 2.442 2.692 3.813 1.707 3.667 6.78 5.1.281.095.61.144.891.239 2.395.622 4.597.117 6.512-1.327 1.308-1.025 2.521-2.238 2.653-4.066.173-2.72.066-5.346-1.354-7.886-1.09-2.022-2.596-3.155-4.755-3.635-1.69-.384-3.285-.393-4.972-.12a6.1 6.1 0 0 0-2.388.879zm-3.088 37.69c2.064.198 12.987-.637 20.064-1.585.374-.092.702-.231 1.123-.37-.196-1.783-.72-3.333-1.76-4.745-2.157-.105-4.265.306-6.375.436-2.203.223-4.407.352-6.61.67-2.108.317-4.266.118-6.326.858-.32 1.64-.36 3.093-.116 4.736zm-7.88-27.476c-.607.513-1.028.745-1.213 1.12-1.302 2.244-2.792 4.393-3.67 6.874-.786 2.2-1.571 4.494-2.357 6.695-.694 1.919-1.2 3.933-1.189 5.996.003.47.192.846.336 1.362 2.014-.412 3.94.114 5.857-.86.085-1.689.123-3.424.255-5.158.132-1.735.264-3.47.49-5.203.224-1.828.59-3.608.769-5.39.226-1.64.78-3.325.722-5.436zm32.496-.818c-.136.89-.228 1.172-.18 1.406.145.892.384 1.69.529 2.583.631 4.177 1.215 8.307 1.846 12.484.097.657.007 1.407.573 1.973 3.236.063 5.064-.162 6.56-.998-.38-.94-.666-1.88-1.046-2.82-1.045-2.631-2.09-5.357-3.276-7.942-1.044-2.35-2.837-4.33-5.006-6.686zm-25.513 45.5c-.469-.096-.89-.05-1.127-.287-.235-.235-.472-.659-.52-.987-.097-.47-.1-.939-.102-1.408.13-2.297.258-4.594.434-6.844-.002-.376.043-.797.182-1.125.14-.234.42-.42.7-.512.376-.092.799.145.942.567.095.282.144.61.098.939l-.114 5.205c-.04 1.078-.129 2.203-.17 3.282-.045.328-.184.655-.323 1.17zm13.265-1.479c-.373.374-1.171.229-1.314-.194-.095-.282-.238-.611-.24-.892-.435-2.676-.918-5.305-1.307-8.027-.097-.563-.052-1.079.039-1.64.045-.235.466-.467.7-.513.235-.046.564.19.753.379.141.141.19.47.19.658.484 2.816 1.014 5.586 1.498 8.402.095.376.05.797-.041 1.172-.092.375-.279.561-.278.655zm10.632-11.763c.236.33.33.424.425.612 1.044 2.35 2.088 4.794 3.132 7.144.047.047.048.141.095.188.143.517-.087 1.313-.461 1.499-.421.232-1.126-.1-1.459-.899-.996-2.303-2.04-4.653-3.037-6.956-.095-.188-.143-.423-.19-.658-.192-.751-.008-1.407.46-1.405.424.143.847.38 1.035.475zm-17.902 11.679c.143.423.285.658.334.987.15 1.923.348 3.8.451 5.676a4.99 4.99 0 0 1-.135 1.172c-.045.234-.279.468-.42.514-.28-.002-.656-.003-.844-.192-.235-.142-.425-.518-.426-.8-.246-2.205-.398-4.41-.55-6.615-.002-.281.324-.795.558-.935.187-.093.61.144 1.032.193zm14.244-2.553c.19.282.378.47.426.706.479 1.972.959 4.038 1.391 6.057.048.234.096.47.05.703-.044.422-.183.844-.652.841-.328-.048-.658-.285-.987-.52-.142-.142-.237-.424-.285-.659-.432-1.831-.91-3.71-1.342-5.54-.095-.376-.004-.751.088-1.126.046-.14.28-.374.467-.466.327-.14.61-.044.844.004zm-14.385-6.64c.144.517.38.94.476 1.41.29 1.408.062 2.86-.165 4.22-.045.421-.372.748-.841.652-.329-.049-.659-.379-.848-.661-.142-.235-.144-.61-.145-.892.134-1.265.174-2.531-.067-3.799-.047-.14-.001-.375.092-.468.14-.234.372-.561.606-.607.235-.046.564.097.892.145zm12.91 2.552c-.187 0-.468.092-.61.044-.281-.095-.61-.331-.706-.613-.617-1.363-1.046-2.82-.96-4.32-.002-.281.278-.655.512-.7.328-.046.939.098 1.033.286.57 1.504 1.048 3.1 1.057 4.79-.046.14-.186.28-.326.513z"/><path d="M721.543 135.414c-.14.046-.28.186-.421.232-.421.139-.796.23-1.033-.193-.142-.235-.237-.61-.145-.891.232-.515.558-.935.884-1.356.978-1.355 2.003-2.663 2.887-4.018.559-.748 1.024-1.59 1.583-2.337.279-.374.606-.7.98-.98.186-.093.656.004.891.146.188.094.237.423.238.61-.045.328-.138.61-.23.89-1.346 2.76-3.35 5.142-5.214 7.57-.14.14-.327.234-.42.327zm-3.918-4.85c-.514.325-.7.512-.935.557-.281-.001-.703.044-.844-.098-.189-.188-.285-.564-.286-.845-.001-.188.138-.422.325-.608 1.211-1.589 2.423-3.083 3.634-4.672.42-.513.888-.605 1.218-.275.377.377.52.8.288 1.315-.046.14-.139.328-.232.42a240.09 240.09 0 0 1-3.168 4.205zm333.728 448.03c-.485-3.619-.97-7.479-1.211-11.098-.727-9.89-2.423-19.54-4.846-28.95-1.211-5.307-1.696-10.856-2.18-16.163-.243-3.378-1.454-5.308-4.604-6.514-6.057-2.654-12.356-5.308-18.17-8.203l-29.8-14.475c-1.212-.723-2.423-1.447-3.635-2.412-3.392-2.654-2.907-6.514 1.454-7.72 5.815-1.93 10.902-5.308 16.475-7.961 7.753-3.86 15.748-7.238 23.743-10.615a332.34 332.34 0 0 0 13.567-6.032c2.908-1.206 4.361-3.377 5.088-6.514 2.908-15.922 6.057-31.845 9.207-47.767.727-3.378 1.453-6.755 2.907-9.891 2.18-4.825 6.784-5.79 10.66-2.172 5.088 4.825 9.691 9.892 14.295 15.2 4.603 5.307 8.237 11.097 12.84 16.404 3.634 4.343 7.753 8.444 11.872 12.786 1.938 1.93 4.36 2.413 7.268 2.172 10.176-1.207 20.109-2.172 30.285-3.137 3.634-.482 7.51-.723 11.144-.965 2.908-.24 5.815-.723 8.722-.723 1.938 0 4.119 0 6.057.482 2.665.724 4.119 3.378 3.15 6.273-.727 1.93-1.454 3.86-2.665 5.307-9.449 13.269-15.506 28.468-23.501 42.46-1.454 2.413-1.696 4.825-.485 7.479 1.696 4.101 3.15 7.961 5.088 12.063 2.423 5.066 4.361 10.132 5.815 15.44 1.696 5.548 3.876 10.856 5.814 16.405 1.454 3.86 2.908 7.478 3.877 11.338.727 2.413-1.454 4.584-3.877 4.584-1.21 0-2.18-.241-3.391-.482-11.145-2.895-22.774-4.584-34.404-5.308-5.814-.241-11.387-1.689-17.201-2.654-3.392-.723-6.3 0-8.722 2.413l-5.815 5.066c-10.176 8.203-20.109 16.405-30.285 24.608-1.695 1.447-3.876 2.653-5.814 3.618-4.603 1.207-7.753-.24-8.722-4.342zm113.143-136.065c-1.454-.483-2.665-1.207-3.634-.965-10.418.965-20.836 1.688-31.011 2.895-7.753.965-15.506 1.447-23.259 1.688-2.423-3.136-4.603-6.03-7.268-8.685-4.604-4.825-8.722-9.89-12.599-15.44-5.088-7.237-10.66-14.475-17.686-20.023-.969-.724-2.18-1.207-4.119-2.413-.969 3.378-1.696 6.273-2.18 8.926-.485 2.895-.97 5.79-1.454 8.444-2.423 12.063-4.603 24.366-7.026 36.429-.484 2.654-1.453 5.549-2.18 7.961-9.45 4.343-18.656 8.203-27.62 12.304-7.268 3.378-15.263 6.031-21.805 10.615-.969.724-1.938 1.689-2.907 2.654 1.211 3.136 3.634 4.101 6.057 5.307 12.114 5.549 24.228 11.339 36.584 16.405 4.36 1.689 6.783 4.343 7.51 8.685.727 3.619.485 7.479 1.212 11.098 2.18 13.269 4.603 26.779 7.026 40.047.242 1.448.484 2.895 2.907 3.378 3.392-2.413 7.268-5.066 10.66-7.961 9.933-8.444 19.867-16.888 29.558-25.332 1.696-1.447 3.392-2.17 5.572-1.447 2.18.482 4.603 1.206 6.784 1.689 5.088.965 10.176 2.17 15.263 2.895 8.48 1.206 17.202 2.17 25.924 3.377 1.211.241 2.665-.241 3.876-.241 0-1.206.243-1.689 0-2.171-3.876-9.168-6.783-18.335-9.448-27.985-.243-.724-.727-1.69-.97-2.413-2.18-5.307-4.603-10.615-6.783-15.922-1.696-3.86-1.454-7.72.969-11.58 3.634-6.514 7.026-13.27 10.418-20.024l10.175-18.094c.243-1.206.727-2.413 1.454-4.101z"/><path d="M1091.086 500.429c-3.392 0-6.783.241-10.175.241-1.939 0-3.15-1.447-3.635-3.136-.484-1.689.485-3.619 2.181-3.86.727-.241 1.696-.241 2.665-.241 4.846.723 8.964-.965 12.598-4.343.727-.482 1.212-1.206 1.939-1.689 1.696-1.206 3.391-.965 4.603.242 1.211 1.447 1.211 3.136.242 4.825-2.907 3.618-6.057 6.272-10.418 7.96zm-22.531-13.028c.726 3.378-1.212 6.514-4.361 7.238-2.665.482-5.33-1.448-6.057-4.825-.727-3.619 1.211-6.996 4.118-7.238 2.908-.241 5.573 1.689 6.3 4.825zm43.367-7.961c-2.907.965-6.057-.965-7.51-4.342-1.212-2.895.242-5.79 3.391-6.755 3.392-1.207 6.3.482 7.269 4.1.969 3.137-.485 6.032-3.15 6.997zm696.493 436.258c-.212-1.579-.424-3.263-.53-4.841-.317-4.314-1.058-8.524-2.116-12.628-.529-2.315-.74-4.735-.952-7.05-.106-1.473-.635-2.315-2.01-2.841-2.645-1.158-5.396-2.315-7.936-3.578l-13.014-6.314c-.53-.315-1.058-.631-1.587-1.052-1.482-1.157-1.27-2.841.635-3.367 2.539-.842 4.76-2.315 7.194-3.473 3.386-1.683 6.878-3.157 10.37-4.63 2.01-.842 3.915-1.684 5.925-2.63 1.27-.527 1.904-1.474 2.222-2.842 1.27-6.945 2.645-13.89 4.02-20.835.318-1.473.635-2.947 1.27-4.315.952-2.104 2.963-2.525 4.656-.947 2.222 2.105 4.232 4.315 6.242 6.63 2.01 2.315 3.598 4.84 5.608 7.155 1.587 1.895 3.386 3.683 5.185 5.578.846.841 1.904 1.052 3.174.947 4.444-.527 8.782-.947 13.226-1.368 1.587-.21 3.28-.316 4.867-.421 1.27-.105 2.54-.316 3.81-.316.846 0 1.798 0 2.644.21 1.164.316 1.8 1.474 1.376 2.736-.318.842-.635 1.684-1.164 2.316-4.126 5.787-6.772 12.417-10.263 18.52-.635 1.052-.741 2.104-.212 3.262.74 1.789 1.376 3.472 2.222 5.261 1.058 2.21 1.905 4.42 2.54 6.735.74 2.42 1.692 4.735 2.539 7.156.635 1.683 1.27 3.262 1.693 4.945.317 1.053-.635 2-1.693 2-.53 0-.952-.105-1.482-.21-4.867-1.263-9.945-2-15.024-2.316-2.54-.105-4.973-.736-7.513-1.157-1.48-.316-2.75 0-3.809 1.052l-2.539 2.21c-4.444 3.578-8.782 7.155-13.226 10.733-.74.632-1.693 1.158-2.54 1.579-2.01.526-3.385-.106-3.808-1.894zm49.412-59.35c-.635-.21-1.164-.526-1.587-.42-4.55.42-9.1.736-13.544 1.262-3.386.421-6.771.632-10.157.737-1.058-1.368-2.01-2.631-3.175-3.789a56.663 56.663 0 0 1-5.502-6.734c-2.222-3.157-4.655-6.314-7.724-8.734-.423-.316-.952-.526-1.798-1.052-.423 1.473-.74 2.735-.953 3.893a261.245 261.245 0 0 1-.634 3.683c-1.058 5.261-2.01 10.628-3.069 15.89-.211 1.157-.635 2.42-.952 3.472-4.127 1.894-8.147 3.578-12.062 5.367-3.174 1.473-6.666 2.63-9.523 4.63-.423.316-.846.737-1.27 1.157.53 1.368 1.588 1.79 2.646 2.315 5.29 2.42 10.58 4.946 15.977 7.156 1.904.737 2.962 1.894 3.28 3.788.317 1.579.211 3.262.529 4.84.952 5.788 2.01 11.681 3.068 17.469.106.631.212 1.263 1.27 1.473 1.481-1.052 3.174-2.21 4.655-3.472 4.339-3.683 8.677-7.366 12.909-11.05.74-.63 1.481-.947 2.434-.63.952.21 2.01.525 2.962.736 2.222.42 4.444.947 6.666 1.262 3.703.527 7.512.948 11.321 1.474.53.105 1.164-.106 1.693-.106 0-.526.106-.736 0-.947-1.693-3.998-2.962-7.997-4.126-12.206-.106-.316-.318-.737-.423-1.052-.953-2.316-2.01-4.63-2.963-6.946-.74-1.683-.635-3.367.423-5.05 1.587-2.842 3.069-5.788 4.55-8.735l4.444-7.892c.106-.526.317-1.052.635-1.789z"/><path d="M1825.767 881.603c-1.481 0-2.963.106-4.444.106-.846 0-1.375-.632-1.587-1.368-.212-.737.212-1.579.952-1.684.318-.105.74-.105 1.164-.105 2.116.315 3.915-.421 5.502-1.894.318-.21.53-.527.847-.737.74-.526 1.48-.421 2.01.105.529.632.529 1.368.106 2.105-1.27 1.578-2.645 2.736-4.55 3.472zm-9.84-5.682c.317 1.473-.53 2.841-1.905 3.157-1.164.21-2.327-.632-2.645-2.105-.317-1.578.53-3.051 1.799-3.157 1.27-.105 2.433.737 2.75 2.105zm18.94-3.473c-1.27.421-2.646-.42-3.28-1.894-.53-1.263.105-2.525 1.48-2.946 1.482-.526 2.752.21 3.175 1.789.423 1.368-.212 2.63-1.376 3.051zM1377.854 1877.28c.292 8.303-1.607 16.313-3.652 24.179-1.022 4.224-2.483 8.448-4.09 12.38-2.629 6.554-6.573 12.235-12.123 16.896-2.045 1.748-3.944 3.35-5.989 5.098-5.55 4.806-12.124 7.865-18.697 10.34-5.112 1.894-10.809 2.768-16.36 3.06-5.112.29-10.078.728-15.19 1.02-1.023 0-2.191.436-3.068.29-4.528-.873-8.91-1.747-13.292-2.621-2.629-.583-4.674-2.33-6.719-4.079-2.921-2.476-5.696-5.097-8.618-7.573-5.843-4.807-10.809-10.487-14.46-17.187-3.214-5.826-5.405-12.09-7.158-18.498-.73-2.476-.146-5.244 0-7.865.146-2.04.438-4.224.584-6.263.293-9.614 2.484-18.644 7.742-26.8.876-1.457 1.753-3.06 2.63-4.516 2.628-4.66 5.55-8.884 9.202-12.671 4.382-4.37 8.033-9.177 13-12.963 5.258-4.224 11.1-7.283 17.382-9.614 1.898-.728 4.09-.728 6.28-.728 5.113 0 10.225-.145 15.191.292 10.08.873 20.158 2.184 29.36 7.136 13.292 7.283 22.787 17.77 26.146 32.918.73 3.641 1.607 7.137 2.045 10.778 0 2.476-.146 4.807-.146 6.991zm-67.191-53.308c-2.483.291-5.55.437-8.618 1.02-7.742 1.601-14.607 4.951-20.303 10.34-5.405 5.098-10.225 10.925-15.338 16.46-.584.582-1.022 1.456-1.46 2.184-2.191 3.933-4.528 7.865-6.72 11.944-2.482 4.66-4.09 9.613-4.527 15.002a230.95 230.95 0 0 1-1.315 14.128c-.292 2.476-.146 4.952.73 7.137 1.169 3.059 2.484 6.117 3.506 9.322 2.191 5.971 5.404 11.36 9.933 15.876 4.966 4.952 10.224 9.467 15.483 14.128 1.606 1.31 3.505 2.476 5.55 2.767 5.989.874 11.832 3.205 18.113 1.457.876-.291 1.752-.146 2.629-.146 5.696-.145 11.54.146 17.09-1.893 1.753-.583 3.944-.437 5.55-1.02 5.697-2.33 11.394-4.515 16.214-8.302 3.505-2.767 7.011-5.826 10.37-8.885 1.753-1.602 3.214-3.641 4.675-5.68 2.921-4.224 4.674-8.885 6.28-13.691 2.046-6.555 3.214-13.255 4.529-19.81 1.899-10.632.292-20.827-3.36-30.877-3.505-9.76-10.517-16.896-18.989-22.43-4.382-2.914-9.202-4.953-14.46-5.973-8.18-2.039-16.506-2.184-25.562-3.058z"/><path d="M1289.775 1908.45c-2.921.146-6.865-1.165-10.37-3.641-5.259-3.496-7.304-8.885-5.843-15.002 2.337-9.03 8.472-14.129 17.09-16.605 2.775-.728 5.55-.291 7.887 1.602 5.843 4.661 10.663 12.818 8.034 22.14-2.191 7.428-7.742 11.652-16.798 11.506zm29.068-77.341h3.213c3.214-.292 6.135 0 8.764 2.33 1.023 1.02 2.922 1.165 4.236 1.894.73.437 1.315 1.02 1.9 1.602.583.728.291 2.476-.585 2.767-1.315.437-2.63.874-3.944 1.165-2.775.437-5.55.437-8.326 1.166-5.258 1.165-10.37.437-15.63-.146-1.46-.146-3.067-.728-4.381-1.457-2.483-1.31-2.921-4.37-.584-5.971 2.337-1.748 4.966-3.35 8.033-3.35a61.076 61.076 0 0 1 7.304 0c0-.146 0 0 0 0zm45.28 60.591c-.438 8.593-2.336 16.896-8.033 23.741-1.169 1.311-2.337 2.622-3.652 3.787-.584.583-1.46 1.02-2.19 1.311-1.9.583-3.652-.437-3.799-2.476-.146-3.204.147-6.117 2.191-8.885a43.789 43.789 0 0 0 4.236-7.137c1.023-2.184 1.9-4.515 2.045-6.991.292-4.078 3.068-5.68 6.135-6.991 1.315-.583 2.775.437 2.922 2.039.146.582.146 1.165.146 1.602zm-54.044 36.85c-1.753-.583-3.652-.874-5.405-1.748-1.899-1.02-2.483-2.913-2.045-4.952.146-.437.292-1.02.584-1.457 3.36-4.37 7.012-8.156 12.854-9.176 4.236-.728 5.99 1.311 6.281 4.807.585 6.117-5.112 12.817-12.27 12.526zm-41.776-63.504c.293-1.02.73-2.622 1.461-4.224 2.483-5.098 6.427-9.03 10.663-12.818 1.022-.874 2.337-1.602 3.798-.582 1.46.874 2.337 2.33 1.753 3.932-.585 2.04-1.169 4.079-2.338 5.68-1.752 2.623-3.943 4.953-5.988 7.138-1.169 1.31-2.63 2.185-3.36 3.932-.73 1.603-2.337 2.04-3.505 1.603-1.753-.437-2.63-2.04-2.484-4.661zM717.904 912.97c.192 5.41-1.05 10.629-2.387 15.753-.669 2.752-1.624 5.504-2.674 8.066-1.72 4.27-4.298 7.971-7.927 11.008-1.337 1.139-2.579 2.182-3.916 3.321-3.63 3.132-7.927 5.125-12.225 6.738-3.342 1.233-7.067 1.803-10.696 1.993-3.343.19-6.59.474-9.933.664-.668 0-1.433.284-2.006.19-2.96-.57-5.825-1.14-8.69-1.709-1.72-.38-3.057-1.518-4.394-2.657-1.91-1.613-3.725-3.32-5.635-4.934-3.82-3.132-7.067-6.833-9.455-11.198-2.1-3.795-3.533-7.876-4.68-12.051-.477-1.613-.095-3.416 0-5.125.096-1.328.287-2.752.383-4.08.19-6.263 1.623-12.147 5.061-17.46.573-.95 1.146-1.993 1.72-2.942 1.719-3.037 3.629-5.789 6.016-8.256 2.865-2.847 5.253-5.979 8.5-8.446 3.438-2.752 7.259-4.745 11.365-6.263 1.242-.474 2.675-.474 4.107-.474 3.343 0 6.686-.095 9.933.19 6.59.569 13.18 1.423 19.196 4.65 8.691 4.744 14.9 11.576 17.096 21.445.477 2.373 1.05 4.65 1.337 7.023 0 1.613-.096 3.131-.096 4.555zm-43.932-34.73c-1.624.189-3.63.284-5.635.663-5.062 1.044-9.55 3.227-13.275 6.738-3.534 3.321-6.686 7.117-10.028 10.723-.382.38-.669.949-.955 1.423-1.433 2.563-2.961 5.125-4.394 7.782-1.623 3.036-2.674 6.263-2.96 9.774a149.832 149.832 0 0 1-.86 9.205c-.19 1.613-.095 3.226.478 4.65.764 1.992 1.623 3.985 2.292 6.073 1.432 3.89 3.534 7.402 6.494 10.343 3.247 3.227 6.686 6.168 10.124 9.205 1.05.854 2.292 1.613 3.629 1.803 3.916.57 7.736 2.088 11.843.949.573-.19 1.146-.095 1.719-.095 3.725-.095 7.545.095 11.174-1.233 1.146-.38 2.579-.285 3.63-.665 3.724-1.518 7.449-2.941 10.6-5.409 2.292-1.803 4.585-3.796 6.781-5.788 1.146-1.044 2.101-2.373 3.056-3.701 1.91-2.752 3.057-5.789 4.107-8.92 1.337-4.27 2.101-8.636 2.96-12.906 1.242-6.927.192-13.57-2.196-20.118-2.292-6.358-6.876-11.007-12.416-14.613-2.865-1.898-6.016-3.227-9.455-3.891-5.348-1.329-10.792-1.423-16.713-1.993z"/><path d="M660.315 933.278c-1.91.095-4.49-.76-6.781-2.372-3.438-2.278-4.776-5.789-3.82-9.774 1.528-5.884 5.539-9.205 11.174-10.818 1.814-.475 3.629-.19 5.157 1.043 3.82 3.037 6.972 8.351 5.253 14.424-1.433 4.84-5.062 7.592-10.983 7.497zm19.005-50.389h2.101c2.101-.19 4.012 0 5.73 1.518.67.665 1.91.76 2.77 1.234.478.285.86.664 1.242 1.044.382.474.19 1.613-.382 1.803-.86.284-1.72.57-2.579.759-1.814.285-3.629.285-5.444.76-3.438.758-6.78.284-10.219-.096-.955-.095-2.005-.474-2.865-.949-1.623-.854-1.91-2.847-.382-3.89 1.528-1.14 3.247-2.183 5.253-2.183a40.077 40.077 0 0 1 4.775 0c0-.095 0 0 0 0zm29.607 39.476c-.287 5.599-1.528 11.008-5.253 15.468-.764.854-1.528 1.708-2.387 2.467-.383.38-.956.664-1.433.854-1.242.38-2.388-.284-2.483-1.613-.096-2.088.095-3.985 1.432-5.788a28.507 28.507 0 0 0 2.77-4.65c.669-1.424 1.242-2.942 1.337-4.555.191-2.657 2.006-3.701 4.011-4.555.86-.38 1.815.284 1.91 1.328.096.38.096.76.096 1.044zm-35.337 24.008c-1.146-.38-2.388-.569-3.534-1.138-1.241-.665-1.623-1.898-1.337-3.227.096-.284.191-.664.382-.949 2.197-2.846 4.584-5.314 8.405-5.978 2.77-.474 3.915.854 4.106 3.132.382 3.985-3.342 8.35-8.022 8.16zM646.275 905c.191-.664.478-1.708.955-2.752 1.624-3.32 4.203-5.883 6.972-8.35.669-.57 1.528-1.044 2.483-.38.955.57 1.528 1.519 1.146 2.562-.382 1.329-.764 2.657-1.528 3.701-1.146 1.708-2.578 3.227-3.915 4.65-.764.854-1.72 1.423-2.197 2.562-.478 1.044-1.528 1.329-2.292 1.044-1.146-.285-1.72-1.328-1.624-3.037zm1126.039-724.05c-.931-5.118-2.327-9.074-4.421-12.564-5.817-10.47-6.282-21.639-3.723-33.273 2.56-10.703 7.213-20.475 12.797-29.782 2.094-3.49 4.654-6.515 8.144-8.144.93-.466 3.025 0 3.723.698s.465 2.56.232 3.723c-.232.698-.93 1.163-1.628 1.861-5.352 5.352-8.842 12.1-11.634 19.08-.465.93-.465 2.094-.698 3.024.698.931.93 1.63 1.629 2.095 19.08 13.96 38.159 28.153 57.238 42.114 1.163.698 2.327 1.396 3.723 2.094 6.748-3.955 11.866-9.54 15.822-15.822 1.396-2.094 2.56-4.42 4.188-6.05.698-.698 2.56-.698 3.723-.465 1.396.466 1.861 2.094 1.396 3.49-2.327 5.817-5.119 11.169-9.772 15.59-6.283 6.05-12.565 11.634-20.243 16.287-9.54 5.584-19.312 8.376-30.248 7.213-4.188-.465-8.377-.698-12.565-.93-1.163 0-2.094.232-3.257.232-.931 3.025.232 5.119 1.163 7.446 1.861 4.653 3.025 9.772 5.352 13.96 3.49 6.283 2.792 13.03 3.49 19.545.232 1.629-.233 3.258-.93 4.886-4.422 10.238-8.377 20.709-14.66 30.016-6.98 10.237-16.52 16.287-28.386 18.614-7.678 1.629-15.357 1.396-23.268-.233-2.327-.465-4.886-.233-7.678-.233-.698 3.49.698 6.05 1.629 8.842 1.628 5.12 3.257 10.005 4.653 15.124 2.327 8.144.93 16.055-2.094 23.733-4.188 10.47-10.238 19.778-16.52 29.085a12.463 12.463 0 0 1-3.49 3.49c-1.164.93-3.49.698-4.654-.698-1.163-1.163-.93-2.56-.232-3.723 2.792-4.188 5.816-8.144 8.609-12.332 1.628-2.56 3.024-5.119 4.886-8.143-1.629-1.63-2.56-3.258-4.188-4.421-18.382-13.728-36.763-27.223-55.145-40.719-1.396-.93-2.792-1.861-4.42-2.56-3.258.932-4.887 3.491-6.981 5.818-3.257 3.955-6.05 7.91-9.307 11.866-.93.931-2.094 1.862-3.025 2.792-3.49-2.326-4.188-3.722-3.025-5.817.931-1.628 1.862-3.49 3.258-4.886 6.282-7.445 12.332-15.124 20.01-21.406 7.678-6.515 16.287-10.703 26.525-10.47 4.421.232 8.842.232 13.263.232 2.792 0 5.584.698 8.609-1.163-.466-1.629-.698-3.49-1.396-5.352-1.862-4.886-3.956-9.772-5.584-14.891-5.12-15.357-2.793-29.55 7.445-42.347 6.98-8.61 15.59-15.124 23.5-22.337 2.793-2.56 6.516-3.025 10.006-3.956 4.42-1.396 9.074-1.861 13.96-1.163 8.144 1.163 15.59 2.094 24.199.93zm-70.501 39.788c.93.931 1.628 1.396 2.326 1.862 20.709 15.124 41.184 30.48 61.892 45.604 1.164.698 2.327 1.164 3.723 1.63 3.956-3.026 6.515-6.516 7.679-10.704-.698-.93-1.164-1.629-1.862-2.094-21.173-15.59-42.114-30.946-63.288-46.535-.698-.466-1.629-.699-2.56-.931-3.49 2.792-6.514 5.817-7.91 11.168zm85.16 18.382c-.931-1.164-1.63-2.327-2.56-3.025l-55.843-41.184c-.698-.465-1.628-.465-2.326-.698-7.911 4.886-7.911 4.886-10.47 9.54 1.395 1.163 2.791 2.56 4.187 3.723 4.887 3.723 9.773 7.213 14.892 10.936l39.09 28.619c2.326 1.861 4.653 4.188 8.143 3.955 3.025-3.024 3.723-7.213 4.886-11.866zm-67.477 93.303c1.163-3.723 2.094-6.282 3.025-8.841 1.163-4.189-.466-7.446-3.956-10.006-15.822-11.4-31.411-22.802-47.466-34.436-5.119 1.396-10.005 3.49-13.03 8.61 4.654 4.42 49.095 37.693 56.308 42.346 1.164.466 2.56 1.164 5.119 2.327zm110.754-155.66c-2.094-1.63-3.49-3.025-4.886-4.189-15.59-11.401-31.411-23.035-47-34.436-1.164-.93-2.327-1.629-3.49-2.327-1.63-.93-3.724-.232-3.956 1.629-.466 3.257-.698 6.515-1.164 10.005 2.327 1.861 4.421 3.723 6.748 5.352 11.866 8.841 23.733 17.45 35.6 26.292 1.396.93 2.559 2.094 4.188 2.792 1.396.698 3.257 1.164 4.653.931 3.258-.93 6.515-2.327 9.307-6.05zm-68.872 97.491c-1.629-1.396-2.56-2.327-3.49-3.025-5.12-3.723-10.238-7.678-15.357-11.401l-36.996-27.223c-1.628-1.164-3.257-3.025-6.05-2.094-1.86 3.955-1.163 7.91-.232 11.634 3.025 2.326 5.817 4.188 8.377 6.05 12.564 9.306 25.129 18.38 37.693 27.688 5.817 4.188 9.307 3.955 16.055-1.629zm-26.525-84.694c1.163 1.163 1.628 2.094 2.56 2.792 15.589 11.634 31.41 23.267 47 34.901.465.233.93.698 1.396.931 1.163.233 2.327.465 3.723.698.698-7.213.698-7.213-2.56-14.891-1.396-3.025-3.722-4.654-6.282-6.515-6.98-5.12-14.426-9.773-20.708-15.59-3.723-3.49-7.446-5.119-12.565-5.119-4.188 0-8.143-.698-12.564 2.793zm-50.724 88.417c.93 1.629 1.396 2.56 2.094 3.257 3.258 2.56 6.748 5.12 10.005 7.446 6.515 4.886 13.03 9.54 19.545 14.426 1.164.93 2.327 1.396 3.956-.93-1.629-4.422-3.258-9.54-5.585-14.194-1.396-3.025-3.257-6.05-6.514-7.446-7.446-3.025-14.892-3.49-23.5-2.56zm89.813-117.27c-.232.931-.93 1.862-.698 2.56 2.095 5.119 4.421 10.238 6.515 15.357 1.164 2.792 3.258 4.42 6.283 4.653 6.282.698 12.564 1.164 18.846 1.862 0-.698.233-.931.233-1.164-.233-.465-.233-1.163-.465-1.396l-27.223-20.243c-1.164-.698-2.094-1.163-3.49-1.628zm-69.105 95.166c-.698 4.42 1.63 7.213 3.258 9.772 1.861 3.025 3.723 6.748 6.515 8.609 4.886 3.025 10.936 3.723 16.753 4.654.93.232 2.326.232 2.559-1.397-3.723-4.886-18.381-16.054-29.085-21.638zm73.992-60.031c0-3.258-.233-5.817-3.258-6.748-1.861-.465-4.188-1.396-5.817 1.396 2.792 2.327 4.886 4.887 9.075 5.352zM201.253 555.989c.351 1.933.879 3.427 1.67 4.746 2.196 3.954 2.372 8.173 1.406 12.567-.967 4.042-2.725 7.733-4.834 11.248-.79 1.319-1.758 2.461-3.076 3.076-.351.176-1.142 0-1.406-.263-.264-.264-.176-.967-.088-1.407.088-.263.352-.439.615-.703 2.022-2.02 3.34-4.57 4.394-7.206.176-.351.176-.79.264-1.142-.264-.352-.351-.615-.615-.791-7.206-5.273-14.413-10.634-21.619-15.907-.44-.263-.879-.527-1.406-.79-2.548 1.493-4.482 3.602-5.976 5.975-.527.791-.967 1.67-1.582 2.285-.263.264-.966.264-1.406.176-.527-.176-.703-.791-.527-1.318.879-2.197 1.933-4.219 3.69-5.888 2.374-2.285 4.746-4.394 7.647-6.152 3.603-2.11 7.294-3.164 11.424-2.724 1.582.175 3.164.263 4.746.351.44 0 .79-.088 1.23-.088.352-1.142-.088-1.933-.44-2.812-.702-1.758-1.142-3.69-2.02-5.273-1.319-2.373-1.055-4.921-1.319-7.382-.088-.615.088-1.23.352-1.845 1.67-3.867 3.163-7.822 5.536-11.337 2.637-3.867 6.24-6.152 10.722-7.03 2.9-.616 5.8-.528 8.788.087.879.176 1.845.088 2.9.088.264-1.318-.264-2.285-.615-3.34-.615-1.933-1.23-3.778-1.758-5.711-.879-3.076-.351-6.064.791-8.964 1.582-3.955 3.867-7.47 6.24-10.986a4.7 4.7 0 0 1 1.318-1.318c.44-.351 1.318-.263 1.758.264.439.44.351.967.087 1.406-1.054 1.582-2.197 3.076-3.251 4.658-.615.966-1.143 1.933-1.846 3.076.615.615.967 1.23 1.582 1.67 6.943 5.184 13.885 10.281 20.828 15.379.527.351 1.055.703 1.67.966 1.23-.351 1.845-1.318 2.636-2.197 1.23-1.494 2.285-2.988 3.515-4.482.352-.351.791-.703 1.143-1.054 1.318.878 1.582 1.406 1.142 2.197-.351.615-.703 1.318-1.23 1.845-2.373 2.812-4.658 5.712-7.558 8.085-2.9 2.46-6.151 4.043-10.018 3.955-1.67-.088-3.34-.088-5.01-.088-1.054 0-2.109-.264-3.251.44.176.615.264 1.318.527 2.02.703 1.846 1.494 3.692 2.11 5.625 1.933 5.8 1.054 11.161-2.813 15.995-2.636 3.251-5.888 5.712-8.876 8.436-1.054.967-2.46 1.143-3.779 1.494-1.67.527-3.427.703-5.273.44-3.075-.44-5.888-.791-9.14-.352zm26.628-15.028a5.075 5.075 0 0 0-.88-.703c-7.82-5.712-15.554-11.512-23.375-17.225-.44-.263-.88-.439-1.407-.615-1.494 1.143-2.46 2.461-2.9 4.043.264.351.44.615.703.79 7.998 5.889 15.907 11.689 23.904 17.577.264.176.615.264.967.352 1.318-1.055 2.46-2.197 2.988-4.219zm-32.165-6.942c.352.44.615.878.967 1.142l21.091 15.555c.264.176.616.176.88.264 2.987-1.846 2.987-1.846 3.954-3.603-.527-.44-1.055-.967-1.582-1.406-1.846-1.407-3.691-2.725-5.624-4.13l-14.764-10.81c-.88-.703-1.758-1.582-3.076-1.494-1.143 1.142-1.406 2.724-1.846 4.482zm25.486-35.24a69.67 69.67 0 0 1-1.143 3.339c-.44 1.582.176 2.812 1.494 3.779 5.976 4.306 11.864 8.612 17.928 13.006 1.933-.527 3.779-1.318 4.921-3.252-1.757-1.67-18.543-14.236-21.267-15.994-.44-.176-.967-.44-1.933-.879zM179.37 557.57c.791.615 1.318 1.142 1.846 1.582 5.888 4.306 11.864 8.7 17.752 13.006.44.352.879.615 1.318.879.615.351 1.406.088 1.494-.615.176-1.23.264-2.46.44-3.78-.88-.702-1.67-1.405-2.55-2.02-4.481-3.34-8.963-6.591-13.445-9.931-.527-.352-.967-.79-1.582-1.055-.527-.263-1.23-.439-1.757-.351-1.23.351-2.461.879-3.516 2.285zm26.013-36.822c.615.527.967.878 1.318 1.142 1.934 1.406 3.867 2.9 5.8 4.306l13.974 10.282c.615.44 1.23 1.143 2.285.791.703-1.494.439-2.988.087-4.394-1.142-.879-2.197-1.582-3.163-2.285-4.746-3.515-9.491-6.942-14.237-10.458-2.197-1.581-3.515-1.494-6.064.616zm10.019 31.988c-.44-.439-.616-.79-.967-1.054-5.888-4.394-11.864-8.788-17.752-13.182-.176-.088-.352-.264-.527-.352-.44-.088-.88-.176-1.407-.264-.263 2.725-.263 2.725.967 5.625.527 1.142 1.406 1.757 2.373 2.46 2.636 1.934 5.449 3.692 7.821 5.889 1.407 1.318 2.813 1.933 4.746 1.933 1.582 0 3.076.264 4.746-1.055zm19.158-33.395c-.352-.615-.528-.966-.791-1.23a104.915 104.915 0 0 0-3.78-2.812c-2.46-1.846-4.92-3.603-7.381-5.449-.44-.351-.879-.527-1.494.352.615 1.67 1.23 3.603 2.109 5.36.527 1.143 1.23 2.285 2.46 2.813 2.813 1.142 5.625 1.318 8.877.966zm-33.922 44.293c.087-.352.351-.703.263-.967-.79-1.933-1.67-3.867-2.46-5.8-.44-1.055-1.23-1.67-2.373-1.758-2.373-.263-4.746-.44-7.119-.703 0 .264-.088.352-.088.44.088.175.088.439.176.527l10.282 7.645c.44.264.791.44 1.319.616zm26.1-35.944c.264-1.67-.615-2.724-1.23-3.69-.703-1.143-1.406-2.55-2.46-3.252-1.846-1.143-4.131-1.407-6.328-1.758-.352-.088-.879-.088-.967.527 1.406 1.846 6.943 6.064 10.985 8.173zm-27.946 22.674c0 1.23.088 2.197 1.23 2.548.703.176 1.582.527 2.197-.527-1.054-.879-1.845-1.846-3.427-2.021zm1575.934 1165.829c-.274 1.511-.685 2.61-2.056 3.16-.959.412-1.781.687-2.74.962-12.06 3.16-24.119 6.457-36.178 9.48-13.704 3.572-27.27 7.007-40.974 10.58-12.745 3.297-25.352 6.732-37.96 10.167-7.4 1.924-14.937 3.847-22.337 5.771-.822.137-1.644.412-2.33.412-1.095.138-2.192-1.236-1.918-2.336.274-.824.548-1.511.96-2.198 1.233-1.924 2.466-3.847 3.837-5.77 8.359-11.954 16.855-23.908 25.351-35.862 11.923-17.037 23.708-33.937 35.63-50.974a62700.571 62700.571 0 0 1 45.77-65.677c.96-1.374 1.919-2.748 3.152-3.847 1.508-1.374 3.563-.962 4.111 1.237l.823 3.297c5.07 22.259 10.003 44.655 15.074 66.913 3.7 16.625 7.537 33.388 11.237 50.013.137 1.786.274 3.298.548 4.672zm-31.107-118.713c-2.193.138-2.878 1.924-3.7 3.16l-32.478 46.579c-10.963 15.663-21.79 31.327-32.752 46.99-6.989 10.03-13.978 19.923-20.967 29.953l-16.033 23.083c-.548.824-.96 1.923-1.37 2.885 1.507.962 2.74.412 4.11 0 16.993-4.534 33.849-8.93 50.841-13.465 25.078-6.595 50.019-13.19 75.097-19.785 1.233-.275 2.33-.962 3.7-1.374-.137-1.237-.137-2.199-.274-3.16-8.497-37.51-16.856-75.02-25.352-112.667-.137-.825-.548-1.512-.822-2.199z"/><path d="M1734.163 1638.975c1.781.687 2.056 2.198 2.33 3.572 1.37 5.633 2.74 11.13 3.974 16.763 3.014 12.915 5.892 25.968 8.907 38.883.137.687.274 1.237.411 1.924.137 1.786-.41 2.748-2.192 3.298-3.837 1.236-7.812 2.61-11.786 3.572-18.088 4.809-36.04 9.618-54.13 14.427a26.9 26.9 0 0 1-4.796.824c-1.233.138-2.055-1.374-1.507-2.473.411-.687.822-1.374 1.37-2.06a7307.675 7307.675 0 0 0 28.23-40.946l22.611-32.975c1.508-2.336 3.426-4.397 6.578-4.81zm-50.293 77.08c1.782.275 3.29 0 4.934-.412 1.781-.55 3.426-1.1 5.207-1.511 15.074-3.985 30.011-7.97 45.085-12.091 2.056-.55 4.111-1.237 5.893-2.886-.274-2.198-.685-4.396-1.096-6.595l-4.523-20.197c-1.781-7.832-3.563-15.664-5.481-23.496-.274-.961-.137-2.335-1.645-2.885-.41.275-.959.412-1.096.687-15.622 22.533-31.107 45.204-46.73 67.738-.41.274-.41.824-.548 1.648zM179.984 1130.123c-.562-.267-.949-.544-1.019-1.142a8.912 8.912 0 0 1-.086-1.181c.038-5.085.023-10.185.115-15.256.05-5.777.141-11.486.192-17.263.057-5.37.046-10.7.035-16.03.03-3.12.074-6.293.103-9.412.034-.338.013-.691.085-.961.062-.447.715-.735 1.116-.512.294.194.533.374.758.608a56.75 56.75 0 0 1 1.851 2.118c3.79 4.548 7.567 9.15 11.343 13.752 5.401 6.485 10.764 12.902 16.165 19.387a25678.92 25678.92 0 0 1 20.843 24.925c.435.522.871 1.045 1.17 1.646.379.738 0 1.505-.917 1.491l-1.376-.021c-9.238-.333-18.515-.734-27.753-1.067-6.891-.283-13.85-.526-20.741-.809-.713-.133-1.318-.237-1.884-.273zm49.699.172c.178-.879-.448-1.336-.845-1.79l-14.78-17.684c-4.965-5.963-9.946-11.872-14.912-17.835-3.183-3.806-6.312-7.598-9.495-11.404l-7.331-8.74c-.265-.302-.651-.58-.984-.842-.535.493-.45 1.037-.434 1.62-.022 7.175-.084 14.28-.106 21.455-.071 10.578-.127 21.102-.198 31.68-.023.515.13 1.02.146 1.603.498.075.874.176 1.265.223 15.563.58 31.11 1.214 46.727 1.808.337.032.65-.058.947-.094z"/><path d="M214.458 1122.22c-.456.63-1.076.58-1.642.544-2.348-.05-4.641-.085-6.974-.189-5.368-.164-10.775-.397-16.143-.562-.283-.018-.513-.021-.796-.04-.712-.132-1.03-.45-1.057-1.209-.078-1.642-.196-3.353-.152-5.02.03-7.636.047-15.217.078-22.853-.002-.637.064-1.314.184-1.977.077-.5.755-.667 1.126-.335.226.234.45.468.661.756a3032.84 3032.84 0 0 0 13.026 15.419l10.504 12.369c.754.839 1.357 1.811 1.185 3.097zm-24.823-27.903c-.295.673-.347 1.297-.36 1.988.027.76.068 1.466.041 2.211-.035 6.36-.055 12.667-.036 19.042-.002.868.05 1.75.506 2.626.889.122 1.791.19 2.694.258l8.375.333c3.25.118 6.5.237 9.765.3.405-.007.927.191 1.301-.345-.064-.191-.06-.422-.152-.505-7.16-8.52-14.388-17-21.547-25.52-.064-.19-.279-.248-.587-.388z"/></g></svg>