<svg id="Layer_1" data-name="Layer 1" xmlns="http://www.w3.org/2000/svg" viewBox="0 0 140.2 141.25"><defs><style>.cls-1{fill:#01d5fd}.cls-2{fill:#6e01ff}</style></defs><title>certified</title><path class="cls-1" d="M324.25 145c-3 0-5.55-2-8-3.93a17.24 17.24 0 0 0-4.83-3.08 18.32 18.32 0 0 0-6-.39c-3.05.11-6.21.23-8.54-1.47s-3.23-4.77-4.07-7.73a17.73 17.73 0 0 0-2.18-5.49 17.53 17.53 0 0 0-4.49-3.71c-2.57-1.71-5.23-3.49-6.15-6.31s.2-5.63 1.24-8.47a18.51 18.51 0 0 0 1.49-5.9 18.51 18.51 0 0 0-1.49-5.89c-1-2.84-2.11-5.77-1.24-8.47s3.58-4.6 6.15-6.31a17.55 17.55 0 0 0 4.49-3.71 17.74 17.74 0 0 0 2.18-5.49c.84-3 1.7-6 4.06-7.73s5.49-1.59 8.54-1.47a18.24 18.24 0 0 0 6-.39 17.24 17.24 0 0 0 4.84-3.06c2.44-1.93 5-3.93 8-3.93s5.55 2 8 3.93a17.23 17.23 0 0 0 4.83 3.08 18.3 18.3 0 0 0 6 .39c3-.11 6.21-.23 8.54 1.47s3.23 4.77 4.07 7.73a17.73 17.73 0 0 0 2.18 5.49 17.55 17.55 0 0 0 4.49 3.71c2.57 1.71 5.23 3.49 6.15 6.31s-.2 5.63-1.24 8.47a18.51 18.51 0 0 0-1.49 5.89 18.51 18.51 0 0 0 1.49 5.9c1 2.84 2.11 5.77 1.24 8.47s-3.58 4.6-6.15 6.31a17.54 17.54 0 0 0-4.49 3.71 17.74 17.74 0 0 0-2.18 5.49c-.84 3-1.7 6-4.07 7.73s-5.49 1.59-8.54 1.47a18.22 18.22 0 0 0-6 .39 17.23 17.23 0 0 0-4.83 3.08c-2.45 1.91-4.97 3.91-8 3.91zm-16.55-9.46a14.13 14.13 0 0 1 4.34.55 18.84 18.84 0 0 1 5.45 3.41c2.27 1.8 4.42 3.5 6.76 3.5s4.48-1.7 6.75-3.5a18.85 18.85 0 0 1 5.45-3.41 19.7 19.7 0 0 1 6.64-.49c2.84.1 5.52.2 7.29-1.09s2.54-3.91 3.32-6.66a19.37 19.37 0 0 1 2.49-6.12 19.18 19.18 0 0 1 5-4.2c2.39-1.6 4.65-3.1 5.36-5.26s-.25-4.53-1.21-7.17a19.89 19.89 0 0 1-1.61-6.58 19.88 19.88 0 0 1 1.62-6.52c1-2.64 1.88-5.12 1.21-7.17s-3-3.67-5.36-5.26a19.18 19.18 0 0 1-5-4.2 19.38 19.38 0 0 1-2.49-6.12c-.78-2.75-1.51-5.34-3.32-6.66s-4.46-1.2-7.29-1.09a19.63 19.63 0 0 1-6.64-.49 18.85 18.85 0 0 1-5.46-3.44c-2.27-1.8-4.42-3.5-6.76-3.5s-4.48 1.7-6.76 3.5A18.86 18.86 0 0 1 312 61a19.62 19.62 0 0 1-6.64.49c-2.84-.1-5.51-.2-7.29 1.09s-2.54 3.91-3.32 6.66a19.38 19.38 0 0 1-2.49 6.12 19.18 19.18 0 0 1-5 4.2c-2.39 1.6-4.65 3.1-5.36 5.26s.25 4.53 1.21 7.17a19.89 19.89 0 0 1 1.61 6.58 19.89 19.89 0 0 1-1.61 6.58c-1 2.64-1.88 5.12-1.21 7.17s3 3.67 5.36 5.26a19.16 19.16 0 0 1 5 4.2 19.37 19.37 0 0 1 2.49 6.12c.78 2.75 1.51 5.34 3.32 6.66s4.46 1.2 7.29 1.09c.8-.06 1.58-.09 2.34-.09z" transform="translate(-254.5 -27.9)"/><path class="cls-2" d="M254.59 85.95c.22-1.3 1.16-4.13 2.86-3.84l1.45.24-.3 1.81-.84-.16c-.8-.13-1.32 1.25-1.46 2.13a3.53 3.53 0 0 0 3.12 4.22 3.74 3.74 0 0 0 4.62-3c.11-.65.18-2.37-.67-2.51l-.83-.14.3-1.81 1.47.25c1.61.27 1.65 3.13 1.4 4.62a5.58 5.58 0 0 1-6.55 4.69 5.48 5.48 0 0 1-4.57-6.5zm11.01-5.52l.46-1.22-7.37-2.8-.47 1.22-1.42-.54 2.88-7.58 2.63 1-.61 1.61-1.12-.43-1.09 2.86 2.8 1.06 1.28-3.37 1.51.57-1.28 3.37 2.87 1.09 1.17-3.08-1.15-.44.61-1.61 2.66 1L267 81zm4.18-10.36l.7-1.07-6.68-4.17-.7 1.07-1.29-.8 2.55-4.1a7.14 7.14 0 0 1 1.3-1.64 2.85 2.85 0 0 1 3.54-.17 3 3 0 0 1 1.47 3.35 1.46 1.46 0 0 1 .77-.16l2.6.13a.72.72 0 0 0 .69-.44l.19-.3 1.28.8-.68 1.08a1.35 1.35 0 0 1-1.5.86l-3.21-.17a1 1 0 0 0-1 .61l-.53.85 2.27 1.41.67-1.07 1.28.8-2.43 3.89zm-.91-6.62a1.63 1.63 0 0 0-.6-2.44 1.48 1.48 0 0 0-1.73-.07 3.09 3.09 0 0 0-.82.94l-.78 1.25 3 1.85zm9.13-5.13l.89-1-5.69-5.31-1.41 1.51 1.2 1.12-1.17 1.25-2.38-2.22 6.54-7 2.38 2.22-1.17 1.25-1.19-1.08-1.42 1.52 5.69 5.31.9-1 1.1 1-3.17 3.4zm6.84-6.79l1-.8-4.84-6.21-1 .8-.93-1.2 3.67-2.85.93 1.2-1 .81 4.83 6.21 1-.81.92 1.19-3.67 2.85zm6.04-4.53l1.14-.64-3.86-6.86-1.14.64-.75-1.32 6.8-3.82 1.39 2.46-1.5.84-.55-1-2.41 1.35 1.54 2.73 3.1-1.74.79 1.4-3.1 1.74 1.45 2.57 1.26-.71.74 1.31-4.16 2.34zm9.23-4.85l1.22-.47-2.81-7.35-1.22.47-.54-1.42 4.34-1.66.54 1.42-1.24.47 2.81 7.39 1.24-.47.55 1.37-4.34 1.66zM310.63 29c1.3-.26 4.27-.39 4.61 1.29l.29 1.44-1.8.36-.17-.83c-.16-.8-1.63-.78-2.51-.6a3.53 3.53 0 0 0-2.83 4.42 3.73 3.73 0 0 0 4.48 3.23c.65-.13 2.28-.68 2.11-1.52l-.15-.79 1.79-.36.29 1.46c.32 1.59-2.33 2.66-3.81 3a5.57 5.57 0 0 1-6.72-4.43 5.49 5.49 0 0 1 4.42-6.67zm8.52 8.27h1l3.35-9.37h2.29l3.21 9.43h1v1.5h-4.11v-1.5H327l-.66-2h-3.45l-.69 2h1.08v1.5h-4.1v-1.5zm6.71-3.56l-1-3.09a4.63 4.63 0 0 1-.19-1 6.39 6.39 0 0 1-.21 1l-1.07 3.08zm6.4 3.91l1.28.28 1.7-7.69-1.24-.28.33-1.48 4.61 1a7.57 7.57 0 0 1 2.17.75 5 5 0 0 1 2.3 5.8 5 5 0 0 1-4.41 4.32 7.06 7.06 0 0 1-2.43-.21l-4.63-1zm4.56.9a4.63 4.63 0 0 0 1.8.12 3.57 3.57 0 0 0 2.75-3 3.55 3.55 0 0 0-1.28-4 4.43 4.43 0 0 0-1.61-.61l-1.29-.29-1.66 7.49zm17.51-4.05a5.52 5.52 0 0 1 2.75 7.44 5.66 5.66 0 1 1-10.24-4.83 5.52 5.52 0 0 1 7.49-2.61zm-4.06 8.59a3.75 3.75 0 0 0 4.93-2 3.59 3.59 0 1 0-6.48-3.06 3.74 3.74 0 0 0 1.55 5.07zm11.68 7.12l1 .88 5.27-5.85-1-.87 1-1.13 3.89 3.5a4.8 4.8 0 0 1 1.19 1.44 3.34 3.34 0 0 1-.71 3.7 3.39 3.39 0 0 1-3.76 1.07 5.28 5.28 0 0 1-1.39-1L366 50.65l-1.58 1.76 1 .89-1 1.12-3.45-3.11zm6.39.4a2.38 2.38 0 0 0 1 .58 2.06 2.06 0 0 0 2.3-2.41 2.27 2.27 0 0 0-.71-1l-1.27-1.14-2.55 2.83zm13.09 6.29a5.51 5.51 0 0 1-1.16 7.84 5.66 5.66 0 1 1-6.67-9.14 5.52 5.52 0 0 1 7.83 1.3zm-7.68 5.59A3.75 3.75 0 0 0 379 63a3.59 3.59 0 1 0-4.23-5.79 3.74 3.74 0 0 0-1.03 5.25zm4.51 6.98l.53 1.19 7.2-3.18-.53-1.2 1.39-.61L388.8 70a7.13 7.13 0 0 1 .63 2 2.85 2.85 0 0 1-1.85 3 3 3 0 0 1-3.6-.66 1.45 1.45 0 0 1-.3.72l-1.57 2.07a.71.71 0 0 0 0 .82l.14.32-1.38.61-.52-1.17a1.35 1.35 0 0 1 .13-1.72l1.94-2.55a1 1 0 0 0 .08-1.19l-.5-.85-2.44 1.08.51 1.15-1.38.61-1.8-4.24zm6 3a1.63 1.63 0 0 0 2.35.88 1.47 1.47 0 0 0 1-1.39 3.06 3.06 0 0 0-.31-1.21l-.6-1.35-3.2 1.41zm10.24 17.84c.16 1.31.07 4.28-1.63 4.49l-1.47.23-.23-1.81.83-.19c.81-.1.9-1.57.79-2.45a3.53 3.53 0 0 0-4.2-3.15 3.73 3.73 0 0 0-3.59 4.26c.08.66.51 2.32 1.36 2.22l.84-.1.23 1.82-1.48.18c-1.61.2-2.48-2.53-2.67-4a5.57 5.57 0 0 1 4.93-6.36 5.49 5.49 0 0 1 6.29 4.86zm.18 14.83a5.51 5.51 0 0 1-6.06 5.12 5.66 5.66 0 1 1 1-11.27 5.52 5.52 0 0 1 5.06 6.15zm-9.46-.88a3.75 3.75 0 0 0 3.6 3.94 3.59 3.59 0 1 0 .66-7.14 3.74 3.74 0 0 0-4.27 3.19zm-1.22 8.21l-.4 1.25 7.51 2.37.39-1.25 1.45.46-1.45 4.59a7.14 7.14 0 0 1-.85 1.91 2.85 2.85 0 0 1-3.39 1 3 3 0 0 1-2.26-2.88 1.46 1.46 0 0 1-.7.34l-2.55.52a.71.71 0 0 0-.56.6l-.11.34-1.43-.45.35-1.24a1.35 1.35 0 0 1 1.24-1.21l3.15-.63a1 1 0 0 0 .85-.84l.3-1-2.55-.8-.38 1.2-1.44-.45 1.38-4.37zm2.53 6.19a1.63 1.63 0 0 0 1.18 2.21 1.48 1.48 0 0 0 1.69-.37 3.08 3.08 0 0 0 .56-1.11l.45-1.41-3.34-1.06zm-6.53 5.43l-.64 1.14 6.88 3.84.64-1.14 1.33.74-2.35 4.2a7.14 7.14 0 0 1-1.21 1.7 2.85 2.85 0 0 1-3.53.34 3 3 0 0 1-1.64-3.27 1.45 1.45 0 0 1-.76.19h-2.6a.71.71 0 0 0-.67.47l-.17.31-1.31-.73.62-1.11a1.35 1.35 0 0 1 1.45-.93h3.21a1 1 0 0 0 1-.66l.49-.87-2.33-1.3-.62 1.1-1.31-.73 2.24-4zm1.23 6.57A1.63 1.63 0 0 0 382 133a1.48 1.48 0 0 0 1.73 0 3.05 3.05 0 0 0 .77-1l.72-1.29-3.06-1.7zm-7.5 3.98l-.84 1 6 5.08.84-1 1.16 1-5.23 6.19-2.15-1.81 1.11-1.32.92.77 2-2.34-2.29-1.93-2.32 2.75-1.23-1 2.3-2.8-2.35-2-2.12 2.52.94.79-1.11 1.32-2.16-1.83 5.38-6.37zm-7.35 8.45l-1 .81 4.89 6.17 1-.81.94 1.19-3.7 2.93a7.57 7.57 0 0 1-1.95 1.21 5.57 5.57 0 0 1-6.53-8 7.06 7.06 0 0 1 1.69-1.75l3.71-2.94zm-3.57 3a4.61 4.61 0 0 0-1.23 1.33 4.12 4.12 0 0 0 4.5 5.55 4.42 4.42 0 0 0 1.49-.87l1-.82-4.77-6zm-7.93 16.08a5.52 5.52 0 0 1-7.51-2.57 5.67 5.67 0 1 1 10.23-4.88 5.51 5.51 0 0 1-2.72 7.45zm-4.1-8.57a3.74 3.74 0 0 0-1.54 5.1 3.59 3.59 0 1 0 6.48-3.09 3.75 3.75 0 0 0-4.94-2.01zm-7.69 3.16l-1.27.3 1.81 7.66 1.27-.3.35 1.48-4.69 1.13a7.16 7.16 0 0 1-2.08.25 2.85 2.85 0 0 1-2.63-2.37 3 3 0 0 1 1.31-3.42 1.45 1.45 0 0 1-.65-.43l-1.75-1.92a.72.72 0 0 0-.8-.17l-.34.08-.35-1.46 1.24-.29a1.35 1.35 0 0 1 1.67.44l2.16 2.38a1 1 0 0 0 1.16.29l1-.23-.61-2.6-1.23.29-.35-1.46 4.46-1.05zm-4 5.35a1.63 1.63 0 0 0-1.3 2.15 1.48 1.48 0 0 0 1.21 1.27 3.07 3.07 0 0 0 1.24-.09l1.44-.34-.8-3.41zm-13.41-2.48l-1.31-.06-.37 7.86 1.31.06-.08 1.54-5.23-.26a4.81 4.81 0 0 1-1.83-.37 3.35 3.35 0 0 1-1.8-3.31 3.38 3.38 0 0 1 2.24-3.21 5.28 5.28 0 0 1 1.69-.13l2 .09.12-2.36-1.32-.06.07-1.5 4.64.23zm-5.2 3.72a2.37 2.37 0 0 0-1.12.16 2.06 2.06 0 0 0-.25 3.32 2.26 2.26 0 0 0 1.17.32l1.71.08.18-3.8zm-9.27 2.9l1.27.33-.39 1.45-4.5-1.17.38-1.47 1.28.33 1.33-5.11a3.08 3.08 0 0 0 0-1.59 2.34 2.34 0 0 0-1.75-1.45 2.29 2.29 0 0 0-2.23.43 3 3 0 0 0-.75 1.41l-1.33 5.09 1.27.33-.38 1.47-4.41-1.14.38-1.47 1.27.33 1.33-5.11a4.68 4.68 0 0 1 1.46-2.44 5 5 0 0 1 7 1.81 4.28 4.28 0 0 1 .1 2.86zm-5.93 2.93l-2.06-.53 2.54-1.5 1.65.43zM300.95 155l-1.17-.59-3.54 7 1.17.59-.68 1.36-4.48-2.25a5 5 0 0 1-1.61-1.14 2.6 2.6 0 0 1-.35-3 2.56 2.56 0 0 1 2.24-1.48 2.52 2.52 0 0 1-.42-3.1 3 3 0 0 1 3.27-1.67 5.73 5.73 0 0 1 1.54.57l4.7 2.36zm-6.95 2.06a1.29 1.29 0 0 0-1.84.67 1.33 1.33 0 0 0 0 1.39 2.15 2.15 0 0 0 .76.57l1.51.76 1.28-2.53zm2.08-4.36a2.21 2.21 0 0 0-.76-.24 1.6 1.6 0 0 0-1.47 1 1.47 1.47 0 0 0 .7 2.12l1.88.95 1.46-2.89zm-5.66-3.35l-1-.79-4.72 6.19 1 .79-1 1.28L281 154l1-1.28 1.05.8 4.65-6.1-2.57-2-1 1.34-1.37-1 2-2.62 6.59 5zm-8.42-6.82l-.91-.94-5.65 5.49.91.94-1.09 1.06-3.26-3.34 1.09-1.06.92.95 5.65-5.49-.92-.95 1.08-1 3.24 3.33zm-16.2-4.44c-.75-1.09-2.05-3.76-.64-4.74l1.21-.84 1 1.5-.69.48c-.67.46-.07 1.81.44 2.54a3.54 3.54 0 0 0 5.18.84 3.73 3.73 0 0 0 1.19-5.39c-.38-.54-1.53-1.82-2.23-1.33l-.69.48-1-1.5 1.22-.85c1.34-.93 3.37 1.09 4.23 2.33a5.56 5.56 0 0 1-1.41 7.92 5.5 5.5 0 0 1-7.81-1.44zM258.76 125a5.51 5.51 0 0 1 3-7.34 5.66 5.66 0 1 1 4.28 10.48 5.52 5.52 0 0 1-7.28-3.14zm8.8-3.59a3.75 3.75 0 0 0-5-1.83 3.59 3.59 0 1 0 2.71 6.64 3.74 3.74 0 0 0 2.3-4.8z" transform="translate(-254.5 -27.9)"/><path class="cls-1" d="M324.25 129.94a31.39 31.39 0 1 1 31.39-31.39 31.43 31.43 0 0 1-31.39 31.39zm0-60.79a29.39 29.39 0 1 0 29.39 29.39 29.43 29.43 0 0 0-29.39-29.39z" transform="translate(-254.5 -27.9)"/><path class="cls-1" d="M322.3 115.28a2.5 2.5 0 0 1-1.68-.65l-11.08-10a2.5 2.5 0 1 1 3.36-3.71l8.93 8.09 15-22.59a2.5 2.5 0 0 1 4.17 2.73l-16.59 25a2.5 2.5 0 0 1-1.77 1.1z" transform="translate(-254.5 -27.9)"/></svg>