<svg xmlns="http://www.w3.org/2000/svg" width="180" height="25" viewBox="0 0 180 25">
  <g fill="none">
    <g fill="#3C029B" transform="translate(0 1)">
      <path d="M3.2 13.1C1.6 13.1.5 12.1.5 10.5.5 9 1.6 7.9 3.2 7.9 4.8 7.9 5.9 9 5.9 10.5 5.9 12.1 4.8 13.1 3.2 13.1zM3.2 22.2C1.6 22.2.5 21.1.5 19.6.5 18 1.6 17 3.2 17 4.8 17 5.9 18 5.9 19.6 5.9 21.2 4.8 22.2 3.2 22.2zM14.9 23.1C13 23.1 11.3 22.7 9.9 22 8.3 21.1 8.3 20 8.3 18.9L8.3 1.8C8.3.6 9 0 10.6 0 12.1 0 12.9.6 12.9 1.8L12.9 8.3C13.7 7.7 14.9 7.5 16.1 7.5 20.2 7.5 23.1 10.2 23.1 15.1 23.2 20 20.2 23.1 14.9 23.1zM15 19.5C17.2 19.5 18.5 18 18.5 15.3 18.5 12.6 17.1 11 15 11 14.2 11 13.4 11.2 12.9 11.7L12.9 19C13.5 19.3 14.2 19.5 15 19.5zM31.9 11.1C31.1 11.1 30.1 11.3 29.1 11.8 28.5 12.1 28.1 12.3 27.7 12.3 26.7 12.3 26 11.1 26 10.2 26 9.6 26.4 9.1 27.2 8.6 28.6 7.8 30.4 7.5 32.3 7.5 34.7 7.5 36.5 8.1 37.5 9.3 38.2 10.1 38.5 11.4 38.5 13.1L38.5 21.4C38.5 22.7 37.9 23.3 36.3 23.3 34.9 23.3 34.4 22.9 34.4 21.9L34.4 21.6C33.4 22.7 32 23.3 30.2 23.3 27.1 23.3 25.2 21.6 25.2 18.9 25.2 15.9 27.6 14.1 34.1 13.6L34.1 13.4C34.3 11.8 33.7 11.1 31.9 11.1zM29.9 18.3C29.9 19.1 30.4 19.7 31.7 19.7 32.6 19.7 33.5 19.4 34.2 18.8L34.2 16C31.4 16.4 29.9 17 29.9 18.3zM46.8 9.3L46.8 9.7C47.6 8.3 49.2 7.5 51.3 7.5 53.6 7.5 55 8.4 55.9 10.2 56.7 8.5 58.5 7.5 60.8 7.5 62.7 7.5 64.1 8.2 65 9.6 65.6 10.5 65.9 11.9 65.9 13.5L65.9 21.3C65.9 22.5 65.2 23.1 63.6 23.1 62.1 23.1 61.3 22.5 61.3 21.3L61.3 14.2C61.3 13.4 61.2 12.7 60.9 12.3 60.5 11.7 59.9 11.4 58.9 11.4 57.8 11.4 56.9 11.8 56.4 12.6L56.4 21.3C56.4 22.5 55.7 23.1 54.1 23.1 52.5 23.1 51.8 22.5 51.8 21.3L51.8 14.2C51.8 13.4 51.7 12.8 51.4 12.3 51 11.7 50.3 11.4 49.4 11.4 48.3 11.4 47.4 11.8 46.9 12.6L46.9 21.3C46.9 22.5 46.2 23.1 44.6 23.1 43.1 23.1 42.3 22.5 42.3 21.3L42.3 9.3C42.3 8.1 43 7.5 44.5 7.5 46.2 7.4 46.8 8.2 46.8 9.3zM76.2 23.1C74.3 23.1 72.6 22.7 71.2 22 69.6 21.1 69.6 20 69.6 18.9L69.6 1.8C69.6.6 70.3 0 71.9 0 73.4 0 74.2.6 74.2 1.8L74.2 8.3C75 7.7 76.2 7.5 77.4 7.5 81.5 7.5 84.4 10.2 84.4 15.1 84.4 20 81.5 23.1 76.2 23.1zM76.3 19.5C78.5 19.5 79.8 18 79.8 15.3 79.8 12.6 78.4 11 76.3 11 75.5 11 74.7 11.2 74.2 11.7L74.2 19C74.8 19.3 75.5 19.5 76.3 19.5zM89.8 5.6C88.2 5.6 87.1 4.5 87.1 3 87.1 1.4 88.2.4 89.8.4 91.4.4 92.5 1.4 92.5 3 92.5 4.5 91.4 5.6 89.8 5.6zM92.1 21.3C92.1 22.5 91.4 23.1 89.8 23.1 88.3 23.1 87.5 22.5 87.5 21.3L87.5 9.3C87.5 8.1 88.2 7.5 89.8 7.5 91.3 7.5 92.1 8.1 92.1 9.3L92.1 21.3zM100.4 9.3L100.4 9.7C101.3 8.3 102.8 7.5 105 7.5 106.9 7.5 108.4 8.1 109.4 9.6 110 10.5 110.3 11.9 110.3 13.5L110.3 21.3C110.3 22.5 109.6 23.1 108 23.1 106.4 23.1 105.7 22.5 105.7 21.3L105.7 14.2C105.7 13.4 105.6 12.8 105.3 12.4 104.9 11.8 104.2 11.5 103.2 11.5 102.1 11.5 101.2 11.9 100.6 12.6L100.6 21.3C100.6 22.5 99.9 23.1 98.3 23.1 96.8 23.1 96 22.5 96 21.3L96 9.3C96 8.1 96.7 7.5 98.2 7.5 99.8 7.4 100.4 8.2 100.4 9.3zM116.3 5.6C114.7 5.6 113.6 4.5 113.6 3 113.6 1.4 114.7.4 116.3.4 117.9.4 119 1.4 119 3 119 4.5 117.8 5.6 116.3 5.6zM118.6 21.3C118.6 22.5 117.9 23.1 116.3 23.1 114.8 23.1 114 22.5 114 21.3L114 9.3C114 8.1 114.7 7.5 116.3 7.5 117.8 7.5 118.6 8.1 118.6 9.3L118.6 21.3z"/>
    </g>
    <path fill="#FFF" d="M123.4 24.2C122.7 24.2 122.3 23.8 122.3 23.1 122.3 22.5 122.7 22 123.4 22 124 22 124.5 22.5 124.5 23.1 124.5 23.7 124 24.2 123.4 24.2zM134.2 23C135.4 23 136.6 22.6 137.5 21.9 138 21.5 138.2 21.2 138.5 21.2 138.8 21.2 139.1 21.5 139.1 21.8 139.1 22.1 138.7 22.5 138.4 22.8 137.3 23.7 135.9 24.3 134.2 24.3 130.1 24.3 127.4 21.2 127.4 16.7 127.4 12.1 130.2 9.1 134.2 9.1 135.9 9.1 137.1 9.6 138.4 10.5 138.9 10.9 139.2 11.2 139.2 11.5 139.2 11.8 138.9 12.1 138.6 12.1 138.3 12.1 138.2 11.8 137.6 11.4 136.7 10.7 135.7 10.3 134.3 10.3 131 10.3 128.9 12.9 128.9 16.6 128.8 20.3 130.9 23 134.2 23zM144.8 23.4C144.8 23.8 144.6 24 144.2 24 143.7 24 143.5 23.8 143.5 23.4L143.5 1.3C143.5.9 143.7.7 144.1.7 144.6.7 144.8.9 144.8 1.3L144.8 23.4zM160.3 23.4L160.3 21.7C159.3 23.3 157.5 24.2 155.4 24.2 153.6 24.2 152.2 23.6 151.3 22.3 150.6 21.4 150.3 20 150.3 18.3L150.3 9.8C150.3 9.4 150.5 9.2 150.9 9.2 151.4 9.2 151.6 9.4 151.6 9.8L151.6 18.2C151.6 19.4 151.8 20.7 152.4 21.6 153.1 22.5 154.1 23.1 155.6 23.1 157.5 23.1 159.2 22.3 160.3 20.5L160.3 9.8C160.3 9.4 160.5 9.2 160.9 9.2 161.4 9.2 161.6 9.4 161.6 9.8L161.6 23.5C161.6 23.9 161.4 24.1 160.9 24.1 160.5 24.1 160.3 23.8 160.3 23.4zM172.7 24.2C170.8 24.2 169.1 23.6 168.2 23.1 167.4 22.6 167.4 22.1 167.4 21.5L167.4 1.3C167.4.9 167.6.7 168 .7 168.5.7 168.7.9 168.7 1.3L168.7 10.5C169.9 9.5 171.4 8.9 173.1 8.9 177.3 8.9 180 11.8 180 16.4 179.9 21.2 177 24.2 172.7 24.2zM172.6 23C176.2 23 178.4 20.4 178.4 16.5 178.4 12.8 176.4 10.1 172.8 10.1 171.2 10.1 169.8 10.6 168.6 11.7L168.6 21.9C169.7 22.6 171.1 23 172.6 23z"/>
  </g>
</svg>
