<svg xmlns="http://www.w3.org/2000/svg" width="180" height="25" viewBox="0 0 180 25">
  <g fill="none">
    <path fill="#6E00FF" d="M3.2,14.1 C1.6,14.1 0.5,13.1 0.5,11.5 C0.5,10 1.6,8.9 3.2,8.9 C4.8,8.9 5.9,10 5.9,11.5 C5.9,13.1 4.8,14.1 3.2,14.1 Z M3.2,23.2 C1.6,23.2 0.5,22.1 0.5,20.6 C0.5,19 1.6,18 3.2,18 C4.8,18 5.9,19 5.9,20.6 C5.9,22.2 4.8,23.2 3.2,23.2 Z M14.9,24.1 C13,24.1 11.3,23.7 9.9,23 C8.3,22.1 8.3,21 8.3,19.9 L8.3,2.8 C8.3,1.6 9,1 10.6,1 C12.1,1 12.9,1.6 12.9,2.8 L12.9,9.3 C13.7,8.7 14.9,8.5 16.1,8.5 C20.2,8.5 23.1,11.2 23.1,16.1 C23.2,21 20.2,24.1 14.9,24.1 Z M15,20.5 C17.2,20.5 18.5,19 18.5,16.3 C18.5,13.6 17.1,12 15,12 C14.2,12 13.4,12.2 12.9,12.7 L12.9,20 C13.5,20.3 14.2,20.5 15,20.5 Z M31.9,12.1 C31.1,12.1 30.1,12.3 29.1,12.8 C28.5,13.1 28.1,13.3 27.7,13.3 C26.7,13.3 26,12.1 26,11.2 C26,10.6 26.4,10.1 27.2,9.6 C28.6,8.8 30.4,8.5 32.3,8.5 C34.7,8.5 36.5,9.1 37.5,10.3 C38.2,11.1 38.5,12.4 38.5,14.1 L38.5,22.4 C38.5,23.7 37.9,24.3 36.3,24.3 C34.9,24.3 34.4,23.9 34.4,22.9 L34.4,22.6 C33.4,23.7 32,24.3 30.2,24.3 C27.1,24.3 25.2,22.6 25.2,19.9 C25.2,16.9 27.6,15.1 34.1,14.6 L34.1,14.4 C34.3,12.8 33.7,12.1 31.9,12.1 Z M29.9,19.3 C29.9,20.1 30.4,20.7 31.7,20.7 C32.6,20.7 33.5,20.4 34.2,19.8 L34.2,17 C31.4,17.4 29.9,18 29.9,19.3 Z M46.8,10.3 L46.8,10.7 C47.6,9.3 49.2,8.5 51.3,8.5 C53.6,8.5 55,9.4 55.9,11.2 C56.7,9.5 58.5,8.5 60.8,8.5 C62.7,8.5 64.1,9.2 65,10.6 C65.6,11.5 65.9,12.9 65.9,14.5 L65.9,22.3 C65.9,23.5 65.2,24.1 63.6,24.1 C62.1,24.1 61.3,23.5 61.3,22.3 L61.3,15.2 C61.3,14.4 61.2,13.7 60.9,13.3 C60.5,12.7 59.9,12.4 58.9,12.4 C57.8,12.4 56.9,12.8 56.4,13.6 L56.4,22.3 C56.4,23.5 55.7,24.1 54.1,24.1 C52.5,24.1 51.8,23.5 51.8,22.3 L51.8,15.2 C51.8,14.4 51.7,13.8 51.4,13.3 C51,12.7 50.3,12.4 49.4,12.4 C48.3,12.4 47.4,12.8 46.9,13.6 L46.9,22.3 C46.9,23.5 46.2,24.1 44.6,24.1 C43.1,24.1 42.3,23.5 42.3,22.3 L42.3,10.3 C42.3,9.1 43,8.5 44.5,8.5 C46.2,8.4 46.8,9.2 46.8,10.3 Z M76.2,24.1 C74.3,24.1 72.6,23.7 71.2,23 C69.6,22.1 69.6,21 69.6,19.9 L69.6,2.8 C69.6,1.6 70.3,1 71.9,1 C73.4,1 74.2,1.6 74.2,2.8 L74.2,9.3 C75,8.7 76.2,8.5 77.4,8.5 C81.5,8.5 84.4,11.2 84.4,16.1 C84.4,21 81.5,24.1 76.2,24.1 Z M76.3,20.5 C78.5,20.5 79.8,19 79.8,16.3 C79.8,13.6 78.4,12 76.3,12 C75.5,12 74.7,12.2 74.2,12.7 L74.2,20 C74.8,20.3 75.5,20.5 76.3,20.5 Z M89.8,6.6 C88.2,6.6 87.1,5.5 87.1,4 C87.1,2.4 88.2,1.4 89.8,1.4 C91.4,1.4 92.5,2.4 92.5,4 C92.5,5.5 91.4,6.6 89.8,6.6 Z M92.1,22.3 C92.1,23.5 91.4,24.1 89.8,24.1 C88.3,24.1 87.5,23.5 87.5,22.3 L87.5,10.3 C87.5,9.1 88.2,8.5 89.8,8.5 C91.3,8.5 92.1,9.1 92.1,10.3 L92.1,22.3 Z M100.4,10.3 L100.4,10.7 C101.3,9.3 102.8,8.5 105,8.5 C106.9,8.5 108.4,9.1 109.4,10.6 C110,11.5 110.3,12.9 110.3,14.5 L110.3,22.3 C110.3,23.5 109.6,24.1 108,24.1 C106.4,24.1 105.7,23.5 105.7,22.3 L105.7,15.2 C105.7,14.4 105.6,13.8 105.3,13.4 C104.9,12.8 104.2,12.5 103.2,12.5 C102.1,12.5 101.2,12.9 100.6,13.6 L100.6,22.3 C100.6,23.5 99.9,24.1 98.3,24.1 C96.8,24.1 96,23.5 96,22.3 L96,10.3 C96,9.1 96.7,8.5 98.2,8.5 C99.8,8.4 100.4,9.2 100.4,10.3 Z M116.3,6.6 C114.7,6.6 113.6,5.5 113.6,4 C113.6,2.4 114.7,1.4 116.3,1.4 C117.9,1.4 119,2.4 119,4 C119,5.5 117.8,6.6 116.3,6.6 Z M118.6,22.3 C118.6,23.5 117.9,24.1 116.3,24.1 C114.8,24.1 114,23.5 114,22.3 L114,10.3 C114,9.1 114.7,8.5 116.3,8.5 C117.8,8.5 118.6,9.1 118.6,10.3 L118.6,22.3 Z"/>
    <path fill="#666" d="M123.4,24.2 C122.7,24.2 122.3,23.8 122.3,23.1 C122.3,22.5 122.7,22 123.4,22 C124,22 124.5,22.5 124.5,23.1 C124.5,23.7 124,24.2 123.4,24.2 Z M134.2,23 C135.4,23 136.6,22.6 137.5,21.9 C138,21.5 138.2,21.2 138.5,21.2 C138.8,21.2 139.1,21.5 139.1,21.8 C139.1,22.1 138.7,22.5 138.4,22.8 C137.3,23.7 135.9,24.3 134.2,24.3 C130.1,24.3 127.4,21.2 127.4,16.7 C127.4,12.1 130.2,9.1 134.2,9.1 C135.9,9.1 137.1,9.6 138.4,10.5 C138.9,10.9 139.2,11.2 139.2,11.5 C139.2,11.8 138.9,12.1 138.6,12.1 C138.3,12.1 138.2,11.8 137.6,11.4 C136.7,10.7 135.7,10.3 134.3,10.3 C131,10.3 128.9,12.9 128.9,16.6 C128.8,20.3 130.9,23 134.2,23 Z M144.8,23.4 C144.8,23.8 144.6,24 144.2,24 C143.7,24 143.5,23.8 143.5,23.4 L143.5,1.3 C143.5,0.9 143.7,0.7 144.1,0.7 C144.6,0.7 144.8,0.9 144.8,1.3 L144.8,23.4 Z M160.3,23.4 L160.3,21.7 C159.3,23.3 157.5,24.2 155.4,24.2 C153.6,24.2 152.2,23.6 151.3,22.3 C150.6,21.4 150.3,20 150.3,18.3 L150.3,9.8 C150.3,9.4 150.5,9.2 150.9,9.2 C151.4,9.2 151.6,9.4 151.6,9.8 L151.6,18.2 C151.6,19.4 151.8,20.7 152.4,21.6 C153.1,22.5 154.1,23.1 155.6,23.1 C157.5,23.1 159.2,22.3 160.3,20.5 L160.3,9.8 C160.3,9.4 160.5,9.2 160.9,9.2 C161.4,9.2 161.6,9.4 161.6,9.8 L161.6,23.5 C161.6,23.9 161.4,24.1 160.9,24.1 C160.5,24.1 160.3,23.8 160.3,23.4 Z M172.7,24.2 C170.8,24.2 169.1,23.6 168.2,23.1 C167.4,22.6 167.4,22.1 167.4,21.5 L167.4,1.3 C167.4,0.9 167.6,0.7 168,0.7 C168.5,0.7 168.7,0.9 168.7,1.3 L168.7,10.5 C169.9,9.5 171.4,8.9 173.1,8.9 C177.3,8.9 180,11.8 180,16.4 C179.9,21.2 177,24.2 172.7,24.2 Z M172.6,23 C176.2,23 178.4,20.4 178.4,16.5 C178.4,12.8 176.4,10.1 172.8,10.1 C171.2,10.1 169.8,10.6 168.6,11.7 L168.6,21.9 C169.7,22.6 171.1,23 172.6,23 Z"/>
  </g>
</svg>
