<svg xmlns="http://www.w3.org/2000/svg" width="180" height="25" viewBox="0 0 180 25"><g fill="none"><path fill="#C42DFF" d="M3.2 14.1c-1.6 0-2.7-1-2.7-2.6 0-1.5 1.1-2.6 2.7-2.6s2.7 1.1 2.7 2.6c0 1.6-1.1 2.6-2.7 2.6zm0 9.1c-1.6 0-2.7-1.1-2.7-2.6C.5 19 1.6 18 3.2 18s2.7 1 2.7 2.6-1.1 2.6-2.7 2.6zm11.7.9c-1.9 0-3.6-.4-5-1.1-1.6-.9-1.6-2-1.6-3.1V2.8C8.3 1.6 9 1 10.6 1c1.5 0 2.3.6 2.3 1.8v6.5c.8-.6 2-.8 3.2-.8 4.1 0 7 2.7 7 7.6.1 4.9-2.9 8-8.2 8zm.1-3.6c2.2 0 3.5-1.5 3.5-4.2S17.1 12 15 12c-.8 0-1.6.2-2.1.7V20c.6.3 1.3.5 2.1.5zm16.9-8.4c-.8 0-1.8.2-2.8.7-.6.3-1 .5-1.4.5-1 0-1.7-1.2-1.7-2.1 0-.6.4-1.1 1.2-1.6 1.4-.8 3.2-1.1 5.1-1.1 2.4 0 4.2.6 5.2 1.8.7.8 1 2.1 1 3.8v8.3c0 1.3-.6 1.9-2.2 1.9-1.4 0-1.9-.4-1.9-1.4v-.3c-1 1.1-2.4 1.7-4.2 1.7-3.1 0-5-1.7-5-4.4 0-3 2.4-4.8 8.9-5.3v-.2c.2-1.6-.4-2.3-2.2-2.3zm-2 7.2c0 .8.5 1.4 1.8 1.4.9 0 1.8-.3 2.5-.9V17c-2.8.4-4.3 1-4.3 2.3zm16.9-9v.4c.8-1.4 2.4-2.2 4.5-2.2 2.3 0 3.7.9 4.6 2.7.8-1.7 2.6-2.7 4.9-2.7 1.9 0 3.3.7 4.2 2.1.6.9.9 2.3.9 3.9v7.8c0 1.2-.7 1.8-2.3 1.8-1.5 0-2.3-.6-2.3-1.8v-7.1c0-.8-.1-1.5-.4-1.9-.4-.6-1-.9-2-.9-1.1 0-2 .4-2.5 1.2v8.7c0 1.2-.7 1.8-2.3 1.8-1.6 0-2.3-.6-2.3-1.8v-7.1c0-.8-.1-1.4-.4-1.9-.4-.6-1.1-.9-2-.9-1.1 0-2 .4-2.5 1.2v8.7c0 1.2-.7 1.8-2.3 1.8-1.5 0-2.3-.6-2.3-1.8v-12c0-1.2.7-1.8 2.2-1.8 1.7-.1 2.3.7 2.3 1.8zm29.4 13.8c-1.9 0-3.6-.4-5-1.1-1.6-.9-1.6-2-1.6-3.1V2.8c0-1.2.7-1.8 2.3-1.8 1.5 0 2.3.6 2.3 1.8v6.5c.8-.6 2-.8 3.2-.8 4.1 0 7 2.7 7 7.6 0 4.9-2.9 8-8.2 8zm.1-3.6c2.2 0 3.5-1.5 3.5-4.2S78.4 12 76.3 12c-.8 0-1.6.2-2.1.7V20c.6.3 1.3.5 2.1.5zM89.8 6.6c-1.6 0-2.7-1.1-2.7-2.6 0-1.6 1.1-2.6 2.7-2.6s2.7 1 2.7 2.6c0 1.5-1.1 2.6-2.7 2.6zm2.3 15.7c0 1.2-.7 1.8-2.3 1.8-1.5 0-2.3-.6-2.3-1.8v-12c0-1.2.7-1.8 2.3-1.8 1.5 0 2.3.6 2.3 1.8v12zm8.3-12v.4c.9-1.4 2.4-2.2 4.6-2.2 1.9 0 3.4.6 4.4 2.1.6.9.9 2.3.9 3.9v7.8c0 1.2-.7 1.8-2.3 1.8-1.6 0-2.3-.6-2.3-1.8v-7.1c0-.8-.1-1.4-.4-1.8-.4-.6-1.1-.9-2.1-.9-1.1 0-2 .4-2.6 1.1v8.7c0 1.2-.7 1.8-2.3 1.8-1.5 0-2.3-.6-2.3-1.8v-12c0-1.2.7-1.8 2.2-1.8 1.6-.1 2.2.7 2.2 1.8zm15.9-3.7c-1.6 0-2.7-1.1-2.7-2.6 0-1.6 1.1-2.6 2.7-2.6s2.7 1 2.7 2.6c0 1.5-1.2 2.6-2.7 2.6zm2.3 15.7c0 1.2-.7 1.8-2.3 1.8-1.5 0-2.3-.6-2.3-1.8v-12c0-1.2.7-1.8 2.3-1.8 1.5 0 2.3.6 2.3 1.8v12z"/><path fill="#666" d="M123.4 24.2c-.7 0-1.1-.4-1.1-1.1 0-.6.4-1.1 1.1-1.1.6 0 1.1.5 1.1 1.1 0 .6-.5 1.1-1.1 1.1zm10.8-1.2c1.2 0 2.4-.4 3.3-1.1.5-.4.7-.7 1-.7.3 0 .6.3.6.6s-.4.7-.7 1c-1.1.9-2.5 1.5-4.2 1.5-4.1 0-6.8-3.1-6.8-7.6 0-4.6 2.8-7.6 6.8-7.6 1.7 0 2.9.5 4.2 1.4.5.4.8.7.8 1 0 .3-.3.6-.6.6s-.4-.3-1-.7c-.9-.7-1.9-1.1-3.3-1.1-3.3 0-5.4 2.6-5.4 6.3-.1 3.7 2 6.4 5.3 6.4zm10.6.4c0 .4-.2.6-.6.6-.5 0-.7-.2-.7-.6V1.3c0-.4.2-.6.6-.6.5 0 .7.2.7.6v22.1zm15.5 0v-1.7c-1 1.6-2.8 2.5-4.9 2.5-1.8 0-3.2-.6-4.1-1.9-.7-.9-1-2.3-1-4V9.8c0-.4.2-.6.6-.6.5 0 .7.2.7.6v8.4c0 1.2.2 2.5.8 3.4.7.9 1.7 1.5 3.2 1.5 1.9 0 3.6-.8 4.7-2.6V9.8c0-.4.2-.6.6-.6.5 0 .7.2.7.6v13.7c0 .4-.2.6-.7.6-.4 0-.6-.3-.6-.7zm12.4.8c-1.9 0-3.6-.6-4.5-1.1-.8-.5-.8-1-.8-1.6V1.3c0-.4.2-.6.6-.6.5 0 .7.2.7.6v9.2c1.2-1 2.7-1.6 4.4-1.6 4.2 0 6.9 2.9 6.9 7.5-.1 4.8-3 7.8-7.3 7.8zm-.1-1.2c3.6 0 5.8-2.6 5.8-6.5 0-3.7-2-6.4-5.6-6.4-1.6 0-3 .5-4.2 1.6v10.2c1.1.7 2.5 1.1 4 1.1z"/></g></svg>