<svg xmlns="http://www.w3.org/2000/svg" xmlns:xlink="http://www.w3.org/1999/xlink" width="700" height="400" viewBox="0 0 700 400">
  <defs>
    <rect id="slide2-a" width="700" height="400"/>
  </defs>
  <g fill="none" fill-rule="evenodd">
    <mask id="slide2-b" fill="#fff">
      <use xlink:href="#slide2-a"/>
    </mask>
    <use fill="#C42DFF" xlink:href="#slide2-a"/>
    <g fill="#FFF" fill-rule="nonzero" mask="url(#slide2-b)" opacity=".2">
      <path d="M133.484863,0.610416624 C99.3429432,0.610416624 65.2055954,13.6222051 39.2179179,39.6320513 C-12.7660466,91.6517436 -12.7660466,176.275816 39.2179179,228.295509 L224.371911,413.576764 C227.256083,416.462918 230.76525,418.437728 234.562025,419.600805 C233.847439,438.063574 237.844247,456.364529 246.315963,473.009452 L248.602861,477.519072 C259.003089,497.946149 261.366259,521.325072 255.244928,543.345995 C253.970726,547.929379 256.642752,552.671881 261.214379,553.946958 C261.989231,554.162343 262.768664,554.266667 263.534898,554.266667 C267.305853,554.266667 270.765912,551.764569 271.824876,547.956569 C279.099876,521.757185 276.31028,493.964497 263.938475,469.677728 L261.651577,465.184934 C254.264662,450.685241 250.927013,434.692934 251.848226,418.608011 C254.551599,417.393241 257.077797,415.739225 259.230164,413.576764 L444.232829,228.295509 C496.216793,176.275816 496.216793,91.6517436 444.232829,39.6320513 C392.248864,-12.3790256 307.674699,-12.3704103 255.682125,39.6320513 L244.617616,50.7041662 C244.617616,50.7041662 244.600802,50.7041662 244.600802,50.7041662 L241.725369,53.5983979 L227.768621,39.6320513 C201.776639,13.6222051 167.626782,0.610416624 133.484863,0.610416624 Z M133.501677,17.824359 C163.230168,17.824359 192.960002,29.1566861 215.594292,51.7979169 L229.551048,65.7810893 L220.067177,75.2714748 C216.700876,78.6400902 216.700876,84.0855509 220.067177,87.4541662 C221.746023,89.1341645 223.950323,89.9782051 226.154346,89.9782051 C228.35837,89.9782051 230.562661,89.1341645 232.241507,87.4541662 L241.725369,77.9637825 L267.856454,51.8147436 C313.116425,6.52366667 386.78131,6.51505128 432.058499,51.8147436 C477.327079,97.1144402 477.327079,170.821339 432.058499,216.129646 L247.055843,401.394067 C244.257766,404.202683 239.352927,404.202683 236.54624,401.394067 L51.4090581,216.112821 C6.14047824,170.813128 6.14047824,97.0976057 51.4090581,51.7979169 C74.0433515,29.1480707 103.764576,17.824359 133.501677,17.824359 Z M414.150135,154.644067 C411.948264,154.644067 409.746126,155.4838 408.062975,157.168108 C404.696673,160.536723 404.696673,165.982189 408.062975,169.350805 L420.237296,181.533493 C421.916142,183.213493 424.120441,184.057533 426.324465,184.057533 C428.528488,184.057533 430.732779,183.213493 432.411625,181.533493 C435.769317,178.173493 435.769317,172.71942 432.411625,169.350805 L420.237296,157.168108 C418.554145,155.4838 416.352007,154.644067 414.150135,154.644067 Z M383.714325,185.100805 C381.512453,185.100805 379.310315,185.940529 377.627164,187.624837 C374.260863,190.993452 374.260863,196.438918 377.627164,199.807533 L389.801485,211.990221 C391.480331,213.670221 393.684622,214.514262 395.888646,214.514262 C398.092669,214.514262 400.296968,213.670221 401.975815,211.990221 C405.342116,208.621606 405.342116,203.176149 401.975815,199.807533 L389.801485,187.624837 C388.118334,185.940529 385.916196,185.100805 383.714325,185.100805 Z M353.2617,215.557533 C351.05982,215.557533 348.857682,216.397266 347.174531,218.081574 C343.808229,221.450189 343.808229,226.895646 347.174531,230.264262 L359.34886,242.446958 C361.027706,244.126958 363.231997,244.97099 365.436021,244.97099 C367.640044,244.97099 369.844335,244.126958 371.523181,242.446958 C374.889483,239.078343 374.889483,233.632877 371.523181,230.264262 L359.34886,218.081574 C357.665709,216.397266 355.463571,215.557533 353.2617,215.557533 Z M322.825881,246.031088 C320.624009,246.031088 318.421871,246.870821 316.73872,248.555128 C313.372419,251.923744 313.372419,257.369201 316.73872,260.737825 L328.929864,272.920513 C330.60871,274.600513 332.813001,275.444553 335.017024,275.444553 C337.221048,275.444553 339.425339,274.600513 341.104185,272.920513 C344.470487,269.551897 344.470487,264.10644 341.104185,260.737825 L328.913041,248.555128 C327.229899,246.870821 325.027752,246.031088 322.825881,246.031088 Z M292.39007,276.47099 C290.188199,276.47099 287.986061,277.327549 286.30291,279.011857 C282.936608,282.380472 282.936608,287.825938 286.30291,291.194553 L298.477231,303.377241 C300.156077,305.057241 302.360367,305.901282 304.5644,305.901282 C306.768423,305.901282 308.972714,305.057241 310.65156,303.377241 C314.017862,300.008626 314.017862,294.563169 310.65156,291.194553 L298.477231,279.011857 C296.79408,277.327549 294.591942,276.47099 292.39007,276.47099 Z M261.95426,306.944553 C259.752388,306.944553 257.55025,307.784278 255.867099,309.468594 C252.500798,312.837201 252.500789,318.282667 255.867099,321.651282 L268.04142,333.83397 C269.720266,335.513979 271.924557,336.358011 274.128581,336.358011 C276.332604,336.358011 278.536895,335.513979 280.215741,333.83397 C283.582043,330.465363 283.582051,325.019897 280.215741,321.651282 L268.04142,309.468594 C266.358269,307.784286 264.156131,306.944553 261.95426,306.944553 Z M231.518441,337.401282 C229.316578,337.401282 227.114431,338.241015 225.43128,339.925323 C222.064978,343.293938 222.064978,348.739395 225.43128,352.108011 L237.60561,364.290707 C239.284456,365.970707 241.488746,366.814739 243.69277,366.814748 C245.896794,366.814748 248.101084,365.970707 249.77993,364.290707 C253.146232,360.922092 253.146232,355.476626 249.77993,352.108011 L237.60561,339.925323 C235.922459,338.241015 233.720312,337.401282 231.518441,337.401282 Z" transform="translate(351 28)"/>
    </g>
    <g fill="#FFF" fill-rule="nonzero" mask="url(#slide2-b)">
      <path d="M35.7794477,0.699218738 C26.6280054,0.699218738 17.4777885,4.18451923 10.5120192,11.1514423 C-3.42182692,25.0852885 -3.42182692,47.7524508 10.5120192,61.6862969 L60.1409246,111.315205 C60.9140015,112.088282 61.8546031,112.617248 62.8722954,112.928787 C62.6807569,117.874172 63.7520662,122.776213 66.0228354,127.234675 L66.6358185,128.442608 C69.4235085,133.914147 70.0569354,140.176358 68.4161662,146.07482 C68.0746277,147.302512 68.7908408,148.572825 70.0162254,148.914364 C70.2239177,148.972056 70.4328377,149 70.63822,149 C71.6489915,149 72.57643,148.329795 72.8602762,147.309795 C74.8102762,140.292103 74.0625492,132.847633 70.7463954,126.342248 L70.1334123,125.138822 C68.1534146,121.254975 67.2587869,116.971322 67.50571,112.66286 C68.2303254,112.337475 68.9074508,111.894435 69.4843738,111.315205 L119.072717,61.6862969 C133.006563,47.7524508 133.006563,25.0852885 119.072717,11.1514423 C105.138871,-2.78009615 82.4695069,-2.77778846 68.5333531,11.1514423 L65.5676085,14.1171874 C65.5676085,14.1171874 65.5631015,14.1171874 65.5631015,14.1171874 L64.7923669,14.892428 L61.0513831,11.1514423 C54.08446,4.18451923 44.93089,0.699218738 35.7794477,0.699218738 Z M35.7839546,5.31009615 C43.7524162,5.31009615 51.7212377,8.34554092 57.7881608,14.4101563 L61.5291469,18.1556489 L58.9870785,20.6977165 C58.0847708,21.6000242 58.0847708,23.0586297 58.9870785,23.9609374 C59.4370785,24.4109369 60.0279215,24.6370192 60.6186908,24.6370192 C61.20946,24.6370192 61.8003008,24.4109369 62.2503008,23.9609374 L64.7923669,21.4188703 L71.7965754,14.4146635 C83.9281138,2.283125 103.673341,2.28081731 115.809495,14.4146635 C127.943341,26.5485108 127.943341,46.29143 115.809495,58.4275838 L66.2211538,108.051982 C65.4711538,108.80429 64.1564546,108.80429 63.4041469,108.051982 L13.7797475,58.4230769 C1.64590138,46.2892308 1.64590138,26.5440015 13.7797475,14.4101563 C19.8466715,8.34323323 27.8131854,5.31009615 35.7839546,5.31009615 Z M111.009315,41.9582323 C110.419122,41.9582323 109.828858,42.1831608 109.377705,42.6343146 C108.475397,43.5366223 108.475397,44.9952292 109.377705,45.8975369 L112.640925,49.1607569 C113.090925,49.6107569 113.681768,49.8368392 114.272537,49.8368392 C114.863306,49.8368392 115.454147,49.6107569 115.904147,49.1607569 C116.804147,48.2607569 116.804147,46.7998446 115.904147,45.8975369 L112.640925,42.6343146 C112.189771,42.1831608 111.599507,41.9582323 111.009315,41.9582323 Z M102.851262,50.1162869 C102.26107,50.1162869 101.670806,50.3412131 101.219652,50.7923669 C100.317345,51.6946746 100.317345,53.1532815 101.219652,54.0555892 L104.482872,57.3188092 C104.932872,57.7688092 105.523713,57.9948915 106.114482,57.9948915 C106.705252,57.9948915 107.296095,57.7688092 107.746095,57.3188092 C108.648402,56.4165015 108.648402,54.9578969 107.746095,54.0555892 L104.482872,50.7923669 C104.031718,50.3412131 103.441455,50.1162869 102.851262,50.1162869 Z M94.6887031,58.2743392 C94.0985085,58.2743392 93.5082446,58.4992677 93.0570908,58.9504215 C92.1547831,59.8527292 92.1547831,61.3113338 93.0570908,62.2136415 L96.3203131,65.4768638 C96.7703131,65.9268638 97.3611538,66.1529438 97.9519231,66.1529438 C98.5426923,66.1529438 99.1335331,65.9268638 99.5835331,65.4768638 C100.485841,64.5745562 100.485841,63.1159492 99.5835331,62.2136415 L96.3203131,58.9504215 C95.8691592,58.4992677 95.2788954,58.2743392 94.6887031,58.2743392 Z M86.5306485,66.4368985 C85.9404562,66.4368985 85.3501923,66.6618269 84.8990385,67.1129808 C83.9967308,68.0152885 83.9967308,69.4738931 84.8990385,70.3762031 L88.1667677,73.6394231 C88.6167677,74.0894231 89.2076085,74.3155054 89.7983777,74.3155054 C90.3891469,74.3155054 90.9799877,74.0894231 91.4299877,73.6394231 C92.3322954,72.7371154 92.3322954,71.2785108 91.4299877,70.3762031 L88.1622585,67.1129808 C87.7111069,66.6618269 87.1208408,66.4368985 86.5306485,66.4368985 Z M78.3725962,74.5904438 C77.7824038,74.5904438 77.19214,74.8198792 76.7409862,75.2710331 C75.8386785,76.1733408 75.8386785,77.6319477 76.7409862,78.5342554 L80.0042062,81.7974754 C80.4542062,82.2474754 81.0450469,82.4735577 81.6358185,82.4735577 C82.2265877,82.4735577 82.8174285,82.2474754 83.2674285,81.7974754 C84.1697362,80.8951677 84.1697362,79.4365631 83.2674285,78.5342554 L80.0042062,75.2710331 C79.5530523,74.8198792 78.9627885,74.5904438 78.3725962,74.5904438 Z M70.2145438,82.7530054 C69.6243515,82.7530054 69.0340877,82.9779315 68.5829338,83.4290877 C67.6806262,84.3313931 67.6806238,85.79 68.5829338,86.6923077 L71.8461538,89.9555277 C72.2961538,90.40553 72.8869946,90.63161 73.4777638,90.63161 C74.0685331,90.63161 74.6593738,90.40553 75.1093738,89.9555277 C76.0116815,89.0532223 76.0116838,87.5946154 75.1093738,86.6923077 L71.8461538,83.4290877 C71.395,82.9779338 70.8047362,82.7530054 70.2145438,82.7530054 Z M62.0564892,90.9110577 C61.4662992,90.9110577 60.8760331,91.1359862 60.4248792,91.58714 C59.5225715,92.4894477 59.5225715,93.9480523 60.4248792,94.85036 L63.6881015,98.1135823 C64.1381015,98.5635823 64.7289423,98.7896623 65.3197115,98.7896646 C65.9104808,98.7896646 66.5013215,98.5635823 66.9513215,98.1135823 C67.8536292,97.2112746 67.8536292,95.7526677 66.9513215,94.85036 L63.6881015,91.58714 C63.2369477,91.1359862 62.6466815,90.9110577 62.0564892,90.9110577 Z" transform="translate(286 126)"/>
    </g>
  </g>
</svg>
