<svg xmlns="http://www.w3.org/2000/svg" xmlns:xlink="http://www.w3.org/1999/xlink" width="700" height="400" viewBox="0 0 700 400"><defs><path id="a" d="M0 0h700v400H0z"/></defs><g fill="none" fill-rule="evenodd"><mask id="b" fill="#fff"><use xlink:href="#a"/></mask><use fill="#39ED55" xlink:href="#a"/><g fill="#646464" fill-rule="nonzero" mask="url(#b)" opacity=".2"><path d="M509.918-34.551c-3.09.092-6.197.383-9.299.9-28.334 4.702-51.174 27.68-55.704 56.065-3.464 21.91 3.478 43.384 18.666 58.818-7.017 16.854-10.669 34.59-10.669 52.686 0 10.467 1.16 20.663 3.47 30.509l-98.242 61.296c-18.563 11.62-25.755 34.594-17.14 54.73l.365.797c4.885 10.91 13.753 19.17 25.033 23.25 11.547 4.257 23.996 3.542 34.921-1.958l56.485-28.205-4.094 18.901c-2.309 10.556-3.55 21.284-3.816 32.017v.087c-34.374 12.152-59.157 45.06-59.157 83.558 0 48.876 39.881 88.704 88.822 88.704 29.045 0 54.805-13.926 70.97-35.481h142.289c16.165 21.555 42.014 35.481 70.97 35.481 49.03 0 88.822-39.828 88.822-88.704 0-38.497-24.78-71.492-59.244-83.645a169.026 169.026 0 0 0-3.99-32.64l-4.094-18.192 56.399 28.119c10.925 5.5 23.374 6.215 34.921 1.958 11.28-4.08 20.148-12.34 25.033-23.25l.365-.797c8.615-20.136 1.423-43.11-17.14-54.73l-97.982-61.106a135.263 135.263 0 0 0 3.54-30.422c0-.098.051-.18.051-.277 0-4.507-.258-9.009-.71-13.48-.01-.088-.027-.17-.036-.26a136.63 136.63 0 0 0-1.943-12.872c-.07-.363-.189-.71-.26-1.074a139.242 139.242 0 0 0-7.824-25.104c12.764-12.844 19.725-29.797 19.725-47.626 0-3.726-.263-7.363-.885-11.088-4.53-28.386-27.37-51.363-55.704-56.064-25.048-4.17-50.179 5.69-65.367 25.294-19.141-5.996-39.318-8.801-59.383-8.402-3.26.062-6.499.15-9.732.38-1.021.072-2.032.198-3.053.295a185.73 185.73 0 0 0-39.415 7.762c-13.476-17.262-34.332-26.873-55.964-26.23zm2.324 17.672c13.643 0 26.337 5.34 35.841 15.124-6.786 2.945-13.382 6.262-19.724 10.031-4.22 2.502-5.61 7.932-3.106 12.145a8.924 8.924 0 0 0 7.65 4.349 8.79 8.79 0 0 0 4.529-1.248c10.543-6.262 21.876-11.217 33.69-14.916.062-.018.128 0 .19-.018a163.48 163.48 0 0 1 12.092-3.309c.169-.035.343-.068.52-.104a163.246 163.246 0 0 1 11.502-2.2c.417-.062.823-.146 1.232-.208a164.867 164.867 0 0 1 11.796-1.334l.607-.052c21.22-1.57 42.73.847 63.06 7.207 7.106 2.218 14.922-.092 19.274-5.769 11.547-14.99 29.675-22.093 48.505-18.988a49.702 49.702 0 0 1 27.098 14.206c7.283 7.274 12.242 16.664 13.93 27.131 2.238 14.104-1.302 28.02-9.784 38.93-5.099-8.738-11.043-17.11-18.025-24.827-3.286-3.646-8.91-3.914-12.542-.641-3.642 3.282-3.929 8.897-.642 12.543 10.365 11.479 18.303 24.097 23.801 37.492 1.11 2.687 2.052 5.436 2.95 8.177.31.94.687 1.875.97 2.824.924 3.07 1.677 6.173 2.343 9.286.133.603.31 1.19.433 1.802a120.278 120.278 0 0 1 2.238 23.18c0 7.008-.612 13.91-1.856 20.652-1.066 6.12-2.589 12.164-4.632 18.018-18.83 54.544-76.471 94.37-144.509 94.37-68.037 0-125.767-39.919-144.508-94.56-2.043-5.855-3.636-11.878-4.702-18.088-1.154-6.652-1.786-13.49-1.786-20.408 0-15.79 3.117-31.135 9.246-45.86 2.842-6.741 1.502-14.28-3.383-19.248-11.547-11.443-16.61-27.409-14.034-43.642 3.286-20.845 20.172-37.878 41.045-41.337 2.931-.444 5.85-.71 8.691-.71zm56.173 88.704c-9.81 0-17.764 7.942-17.764 17.74 0 9.798 7.953 17.741 17.764 17.741s17.765-7.943 17.765-17.74c0-9.799-7.954-17.741-17.765-17.741zm106.586 0c-9.81 0-17.764 7.942-17.764 17.74 0 9.798 7.953 17.741 17.764 17.741s17.765-7.943 17.765-17.74c0-9.799-7.954-17.741-17.765-17.741zm-53.293 35.481c-48.976 0-88.821 31.836-88.821 70.964 0 39.127 39.854 70.963 88.821 70.963 48.976 0 88.822-31.836 88.822-70.963 0-39.128-39.846-70.964-88.822-70.964zm0 17.741c39.18 0 71.058 23.87 71.058 53.223 0 29.352-31.879 53.222-71.058 53.222-39.18 0-71.057-23.87-71.057-53.222 0-29.353 31.878-53.223 71.057-53.223zm0 8.87c-9.797 0-17.764 7.957-17.764 17.741 0 6.538 3.597 12.203 8.882 15.281v16.528l-2.585 2.599c-3.473 3.46-9.104 3.468-12.577 0l-5.205-5.198a8.881 8.881 0 0 0-12.56 0 8.832 8.832 0 0 0 0 12.526l5.205 5.215c10.037 10.015 26.15 10.363 36.604 1.022 5.045 4.506 11.405 6.757 17.765 6.757 6.83 0 13.652-2.59 18.857-7.779l5.204-5.197c3.464-3.469 3.465-9.084-.017-12.544-3.455-3.468-9.087-3.46-12.56.018l-5.187 5.18c-3.464 3.46-9.096 3.468-12.577 0l-2.603-2.599V166.94c5.285-3.078 8.883-8.743 8.883-15.28 0-9.785-7.968-17.741-17.765-17.741zm-159.914 48.077c22.472 59.61 85.713 102.72 159.88 102.72 74.166 0 137.318-43.026 159.878-102.546l93.801 58.54c11.014 6.831 15.363 20.32 10.478 32.295l-.173.537c-2.931 6.741-8.269 11.792-15.197 14.276-6.84 2.572-14.297 2.138-20.87-1.144l-56.398-28.118c-6.218-3.105-13.404-2.404-18.823 1.854-5.507 4.257-7.911 11.172-6.401 17.914l4.077 18.19c1.865 8.073 2.936 16.232 3.47 24.481a84.903 84.903 0 0 0-11.728-.797c-48.94 0-88.822 39.828-88.822 88.704 0 12.596 2.664 24.66 7.46 35.482H560.921c4.796-10.822 7.46-22.886 7.46-35.482 0-25.724-11.003-48.872-28.59-65.194 22.117-14.99 48.752-23.77 77.441-23.77 4.175 0 8.438.165 12.612.52 4.797.444 8.89-3.006 9.334-7.796.355-4.702-3.117-8.88-7.824-9.234-4.708-.444-9.414-.71-14.122-.71-34.462 0-66.257 11.268-91.927 30.162-13.323-8.072-29.048-12.682-45.746-12.682a86.2 86.2 0 0 0-11.814.797c.444-8.072 1.608-16.048 3.296-23.943l4.163-18.902c1.422-6.741-.963-13.57-6.47-17.827-5.418-4.17-12.623-4.976-18.84-1.871l-56.485 28.222c-6.573 3.282-14.03 3.716-20.87 1.144-6.928-2.484-12.266-7.535-15.197-14.276l-.173-.45c-4.885-11.887-.536-25.462 10.478-32.381l94.147-58.715zm203.84 129.107c-3.332.198-6.396 2.33-7.582 5.682-1.58 4.453.754 9.353 5.222 10.932a137.938 137.938 0 0 1 16.758 7.207 8.523 8.523 0 0 0 3.886.936 8.55 8.55 0 0 0 7.633-4.66c2.159-4.214.48-9.375-3.73-11.539A156.95 156.95 0 0 0 669 311.57a8.555 8.555 0 0 0-3.366-.468zm-186.075 26.836c11.191 0 21.759 2.577 31.174 7.19 5.33 2.661 10.392 5.94 14.833 9.754 15.366 12.95 25.05 32.375 25.05 54.02 0 12.861-3.465 25.014-9.593 35.48-3.82 6.654-8.695 12.686-14.468 17.742-12.524 11-28.965 17.74-46.996 17.74-39.17 0-71.058-31.844-71.058-70.963 0-28.74 17.236-53.657 42.017-64.657v-.104c5.418-2.395 11.274-4.256 17.314-5.232 3.819-.62 7.73-.97 11.727-.97zm284.23 0c3.996 0 7.82.35 11.64.97 6.128.976 11.893 2.749 17.4 5.232 24.78 11.088 42.016 35.932 42.016 64.761 0 39.119-31.798 70.964-71.057 70.964-17.942 0-34.368-6.742-46.891-17.741-5.774-5.056-10.753-11.088-14.573-17.741-6.128-10.467-9.593-22.62-9.593-35.482 0-39.118 31.887-70.963 71.057-70.963zm-284.195 17.74c-4.912 0-8.883 3.975-8.883 8.871v17.741c0 4.897 3.97 8.87 8.883 8.87 4.911 0 8.882-3.973 8.882-8.87v-17.74c0-4.897-3.97-8.871-8.882-8.871zm284.229 0c-4.912 0-8.882 3.975-8.882 8.871v17.741c0 4.897 3.97 8.87 8.882 8.87 4.912 0 8.882-3.973 8.882-8.87v-17.74c0-4.897-3.97-8.871-8.882-8.871zm-321.58 22.246c-3.436-.426-6.957 1.186-8.795 4.366-2.452 4.24-.984 9.662 3.261 12.11l15.388 8.87a8.798 8.798 0 0 0 4.424 1.196c3.073 0 6.059-1.588 7.702-4.435a8.855 8.855 0 0 0-3.244-12.11l-15.388-8.87a8.869 8.869 0 0 0-3.348-1.127zm74.718 0a8.773 8.773 0 0 0-3.33 1.126l-15.388 8.87a8.848 8.848 0 0 0-3.244 12.11 8.856 8.856 0 0 0 7.685 4.436 8.86 8.86 0 0 0 4.44-1.195l15.388-8.87a8.842 8.842 0 0 0 3.244-12.111 8.903 8.903 0 0 0-8.795-4.366zm209.512 0c-3.437-.426-6.957 1.186-8.796 4.366-2.451 4.24-.984 9.662 3.262 12.11l15.387 8.87a8.798 8.798 0 0 0 4.424 1.196c3.073 0 6.06-1.588 7.703-4.435a8.855 8.855 0 0 0-3.245-12.11l-15.387-8.87a8.869 8.869 0 0 0-3.348-1.127zm74.717 0a8.774 8.774 0 0 0-3.33 1.126l-15.388 8.87a8.848 8.848 0 0 0-3.244 12.11 8.845 8.845 0 0 0 7.685 4.436 8.86 8.86 0 0 0 4.441-1.195l15.388-8.87a8.842 8.842 0 0 0 3.244-12.111 8.89 8.89 0 0 0-8.796-4.366z"/></g><g fill="#646464" fill-rule="nonzero" mask="url(#b)"><path d="M318.383 124.515c-.875.026-1.755.109-2.634.256-8.029 1.334-14.5 7.853-15.784 15.906-.982 6.217.985 12.31 5.29 16.689-1.99 4.781-3.024 9.813-3.024 14.948 0 2.97.329 5.862.983 8.656l-27.836 17.39c-5.26 3.298-7.298 9.816-4.857 15.529l.103.226a12.286 12.286 0 0 0 7.093 6.597 12.323 12.323 0 0 0 9.895-.556l16.005-8.002-1.16 5.363a48.143 48.143 0 0 0-1.081 9.083v.025c-9.74 3.448-16.762 12.785-16.762 23.708 0 13.867 11.3 25.167 25.167 25.167 8.23 0 15.53-3.951 20.11-10.067h40.317c4.58 6.116 11.904 10.067 20.109 10.067 13.892 0 25.167-11.3 25.167-25.167 0-10.923-7.021-20.285-16.786-23.733a48.017 48.017 0 0 0-1.13-9.26l-1.16-5.162 15.98 7.978a12.323 12.323 0 0 0 9.895.556 12.286 12.286 0 0 0 7.093-6.597l.103-.226c2.441-5.713.403-12.231-4.857-15.528l-27.762-17.337c.649-2.794.997-5.69 1.002-8.632 0-.027.015-.05.015-.078 0-1.279-.073-2.556-.201-3.825-.003-.025-.008-.048-.01-.073a38.854 38.854 0 0 0-.55-3.653c-.021-.103-.054-.201-.075-.304a39.544 39.544 0 0 0-2.216-7.123c3.616-3.644 5.588-8.454 5.588-13.513 0-1.057-.074-2.089-.25-3.146-1.284-8.053-7.756-14.572-15.784-15.906-7.097-1.183-14.218 1.614-18.522 7.176a52.85 52.85 0 0 0-16.825-2.384 52.61 52.61 0 0 0-2.758.109c-.29.02-.576.055-.865.083a52.565 52.565 0 0 0-11.168 2.202 19.375 19.375 0 0 0-15.858-7.442zm.66 5.014c3.865 0 7.462 1.515 10.155 4.291a49.404 49.404 0 0 0-5.59 2.846 2.513 2.513 0 0 0-.88 3.446 2.528 2.528 0 0 0 2.168 1.234c.438 0 .878-.112 1.283-.354 2.988-1.777 6.2-3.183 9.546-4.232.018-.005.037 0 .054-.005 1.13-.358 2.274-.67 3.427-.94l.147-.029a46.2 46.2 0 0 1 3.259-.624c.118-.017.233-.041.349-.059a46.655 46.655 0 0 1 3.343-.378l.172-.015a48.046 48.046 0 0 1 17.867 2.045c2.014.629 4.228-.026 5.462-1.637 3.271-4.253 8.408-6.268 13.743-5.387a14.077 14.077 0 0 1 7.678 4.03 14.015 14.015 0 0 1 3.948 7.698c.634 4.002-.37 7.95-2.773 11.045-1.444-2.479-3.129-4.854-5.107-7.044a2.516 2.516 0 0 0-3.554-.182 2.522 2.522 0 0 0-.182 3.56c2.937 3.256 5.186 6.836 6.744 10.636.315.763.582 1.543.836 2.32.088.267.195.532.275.802.262.87.475 1.751.664 2.634.038.171.087.338.123.512a34.17 34.17 0 0 1 .634 6.576c0 1.989-.174 3.947-.526 5.86a32.416 32.416 0 0 1-1.313 5.112c-5.335 15.475-21.668 26.775-40.946 26.775s-35.636-11.326-40.946-26.83a32.006 32.006 0 0 1-1.332-5.13 33.93 33.93 0 0 1-.506-5.791c0-4.48.883-8.834 2.62-13.012.805-1.913.425-4.052-.959-5.46-3.272-3.248-4.707-7.777-3.977-12.383.932-5.914 5.716-10.747 11.63-11.728a16.511 16.511 0 0 1 2.463-.202zm15.916 25.167a5.033 5.033 0 1 0 0 10.067 5.033 5.033 0 0 0 0-10.067zm30.2 0a5.033 5.033 0 1 0 0 10.067 5.033 5.033 0 0 0 0-10.067zm-15.1 10.067c-13.877 0-25.167 9.033-25.167 20.134 0 11.102 11.292 20.134 25.167 20.134 13.877 0 25.167-9.032 25.167-20.134 0-11.101-11.29-20.134-25.167-20.134zm0 5.034c11.101 0 20.134 6.772 20.134 15.1s-9.033 15.1-20.134 15.1-20.134-6.772-20.134-15.1 9.033-15.1 20.134-15.1zm0 2.517a5.039 5.039 0 0 0-5.033 5.033c0 1.855 1.019 3.462 2.516 4.336v4.689l-.732.737a2.522 2.522 0 0 1-3.564 0l-1.475-1.474a2.514 2.514 0 0 0-3.558 0 2.508 2.508 0 0 0 0 3.554l1.474 1.48c2.844 2.84 7.41 2.94 10.372.29a7.533 7.533 0 0 0 5.033 1.916 7.536 7.536 0 0 0 5.344-2.207l1.474-1.475a2.514 2.514 0 0 0-.005-3.558 2.512 2.512 0 0 0-3.558.005l-1.47 1.47a2.522 2.522 0 0 1-3.564 0l-.737-.738v-4.69c1.497-.873 2.516-2.48 2.516-4.335a5.039 5.039 0 0 0-5.033-5.033zm-45.311 13.64c6.367 16.913 24.286 29.144 45.301 29.144s38.909-12.207 45.302-29.095l26.578 16.61c3.12 1.938 4.353 5.765 2.969 9.162l-.05.153c-.83 1.912-2.342 3.345-4.305 4.05-1.938.73-4.051.607-5.914-.324l-15.98-7.978c-1.762-.881-3.798-.682-5.334.526-1.56 1.208-2.241 3.17-1.813 5.082l1.155 5.162c.528 2.29.832 4.605.983 6.945a24.026 24.026 0 0 0-3.323-.226c-13.867 0-25.167 11.3-25.167 25.168 0 3.573.754 6.996 2.113 10.067h-34.428a24.868 24.868 0 0 0 2.114-10.067c0-7.299-3.118-13.867-8.101-18.497a38.935 38.935 0 0 1 21.943-6.745c1.183 0 2.39.047 3.573.148 1.36.126 2.52-.853 2.645-2.212.1-1.334-.883-2.52-2.217-2.62a42.594 42.594 0 0 0-4.001-.202 43.768 43.768 0 0 0-26.048 8.558 24.95 24.95 0 0 0-12.962-3.598c-1.132 0-2.265.075-3.347.226.126-2.29.456-4.553.934-6.793l1.18-5.363c.402-1.913-.274-3.85-1.834-5.058-1.535-1.183-3.577-1.412-5.338-.53l-16.005 8.007c-1.863.93-3.976 1.054-5.914.324-1.963-.705-3.475-2.138-4.305-4.05l-.05-.128c-1.384-3.373-.151-7.224 2.97-9.187l26.676-16.659zm57.757 36.63a2.427 2.427 0 0 0-.668 4.714 39.057 39.057 0 0 1 4.748 2.045 2.422 2.422 0 0 0 3.264-1.057 2.436 2.436 0 0 0-1.057-3.273 44.44 44.44 0 0 0-5.333-2.296 2.421 2.421 0 0 0-.954-.132zm-52.724 7.615c3.171 0 6.166.73 8.833 2.04a20.58 20.58 0 0 1 4.203 2.767 19.997 19.997 0 0 1 7.098 15.327c0 3.649-.982 7.097-2.718 10.067a19.77 19.77 0 0 1-4.1 5.033 20.107 20.107 0 0 1-13.316 5.034c-11.099 0-20.134-9.036-20.134-20.134 0-8.155 4.884-15.224 11.906-18.345v-.03c1.535-.68 3.194-1.207 4.905-1.484a20.651 20.651 0 0 1 3.323-.275zm80.536 0c1.133 0 2.216.099 3.298.275 1.737.277 3.37.78 4.93 1.484 7.022 3.146 11.906 10.195 11.906 18.375 0 11.098-9.01 20.134-20.134 20.134-5.084 0-9.738-1.913-13.287-5.034a19.883 19.883 0 0 1-4.129-5.033 19.896 19.896 0 0 1-2.718-10.067c0-11.1 9.035-20.134 20.134-20.134zm-80.526 5.033a2.516 2.516 0 0 0-2.517 2.517v5.033a2.516 2.516 0 1 0 5.034 0v-5.033a2.516 2.516 0 0 0-2.517-2.517zm80.536 0a2.516 2.516 0 0 0-2.517 2.517v5.033a2.516 2.516 0 1 0 5.034 0v-5.033a2.516 2.516 0 0 0-2.517-2.517zm-91.119 6.312a2.52 2.52 0 0 0-2.492 1.238 2.516 2.516 0 0 0 .924 3.436l4.36 2.517a2.513 2.513 0 0 0 3.436-.92 2.514 2.514 0 0 0-.92-3.435l-4.36-2.517a2.51 2.51 0 0 0-.948-.32zm21.171 0c-.324.04-.644.145-.944.32l-4.36 2.516a2.512 2.512 0 0 0-.919 3.436 2.509 2.509 0 0 0 3.436.919l4.36-2.517a2.51 2.51 0 0 0 .92-3.436 2.522 2.522 0 0 0-2.493-1.238zm59.365 0a2.52 2.52 0 0 0-2.492 1.238 2.516 2.516 0 0 0 .924 3.436l4.36 2.517a2.513 2.513 0 0 0 3.436-.92 2.514 2.514 0 0 0-.92-3.435l-4.36-2.517a2.51 2.51 0 0 0-.948-.32zm21.17 0a2.47 2.47 0 0 0-.943.32l-4.36 2.516a2.512 2.512 0 0 0-.92 3.436 2.506 2.506 0 0 0 3.437.919l4.36-2.517a2.51 2.51 0 0 0 .919-3.436 2.518 2.518 0 0 0-2.492-1.238z"/></g></g></svg>