<svg xmlns="http://www.w3.org/2000/svg" xmlns:xlink="http://www.w3.org/1999/xlink" width="700" height="400" viewBox="0 0 700 400">
  <defs>
    <rect id="slide1-a" width="700" height="400"/>
  </defs>
  <g fill="none" fill-rule="evenodd">
    <mask id="slide1-b" fill="#fff">
      <use xlink:href="#slide1-a"/>
    </mask>
    <use fill="#39ED55" xlink:href="#slide1-a"/>
    <g fill="#646464" fill-rule="nonzero" mask="url(#slide1-b)" opacity=".2">
      <path d="M172.917787,0.448985894 C169.827521,0.540825701 166.721365,0.832076798 163.619269,1.34988708 C135.285158,6.05120526 112.44481,29.0283435 107.914905,57.4136608 C104.45086,79.3235821 111.392824,100.797598 126.581328,116.232114 C119.564417,133.085896 115.912319,150.821868 115.912319,168.917508 C115.912319,179.384593 117.072552,189.580715 119.381915,199.426872 L21.1403015,260.7228 C2.57657387,272.343039 -4.61520512,295.316714 4.00049614,315.452548 L4.3648037,316.249501 C9.24999513,327.160108 18.1175893,335.419295 29.3979404,339.499684 C40.9447565,343.757482 53.3943614,343.041613 64.3194259,337.541958 L120.804447,309.336816 L116.710328,328.238422 C114.400965,338.794203 113.160233,349.521866 112.893777,360.255055 L112.893777,360.341683 C78.5197891,372.494147 53.737157,405.402683 53.737157,443.900269 C53.737157,492.776238 93.6180817,532.604386 142.558818,532.604386 C171.603501,532.604386 197.363871,518.67784 213.529413,497.122739 L355.817551,497.122739 C371.983093,518.67784 397.832276,532.604386 426.788138,532.604386 C475.817695,532.604386 515.6098,492.776238 515.6098,443.900269 C515.6098,405.402683 490.829249,372.407528 456.366444,360.255055 C456.099979,349.344457 454.7746,338.347914 452.376415,327.614716 L448.282287,309.423445 L504.68057,337.541958 C515.605634,343.041613 528.055243,343.757482 539.602059,339.499684 C550.88241,335.419295 559.750001,327.160108 564.635192,316.249501 L564.999503,315.452548 C573.615204,295.316714 566.42343,272.343039 547.859702,260.7228 L449.878306,199.617452 C452.169905,189.771295 453.399525,179.564219 453.417289,169.194708 C453.417289,169.097133 453.469339,169.015082 453.469339,168.917508 C453.469339,164.411338 453.211054,159.909329 452.758064,155.438642 C452.749182,155.349938 452.732252,155.26747 452.72337,155.178766 C452.279262,150.858875 451.633084,146.56407 450.780396,142.306273 C450.709339,141.942586 450.591233,141.595806 450.520176,141.232119 C448.725978,132.672172 446.098109,124.2712 442.696239,116.128162 C455.459912,103.283806 462.420893,86.3311984 462.420893,68.5016754 C462.420893,64.7761025 462.157901,61.1392337 461.536149,57.4136608 C457.006244,29.0283435 434.165887,6.05120526 405.831777,1.34988708 C380.784068,-2.81920641 355.653089,7.04081057 340.464584,26.6444204 C321.323516,20.6480221 301.147258,17.842616 281.082444,18.2417845 C277.822689,18.3038774 274.583337,18.3923039 271.350228,18.6229346 C270.328779,18.6938979 269.318433,18.8198861 268.296984,18.9174606 C254.796091,20.0883541 241.583869,22.7051264 228.882371,26.6790708 C215.405904,9.41724974 194.549645,-0.193893643 172.917787,0.448985894 Z M175.242418,18.1205091 C188.885426,18.1205091 201.579427,23.4611897 211.083345,33.2452538 C204.29737,36.1902305 197.700558,39.5065173 191.358691,43.2764422 C187.139662,45.7778983 185.748626,51.2078374 188.253397,55.421283 C189.914371,58.2065923 192.883928,59.7698639 195.903865,59.7698639 C197.449362,59.7698639 199.001653,59.3740218 200.431682,58.5224623 C210.974813,52.2599517 222.308182,47.3045796 234.121463,43.6056179 C234.183639,43.5878771 234.250113,43.606033 234.312288,43.5882931 C238.30038,42.3286937 242.335806,41.2283476 246.403838,40.2792135 C246.572591,40.2437319 246.746628,40.2107446 246.924271,40.1752629 C250.725838,39.2970922 254.571123,38.5781737 258.425984,37.9749848 C258.843445,37.9128928 259.249112,37.8291774 259.657691,37.7670854 C263.574727,37.1816383 267.510637,36.734652 271.454318,36.433058 C271.658608,36.4153172 271.857205,36.3988235 272.061494,36.3810836 C293.28099,34.8110207 314.790132,37.2282079 335.121411,43.5882931 C342.227144,45.805896 350.042757,43.4961233 354.395019,37.8190598 C365.941835,22.8280641 384.069776,15.7261908 402.899969,18.8308349 C413.292103,20.6049172 422.802958,25.6749119 429.997513,33.0373535 C437.280889,40.3110911 442.240336,49.7012539 443.927947,60.1683397 C446.166253,74.2722907 442.62615,88.1870571 434.143682,99.0976635 C429.045318,90.360308 423.100511,81.9881651 416.119128,74.2709069 C412.832727,70.6251686 407.209347,70.3567003 403.576541,73.6298777 C399.934853,76.91193 399.648261,82.5274595 402.934663,86.1731987 C413.300151,97.6515114 421.238036,110.270231 426.736097,123.664552 C427.846368,126.352278 428.788153,129.100997 429.685252,131.841954 C429.996127,132.782227 430.372509,133.716805 430.656738,134.665939 C431.580484,137.735101 432.332555,140.838636 432.998717,143.952151 C433.131949,144.555339 433.308065,145.141895 433.432415,145.753953 C434.924619,153.355896 435.670304,161.111128 435.670304,168.934831 C435.670304,175.942457 435.057576,182.844746 433.814073,189.586259 C432.748213,195.706843 431.225064,201.749811 429.182157,207.604282 C410.351973,262.148444 352.710871,301.973683 284.673478,301.973683 C216.636084,301.973683 158.906169,262.055446 140.164799,207.41371 C138.1219,201.559239 136.529355,195.53567 135.463495,189.326382 C134.308813,182.673573 133.676651,175.836429 133.676651,168.917508 C133.676651,153.128175 136.794434,137.783054 142.923129,123.058171 C145.765422,116.316658 144.425467,108.7775 139.540276,103.81007 C127.993451,92.3672386 122.929923,76.4011895 125.505751,60.1683397 C128.792153,39.3228723 145.677986,22.2902954 166.551076,18.8308349 C169.482191,18.3873143 172.400125,18.1205091 175.242418,18.1205091 Z M231.415183,106.824626 C221.604213,106.824626 213.65085,114.767463 213.65085,124.565449 C213.65085,134.363435 221.604213,142.306273 231.415183,142.306273 C241.226153,142.306273 249.179515,134.363435 249.179515,124.565449 C249.179515,114.767463 241.226153,106.824626 231.415183,106.824626 Z M338.001178,106.824626 C328.190208,106.824626 320.236845,114.767463 320.236845,124.565449 C320.236845,134.363435 328.190208,142.306273 338.001178,142.306273 C347.812148,142.306273 355.76551,134.363435 355.76551,124.565449 C355.76551,114.767463 347.812148,106.824626 338.001178,106.824626 Z M284.70818,142.306273 C235.731907,142.306273 195.886518,174.14218 195.886518,213.269566 C195.886518,252.396952 235.740789,284.232859 284.70818,284.232859 C333.684445,284.232859 373.529843,252.396952 373.529843,213.269566 C373.529843,174.14218 333.684445,142.306273 284.70818,142.306273 Z M284.70818,160.047096 C323.887416,160.047096 355.76551,183.917374 355.76551,213.269566 C355.76551,242.621758 323.887416,266.492036 284.70818,266.492036 C245.528936,266.492036 213.65085,242.621758 213.65085,213.269566 C213.65085,183.917374 245.528936,160.047096 284.70818,160.047096 Z M284.70818,168.917508 C274.911142,168.917508 266.943848,176.874267 266.943848,186.658331 C266.943848,193.195824 270.541125,198.860966 275.826014,201.938999 L275.826014,218.467077 L273.241162,221.065824 C269.768235,224.525284 264.136799,224.534155 260.663872,221.065824 L255.459482,215.868322 C251.986555,212.399991 246.372467,212.399991 242.89954,215.868322 C239.426613,219.336652 239.426613,224.925979 242.89954,228.39431 L248.103938,233.609145 C258.140786,243.62384 274.253871,243.971861 284.70818,234.631318 C289.753242,239.137487 296.112873,241.388079 302.472513,241.388079 C309.30289,241.388079 316.124811,238.798336 321.32976,233.609145 L326.534159,228.411634 C329.998204,224.943303 329.998621,219.327782 326.516812,215.868322 C323.061649,212.399991 317.429796,212.408444 313.956869,215.885645 L308.769827,221.065824 C305.305782,224.525284 299.674346,224.534155 296.192537,221.065824 L293.590347,218.467077 L293.590347,201.938999 C298.875227,198.860966 302.472513,193.195824 302.472513,186.658331 C302.472513,176.874267 294.50521,168.917508 284.70818,168.917508 Z M124.794485,216.994447 C147.266366,276.603613 210.507389,319.714506 284.673478,319.714506 C358.839566,319.714506 421.991768,276.688157 444.55247,217.167695 L538.353004,275.708944 C549.36689,282.539161 553.716381,296.027739 548.831189,308.002795 L548.657703,308.539863 C545.726588,315.281376 540.388965,320.331966 533.460876,322.815682 C526.621608,325.388101 519.164052,324.954285 512.591258,321.672232 L456.192966,293.553719 C449.97545,290.449075 442.788534,291.149705 437.370413,295.407502 C431.86347,299.6653 429.459032,306.580061 430.969,313.321574 L435.045781,331.512845 C436.911036,339.58492 437.982447,347.743623 438.515377,355.993106 C434.696046,355.460881 430.785112,355.196153 426.788138,355.196153 C377.847402,355.196153 337.966475,395.024301 337.966475,443.900269 C337.966475,456.496254 340.629739,468.560014 345.426109,479.381916 L223.920855,479.381916 C228.717216,468.560014 231.38048,456.496254 231.38048,443.900269 C231.38048,418.176075 220.377697,395.027769 202.791008,378.706212 C224.907602,363.715216 251.542998,354.936276 280.232395,354.936276 C284.407013,354.936276 288.66976,355.101213 292.844378,355.456029 C297.640748,355.89955 301.733481,352.449793 302.177589,347.659771 C302.532876,342.958453 299.061201,338.780347 294.353653,338.425531 C289.646105,337.98201 284.939943,337.715206 280.232395,337.715206 C245.769589,337.715206 213.974907,348.984097 188.305447,367.878074 C174.982197,359.805999 159.25729,355.196153 142.558818,355.196153 C138.561843,355.196153 134.564175,355.460881 130.744844,355.993106 C131.188952,347.921031 132.353351,339.944589 134.040962,332.049922 L138.204478,313.148326 C139.625624,306.406813 137.240621,299.578671 131.733678,295.320874 C126.315556,291.15178 119.111284,290.345132 112.893777,293.449767 L56.4087465,321.672232 C49.8359435,324.954285 42.3783933,325.388101 35.5391252,322.815682 C28.6110356,320.331966 23.2734088,315.281376 20.3422939,308.539863 L20.1688146,308.089414 C15.2836231,296.203063 19.6331089,282.627874 30.6469951,275.708944 L124.794485,216.994447 Z M328.633264,346.100512 C325.301616,346.298855 322.237962,348.430104 321.052193,351.78312 C319.471167,356.236066 321.806209,361.136277 326.273938,362.71521 C332.011818,364.746535 337.640615,367.163722 343.03209,369.92242 C344.284475,370.561089 345.612359,370.857973 346.918038,370.857973 C350.04456,370.857973 353.032299,369.160256 354.551149,366.197539 C356.709516,361.984093 355.031479,356.823456 350.821332,354.659076 C344.763695,351.572173 338.43834,348.847989 331.99877,346.568293 C330.888499,346.175778 329.74381,346.034401 328.633264,346.100512 Z M142.558818,372.936976 C153.750347,372.936976 164.318047,375.514247 173.733143,380.126861 C179.062443,382.787985 184.124585,386.066569 188.565668,389.880846 C203.931815,402.831647 213.616148,422.256465 213.616148,443.900269 C213.616148,456.762366 210.15141,468.91483 204.022715,479.381916 C200.203384,486.034725 195.327909,492.066605 189.554501,497.122739 C177.030647,508.12205 160.589615,514.863563 142.558818,514.863563 C103.388465,514.863563 71.5014895,483.018785 71.5014895,443.900269 C71.5014895,415.160135 88.737056,390.242599 113.5183,379.243289 L113.5183,379.139336 C118.936421,376.744325 124.791714,374.882922 130.831587,373.907177 C134.650919,373.286248 138.561843,372.936976 142.558818,372.936976 Z M426.788138,372.936976 C430.785112,372.936976 434.609302,373.286248 438.428634,373.907177 C444.557329,374.882922 450.321712,376.655621 455.828655,379.139336 C480.609899,390.227351 497.845468,415.071431 497.845468,443.900269 C497.845468,483.018785 466.047312,514.863563 426.788138,514.863563 C408.846162,514.863563 392.420398,508.12205 379.896544,497.122739 C374.123136,492.066605 369.143571,486.034725 365.32424,479.381916 C359.195545,468.91483 355.730808,456.762366 355.730808,443.900269 C355.730808,404.781754 387.617784,372.936976 426.788138,372.936976 Z M142.59352,390.677799 C137.681674,390.677799 133.711354,394.651744 133.711354,399.548211 L133.711354,417.289034 C133.711354,422.185502 137.681682,426.159446 142.59352,426.159446 C147.505358,426.159446 151.475687,422.185502 151.475687,417.289034 L151.475687,399.548211 C151.475687,394.651744 147.505358,390.677799 142.59352,390.677799 Z M426.82284,390.677799 C421.911002,390.677799 417.940674,394.651744 417.940674,399.548211 L417.940674,417.289034 C417.940674,422.185502 421.911002,426.159446 426.82284,426.159446 C431.734669,426.159446 435.705006,422.185502 435.705006,417.289034 L435.705006,399.548211 C435.705006,394.651744 431.734669,390.677799 426.82284,390.677799 Z M105.24331,412.923124 C101.807164,412.496936 98.286495,414.108992 96.4478866,417.289034 C93.9964087,421.529091 95.463636,426.950988 99.7093026,429.399222 L115.096963,438.269634 C116.491463,439.076841 118.010731,439.465063 119.520699,439.465063 C122.593929,439.465063 125.580006,437.87726 127.223207,435.029858 C129.674685,430.78093 128.224804,425.367904 123.979129,422.91967 L108.591469,414.049258 C107.527838,413.434982 106.3887,413.065193 105.24331,412.923124 Z M179.961069,412.923124 C178.817215,413.065193 177.689455,413.434982 176.630257,414.049258 L161.242597,422.91967 C156.996921,425.367904 155.538158,430.78093 157.998519,435.029858 C159.650601,437.87726 162.61045,439.465063 165.68368,439.465063 C167.193648,439.465063 168.730263,439.076841 170.124763,438.269634 L185.512423,429.399222 C189.766981,426.950988 191.216852,421.529091 188.756492,417.289034 C186.911222,414.108992 183.392641,412.496936 179.961069,412.923124 Z M389.472629,412.923124 C386.036483,412.496936 382.515815,414.108992 380.677206,417.289034 C378.225729,421.529091 379.692947,426.950988 383.938622,429.399222 L399.326283,438.269634 C400.720783,439.076841 402.240051,439.465063 403.750019,439.465063 C406.823248,439.465063 409.809326,437.87726 411.452527,435.029858 C413.904005,430.78093 412.454124,425.367904 408.208449,422.91967 L392.820789,414.049258 C391.757158,413.434982 390.61802,413.065193 389.472629,412.923124 Z M464.190389,412.923124 C463.046943,413.065884 461.916554,413.434982 460.859577,414.049258 L445.471916,422.91967 C441.226241,425.367904 439.767487,430.78093 442.227838,435.029858 C443.871048,437.87726 446.83977,439.465063 449.913,439.465063 C451.422968,439.465063 452.959583,439.076841 454.354083,438.269634 L469.741743,429.399222 C473.9963,426.950988 475.446172,421.529091 472.985812,417.289034 C471.140542,414.102339 467.620708,412.494852 464.190389,412.923124 Z" transform="translate(337 -35)"/>
    </g>
    <g fill="#646464" fill-rule="nonzero" mask="url(#slide1-b)">
      <path d="M49.3834288,0.515142837 C48.507809,0.541199925 47.6276867,0.623834632 46.7487145,0.770749445 C38.7203076,2.1046227 32.2485459,8.62377093 30.9650074,16.6773453 C29.9834781,22.8936992 31.950468,28.9863767 36.2540968,33.3655078 C34.2658706,38.1473176 33.2310568,43.1794249 33.2310568,48.3135785 C33.2310568,51.2833341 33.5598062,54.1762107 34.2141591,56.9697943 L6.37761707,74.3608741 C1.11762626,77.6578061 -0.920148263,84.1759715 1.52109146,89.8889758 L1.6243172,90.11509 C3.00852529,93.2106826 5.52113831,95.554006 8.71740063,96.7117073 C11.9891652,97.9197435 15.516733,97.7166348 18.6123256,96.1562548 L34.6172304,88.1538005 L33.4571709,93.5166253 C32.802818,96.5115458 32.4512594,99.5552331 32.3757596,102.600488 L32.3757596,102.625067 C22.6359669,106.073003 15.6138633,115.40992 15.6138633,126.33258 C15.6138633,140.199828 26.9140344,151.5 40.7812827,151.5 C49.011029,151.5 56.3101722,147.548715 60.8906426,141.433032 L101.207669,141.433032 C105.788139,147.548715 113.112447,151.5 121.317026,151.5 C135.209442,151.5 146.484446,140.199828 146.484446,126.33258 C146.484446,115.40992 139.462932,106.048427 129.697973,102.600488 C129.622471,99.5048983 129.246928,96.3849235 128.567408,93.3396656 L127.407346,88.178379 L143.387673,96.1562548 C146.483266,97.7166348 150.010835,97.9197435 153.282599,96.7117073 C156.478861,95.554006 158.991473,93.2106826 160.375682,90.11509 L160.478908,89.8889758 C162.920148,84.1759715 160.882375,77.6578061 155.622384,74.3608741 L127.859574,57.0238665 C128.508893,54.2302829 128.857304,51.3342981 128.862337,48.3922267 C128.862337,48.3645426 128.877085,48.3412627 128.877085,48.3135785 C128.877085,47.0350736 128.803901,45.757749 128.675547,44.4893111 C128.67303,44.4641437 128.668233,44.4407455 128.665717,44.4155781 C128.539879,43.1899247 128.356787,41.9713887 128.115179,40.7633526 C128.095045,40.6601662 128.06158,40.5617766 128.041446,40.4585902 C127.533064,38.0299342 126.788464,35.6463832 125.824551,33.3360141 C129.44111,29.6917717 131.413488,24.8819229 131.413488,19.8232728 C131.413488,18.7662411 131.33897,17.7343769 131.162798,16.6773453 C129.879259,8.62377093 123.407495,2.1046227 115.379088,0.770749445 C108.281876,-0.412119289 101.161069,2.38539673 96.8574401,7.94739652 C91.4338611,6.24607893 85.7169634,5.45012002 80.0316433,5.56337341 C79.107999,5.5809906 78.1901356,5.60607925 77.2740415,5.67151454 C76.9846162,5.69164848 76.6983368,5.72739427 76.4089115,5.75507843 C72.5834636,6.08728812 68.8398099,6.82972726 65.2408689,7.95722767 C61.4223421,3.05964776 55.5127677,0.332742968 49.3834288,0.515142837 Z M50.042108,5.52896476 C53.9078237,5.52896476 57.5046406,7.04424 60.1975545,9.82020641 C58.2747637,10.6557647 56.4055718,11.5966724 54.6086181,12.6662877 C53.4131656,13.376009 53.0190186,14.9166089 53.7287399,16.1120614 C54.1993732,16.9023184 55.0407905,17.3458549 55.8964827,17.3458549 C56.3343958,17.3458549 56.7742343,17.2335453 57.1794297,16.991938 C60.1668025,15.2151182 63.3780872,13.8091639 66.7253541,12.7596825 C66.7429713,12.754649 66.7618066,12.7598003 66.7794237,12.7547671 C67.9094409,12.3973895 69.0528698,12.0851957 70.2055376,11.8159043 C70.2533532,11.8058373 70.3026662,11.7964781 70.3530011,11.7864111 C71.4301666,11.5372536 72.5197196,11.3332797 73.6119856,11.162141 C73.7302725,11.1445241 73.8452171,11.1207721 73.9609873,11.1031551 C75.0708705,10.9370502 76.1861018,10.8102298 77.3035352,10.7246606 C77.3614203,10.7196271 77.4176921,10.7149474 77.4755772,10.7099142 C83.4880738,10.2644509 89.5826414,10.9502631 95.3434638,12.7547671 C97.3568574,13.3839526 99.571394,12.7286164 100.804598,11.1179015 C104.076362,6.86460754 109.212874,4.84964099 114.548367,5.73050068 C117.492955,6.23384908 120.187835,7.67232442 122.226396,9.76122027 C124.290124,11.8249487 125.695372,14.4891562 126.173553,17.4589117 C126.807772,21.4605305 125.804692,25.4084731 123.401203,28.5040658 C121.956593,26.0250749 120.272145,23.6497034 118.293986,21.4601378 C117.362792,20.4257571 115.76942,20.3495864 114.740072,21.278263 C113.708208,22.2094575 113.627003,23.8027137 114.558197,24.8370947 C117.495235,28.0937588 119.744417,31.6739829 121.302281,35.4742633 C121.616873,36.2368336 121.883726,37.016709 122.137917,37.7943823 C122.226003,38.0611594 122.33265,38.3263208 122.413186,38.5956122 C122.674927,39.466405 122.888024,40.3469501 123.07678,41.2303265 C123.114531,41.401465 123.164433,41.5678845 123.199668,41.7415397 C123.62248,43.8983876 123.833768,46.0987273 123.833768,48.3184937 C123.833768,50.3067199 123.660153,52.2650598 123.307809,54.1777837 C123.0058,55.9143356 122.574219,57.6288661 121.995366,59.2899158 C116.659876,74.7653623 100.327398,86.0647083 81.0491545,86.0647083 C61.7709109,86.0647083 45.4132683,74.7389768 40.1029427,59.2358462 C39.5240921,57.5747964 39.0728478,55.8657701 38.7708387,54.1040507 C38.4436623,52.2164942 38.2645407,50.2766373 38.2645407,48.3135785 C38.2645407,43.8337778 39.1479574,39.4800105 40.8845094,35.3022188 C41.6898668,33.3894949 41.3101937,31.2504605 39.9259856,29.841085 C36.6542185,26.5944878 35.2194792,22.0645485 35.9493344,17.4589117 C36.8805289,11.544568 41.665092,6.71203006 47.5794357,5.73050068 C48.4099606,5.60466358 49.2367506,5.52896476 50.042108,5.52896476 Z M65.9585355,30.6963846 C63.1786191,30.6963846 60.9250515,32.9499522 60.9250515,35.7298686 C60.9250515,38.509785 63.1786191,40.7633526 65.9585355,40.7633526 C68.7384519,40.7633526 70.9920195,38.509785 70.9920195,35.7298686 C70.9920195,32.9499522 68.7384519,30.6963846 65.9585355,30.6963846 Z M96.1594393,30.6963846 C93.3795229,30.6963846 91.1259554,32.9499522 91.1259554,35.7298686 C91.1259554,38.509785 93.3795229,40.7633526 96.1594393,40.7633526 C98.9393558,40.7633526 101.192923,38.509785 101.192923,35.7298686 C101.192923,32.9499522 98.9393558,30.6963846 96.1594393,30.6963846 Z M81.0589874,40.7633526 C67.1816696,40.7633526 55.8915675,49.7959396 55.8915675,60.8972885 C55.8915675,71.9986374 67.1841863,81.0312244 81.0589874,81.0312244 C94.9363027,81.0312244 106.226407,71.9986374 106.226407,60.8972885 C106.226407,49.7959396 94.9363027,40.7633526 81.0589874,40.7633526 Z M81.0589874,45.7968366 C92.1603363,45.7968366 101.192923,52.5693892 101.192923,60.8972885 C101.192923,69.2251877 92.1603363,75.9977404 81.0589874,75.9977404 C69.957636,75.9977404 60.9250515,69.2251877 60.9250515,60.8972885 C60.9250515,52.5693892 69.957636,45.7968366 81.0589874,45.7968366 Z M81.0589874,48.3135785 C78.2830185,48.3135785 76.0255034,50.5710961 76.0255034,53.3470625 C76.0255034,55.2019014 77.0447839,56.8092337 78.5422454,57.6825432 L78.5422454,62.3719432 L77.8098332,63.1092681 C76.8257871,64.0907975 75.2301324,64.0933142 74.2460863,63.1092681 L72.7714341,61.6346159 C71.787388,60.6505697 70.1966485,60.6505697 69.2126023,61.6346159 C68.2285562,62.618662 68.2285562,64.2044838 69.2126023,65.1885299 L70.6872571,66.6680998 C73.5311756,69.5095015 78.0967821,69.6082434 81.0589874,66.9581141 C82.4884943,68.236619 84.2904816,68.8751643 86.0924714,68.8751643 C88.0278435,68.8751643 89.9608196,68.1403939 91.4356304,66.6680998 L92.9102852,65.1934451 C93.8918145,64.2093989 93.8919328,62.6161452 92.90537,61.6346159 C91.9263573,60.6505697 90.3305844,60.6529682 89.3465382,61.6395311 L87.8768012,63.1092681 C86.8952718,64.0907975 85.2996171,64.0933142 84.3130543,63.1092681 L83.5757294,62.3719432 L83.5757294,57.6825432 C85.0731884,56.8092337 86.0924714,55.2019014 86.0924714,53.3470625 C86.0924714,50.5710961 83.8349538,48.3135785 81.0589874,48.3135785 Z M35.7477987,61.9541238 C42.115156,78.86663 60.0343589,91.0981923 81.0491545,91.0981923 C102.06395,91.0981923 119.957986,78.890617 126.35051,62.0032783 L152.928682,78.6127914 C156.049442,80.5506827 157.281861,84.377706 155.897653,87.7753077 L155.848496,87.9276863 C155.017971,89.8404102 153.505567,91.2733802 151.542509,91.978068 C149.604617,92.7079231 147.491536,92.5848394 145.629149,91.6536448 L129.648819,83.675769 C127.8871,82.7949093 125.850703,82.9936942 124.31549,84.2017304 C122.75511,85.4097665 122.073818,87.3716449 122.501664,89.2843688 L123.656811,94.4456555 C124.185327,96.7358907 124.488909,99.0507044 124.639913,101.391274 C123.557714,101.24027 122.44956,101.16516 121.317026,101.16516 C107.449778,101.16516 96.1496064,112.465332 96.1496064,126.33258 C96.1496064,129.906354 96.9042364,133.329123 98.2632771,136.399548 L63.8350344,136.399548 C65.1940726,133.329123 65.9487026,129.906354 65.9487026,126.33258 C65.9487026,119.034028 62.8310884,112.466316 57.8479393,107.835511 C64.1146269,103.582217 71.6617069,101.091427 79.7907835,101.091427 C80.9736522,101.091427 82.1814921,101.138224 83.3643608,101.238893 C84.7234015,101.36473 85.8830684,100.385954 86.0089055,99.0269136 C86.1095752,97.6930404 85.1258839,96.5076146 83.7920107,96.4069449 C82.4581374,96.2811078 81.1246568,96.2054093 79.7907835,96.2054093 C70.0258246,96.2054093 61.0168723,99.4026556 53.743488,104.763316 C49.968375,102.473081 45.5127577,101.16516 40.7812827,101.16516 C39.6487488,101.16516 38.5160186,101.24027 37.4338196,101.391274 C37.5596567,99.1010392 37.8895864,96.837937 38.3677674,94.5980366 L39.5474902,89.2352143 C39.9501689,87.3224904 39.2743835,85.385188 37.7140034,84.1771519 C36.1787908,82.9942831 34.1374765,82.7654182 32.3757596,83.6462753 L16.3708523,91.6536448 C14.5084632,92.5848394 12.395383,92.7079231 10.4574916,91.978068 C8.4944329,91.2733802 6.98202826,89.8404102 6.1515034,87.9276863 L6.10234841,87.7998837 C4.71814032,84.4274494 5.95055741,80.5758526 9.07131748,78.6127914 L35.7477987,61.9541238 Z M93.5050618,98.5845157 C92.5610469,98.64079 91.6929673,99.245475 91.3569822,100.196804 C90.9090021,101.460208 91.570631,102.850512 92.8365522,103.298492 C94.4623675,103.874826 96.0572747,104.560638 97.5849371,105.343345 C97.9397977,105.52455 98.3160506,105.608783 98.6860117,105.608783 C99.5719049,105.608783 100.418474,105.127101 100.848837,104.286509 C101.460405,103.091057 100.984937,101.626864 99.7920015,101.012779 C98.0755835,100.136953 96.2833083,99.3640388 94.4586704,98.7172361 C94.1440777,98.6058702 93.8197325,98.5657584 93.5050618,98.5845157 Z M40.7812827,106.198644 C43.9523776,106.198644 46.9467117,106.929876 49.6144582,108.238582 C51.1245034,108.993605 52.55885,109.923815 53.817221,111.006014 C58.1711846,114.680457 60.9152186,120.19173 60.9152186,126.33258 C60.9152186,129.981856 59.9334929,133.429793 58.196941,136.399548 C57.1147419,138.287105 55.7332871,139.998489 54.0974048,141.433032 C50.5487986,144.553792 45.8902689,146.466516 40.7812827,146.466516 C29.6824506,146.466516 20.6473473,137.431412 20.6473473,126.33258 C20.6473473,118.178336 25.5310066,111.108652 32.5527168,107.987892 L32.5527168,107.958398 C34.0879294,107.278878 35.7470135,106.750755 37.4583981,106.473913 C38.5405971,106.297741 39.6487488,106.198644 40.7812827,106.198644 Z M121.317026,106.198644 C122.44956,106.198644 123.533136,106.297741 124.615335,106.473913 C126.351887,106.750755 127.985212,107.25371 129.545592,107.958398 C136.567302,111.104326 141.450962,118.153169 141.450962,126.33258 C141.450962,137.431412 132.441026,146.466516 121.317026,146.466516 C116.233207,146.466516 111.579004,144.553792 108.030398,141.433032 C106.394516,139.998489 104.983567,138.287105 103.901368,136.399548 C102.164816,133.429793 101.18309,129.981856 101.18309,126.33258 C101.18309,115.233748 110.218194,106.198644 121.317026,106.198644 Z M40.7911156,111.232128 C39.3993548,111.232128 38.2743736,112.359629 38.2743736,113.74887 L38.2743736,118.782354 C38.2743736,120.171596 39.3993573,121.299096 40.7911156,121.299096 C42.1828739,121.299096 43.3078576,120.171596 43.3078576,118.782354 L43.3078576,113.74887 C43.3078576,112.359629 42.1828739,111.232128 40.7911156,111.232128 Z M121.326859,111.232128 C119.935101,111.232128 118.810117,112.359629 118.810117,113.74887 L118.810117,118.782354 C118.810117,120.171596 119.935101,121.299096 121.326859,121.299096 C122.718615,121.299096 123.843601,120.171596 123.843601,118.782354 L123.843601,113.74887 C123.843601,112.359629 122.718615,111.232128 121.326859,111.232128 Z M30.2080167,117.543644 C29.2343925,117.422725 28.2368189,117.880102 27.7158533,118.782354 C27.0212325,119.985357 27.4369681,121.523675 28.6399682,122.218296 L33.0000274,124.735038 C33.3951559,124.964061 33.825637,125.074209 34.2534832,125.074209 C35.1242759,125.074209 35.9703744,124.623712 36.4359716,123.815838 C37.1305924,122.610319 36.719772,121.074517 35.5167694,120.379896 L31.1567102,117.863154 C30.8553329,117.68887 30.5325607,117.583952 30.2080167,117.543644 Z M51.3791272,117.543644 C51.0550186,117.583952 50.7354704,117.68887 50.4353489,117.863154 L46.0752898,120.379896 C44.8722871,121.074517 44.45895,122.610319 45.1560875,123.815838 C45.6242015,124.623712 46.462868,125.074209 47.3336607,125.074209 C47.7615069,125.074209 48.1969032,124.964061 48.5920317,124.735038 L52.9520909,122.218296 C54.1576103,121.523675 54.5684282,119.985357 53.8712907,118.782354 C53.3484375,117.880102 52.3514553,117.422725 51.3791272,117.543644 Z M110.74376,117.543644 C109.770136,117.422725 108.772562,117.880102 108.251597,118.782354 C107.556976,119.985357 107.972709,121.523675 109.175712,122.218296 L113.535771,124.735038 C113.930899,124.964061 114.361381,125.074209 114.789227,125.074209 C115.660019,125.074209 116.506118,124.623712 116.971715,123.815838 C117.666336,122.610319 117.255516,121.074517 116.052513,120.379896 L111.692454,117.863154 C111.391076,117.68887 111.068304,117.583952 110.74376,117.543644 Z M131.914871,117.543644 C131.590878,117.584148 131.270585,117.68887 130.971093,117.863154 L126.611033,120.379896 C125.408031,121.074517 124.994696,122.610319 125.691831,123.815838 C126.157431,124.623712 126.998612,125.074209 127.869404,125.074209 C128.29725,125.074209 128.732647,124.964061 129.127775,124.735038 L133.487835,122.218296 C134.693354,121.523675 135.104172,119.985357 134.407034,118.782354 C133.884181,117.878215 132.886844,117.422133 131.914871,117.543644 Z" transform="translate(269 124)"/>
    </g>
  </g>
</svg>
