<svg xmlns="http://www.w3.org/2000/svg" xmlns:xlink="http://www.w3.org/1999/xlink" width="700" height="400" viewBox="0 0 700 400"><defs><path id="a" d="M0 0h700v400H0z"/></defs><g fill="none" fill-rule="evenodd"><mask id="b" fill="#fff"><use xlink:href="#a"/></mask><use fill="#C42DFF" xlink:href="#a"/><g fill="#FFF" fill-rule="nonzero" mask="url(#b)" opacity=".2"><path d="M484.485 28.61c-34.142 0-68.28 13.012-94.267 39.022-51.984 52.02-51.984 136.644 0 188.664l185.154 185.28c2.884 2.887 6.393 4.862 10.19 6.025-.715 18.463 3.282 36.764 11.754 53.408l2.287 4.51c10.4 20.427 12.763 43.806 6.642 65.827-1.274 4.583 1.398 9.326 5.97 10.601.774.215 1.554.32 2.32.32a8.618 8.618 0 0 0 8.29-6.31c7.275-26.2 4.485-53.993-7.887-78.28l-2.286-4.492c-7.387-14.5-10.725-30.492-9.804-46.577 2.704-1.215 5.23-2.869 7.382-5.031l185.003-185.281c51.984-52.02 51.984-136.644 0-188.664-51.984-52.011-136.558-52.002-188.55 0l-11.065 11.072h-.017l-2.876 2.894-13.956-13.966c-25.992-26.01-60.142-39.022-94.284-39.022zm.017 17.214c29.728 0 59.458 11.333 82.092 33.974l13.957 13.983-9.484 9.49a8.61 8.61 0 0 0 0 12.183 8.583 8.583 0 0 0 6.087 2.524 8.583 8.583 0 0 0 6.088-2.524l9.483-9.49 26.131-26.15c45.26-45.29 118.925-45.299 164.202 0 45.27 45.3 45.27 119.007 0 164.316L598.056 429.394c-2.798 2.809-7.703 2.809-10.51 0L402.41 244.113c-45.269-45.3-45.269-119.015 0-164.315 22.634-22.65 52.356-33.974 82.093-33.974zm280.648 136.82c-2.202 0-4.404.84-6.087 2.524a8.61 8.61 0 0 0 0 12.183l12.174 12.182a8.583 8.583 0 0 0 6.087 2.525 8.583 8.583 0 0 0 6.088-2.525c3.357-3.36 3.357-8.814 0-12.182l-12.175-12.183a8.576 8.576 0 0 0-6.087-2.524zm-30.436 30.457c-2.202 0-4.404.84-6.087 2.524a8.61 8.61 0 0 0 0 12.183l12.174 12.182a8.583 8.583 0 0 0 6.088 2.524 8.583 8.583 0 0 0 6.087-2.524 8.61 8.61 0 0 0 0-12.182L740.8 215.625a8.576 8.576 0 0 0-6.087-2.524zm-30.452 30.457c-2.202 0-4.404.84-6.087 2.524a8.61 8.61 0 0 0 0 12.182l12.174 12.183a8.583 8.583 0 0 0 6.087 2.524 8.583 8.583 0 0 0 6.087-2.524 8.61 8.61 0 0 0 0-12.183l-12.174-12.182a8.576 8.576 0 0 0-6.087-2.524zm-30.436 30.473c-2.202 0-4.404.84-6.087 2.524a8.61 8.61 0 0 0 0 12.183l12.19 12.183a8.583 8.583 0 0 0 6.088 2.524 8.583 8.583 0 0 0 6.087-2.524 8.61 8.61 0 0 0 0-12.183l-12.191-12.183a8.576 8.576 0 0 0-6.087-2.524zm-30.436 30.44a8.594 8.594 0 0 0-6.087 2.54 8.61 8.61 0 0 0 0 12.184l12.174 12.182a8.583 8.583 0 0 0 6.087 2.524 8.583 8.583 0 0 0 6.088-2.524 8.61 8.61 0 0 0 0-12.182l-12.175-12.183a8.594 8.594 0 0 0-6.087-2.541zm-30.436 30.474c-2.202 0-4.404.84-6.087 2.524a8.61 8.61 0 0 0 0 12.182l12.174 12.183a8.583 8.583 0 0 0 6.088 2.524 8.583 8.583 0 0 0 6.087-2.524 8.61 8.61 0 0 0 0-12.183L619.04 337.47a8.576 8.576 0 0 0-6.087-2.524zM582.518 365.4c-2.201 0-4.404.84-6.087 2.524a8.61 8.61 0 0 0 0 12.183l12.175 12.183a8.583 8.583 0 0 0 6.087 2.524 8.583 8.583 0 0 0 6.087-2.524 8.61 8.61 0 0 0 0-12.183l-12.174-12.183a8.576 8.576 0 0 0-6.088-2.524z"/></g><g fill="#FFF" fill-rule="nonzero" mask="url(#b)"><path d="M321.78 126.7c-9.152 0-18.302 3.485-25.268 10.451-13.934 13.934-13.934 36.601 0 50.535l49.629 49.63c.773.772 1.714 1.301 2.731 1.613a28.974 28.974 0 0 0 3.15 14.306l.614 1.208a24.365 24.365 0 0 1 1.78 17.632 2.305 2.305 0 0 0 2.222 2.925 2.31 2.31 0 0 0 2.222-1.69 28.97 28.97 0 0 0-2.114-20.968l-.613-1.203a24.33 24.33 0 0 1-2.627-12.476 6.576 6.576 0 0 0 1.978-1.348l49.589-49.629c13.934-13.934 13.934-36.6 0-50.535-13.934-13.931-36.603-13.929-50.54 0l-2.965 2.966h-.005l-.77.775-3.742-3.74c-6.967-6.967-16.12-10.453-25.272-10.453zm.004 4.61c7.968 0 15.937 3.036 22.004 9.1l3.741 3.746-2.542 2.542a2.305 2.305 0 0 0 1.632 3.939c.59 0 1.181-.226 1.631-.676l2.542-2.542 7.005-7.004c12.131-12.132 31.876-12.134 44.012 0 12.134 12.134 12.134 31.876 0 44.013l-49.588 49.624c-.75.752-2.065.752-2.817 0l-49.624-49.629c-12.134-12.134-12.134-31.879 0-44.013 6.067-6.067 14.033-9.1 22.004-9.1zm75.225 36.648a2.305 2.305 0 0 0-1.632 3.94l3.264 3.263a2.3 2.3 0 0 0 1.632.676 2.31 2.31 0 0 0 1.632-3.94l-3.264-3.263a2.3 2.3 0 0 0-1.632-.676zm-8.158 8.158a2.305 2.305 0 0 0-1.632 3.94l3.264 3.263c.45.45 1.04.676 1.631.676s1.182-.226 1.632-.676a2.305 2.305 0 0 0 0-3.263l-3.263-3.264a2.3 2.3 0 0 0-1.632-.676zm-8.162 8.158a2.305 2.305 0 0 0-1.632 3.94l3.263 3.263c.45.45 1.041.676 1.632.676a2.305 2.305 0 0 0 1.632-3.94l-3.264-3.263a2.3 2.3 0 0 0-1.631-.676zm-8.158 8.163a2.305 2.305 0 0 0-1.632 3.94l3.268 3.262a2.301 2.301 0 0 0 3.263 0 2.305 2.305 0 0 0 0-3.263l-3.268-3.263a2.3 2.3 0 0 0-1.631-.676zm-8.158 8.153c-.59 0-1.18.23-1.632.681a2.305 2.305 0 0 0 0 3.263l3.263 3.263a2.303 2.303 0 0 0 3.263 0 2.305 2.305 0 0 0 0-3.263l-3.263-3.263a2.304 2.304 0 0 0-1.631-.68zm-8.158 8.163a2.305 2.305 0 0 0-1.632 3.94l3.263 3.263c.45.45 1.041.676 1.632.676a2.305 2.305 0 0 0 1.632-3.94l-3.264-3.263a2.3 2.3 0 0 0-1.631-.676zm-8.159 8.158a2.305 2.305 0 0 0-1.632 3.94l3.264 3.263a2.3 2.3 0 0 0 1.632.676 2.305 2.305 0 0 0 1.632-3.94l-3.264-3.263a2.3 2.3 0 0 0-1.632-.676z"/></g></g></svg>