<svg xmlns="http://www.w3.org/2000/svg" xmlns:xlink="http://www.w3.org/1999/xlink" width="700" height="400" viewBox="0 0 700 400">
  <defs>
    <rect id="slide3-a" width="700" height="400"/>
  </defs>
  <g fill="none" fill-rule="evenodd">
    <mask id="slide3-b" fill="#fff">
      <use xlink:href="#slide3-a"/>
    </mask>
    <use fill="#8400FF" xlink:href="#slide3-a"/>
    <g fill="#FFF" fill-rule="nonzero" mask="url(#slide3-b)" opacity=".2">
      <path d="M119.182956,0.391601563 C115.363936,0.391601563 112.264441,3.48206711 112.264441,7.30539449 L112.264441,69.137931 L49.9978036,69.137931 C38.5545794,69.137931 29.2422579,78.4438966 29.2422579,89.8793103 C29.2422579,97.7195517 33.6653511,104.481891 40.1064889,108.001012 L4.29776692,179.583073 C-2.3716811,192.912866 0.233139897,208.942391 10.783875,219.485926 L12.7297074,221.43043 C17.5311577,226.228602 23.202394,229.686578 29.2422579,232.044181 L29.2422579,387.172414 L8.48671206,387.172414 C4.66769163,387.172414 1.56819679,390.262879 1.56819679,394.086207 C1.56819679,397.909534 4.66769163,401 8.48671206,401 L29.2422579,401 L389.005052,401 L409.760597,401 C413.579618,401 416.679113,397.909534 416.679113,394.086207 C416.679113,390.262879 413.579618,387.172414 409.760597,387.172414 L389.005052,387.172414 L389.005052,232.044181 C395.044915,229.686578 400.716154,226.228602 405.517603,221.43043 L407.463436,219.485926 C418.007253,208.949305 420.612074,192.905952 413.949544,179.583073 L378.140824,108.001012 C384.581962,104.474977 389.005052,97.7195517 389.005052,89.8793103 C389.005052,78.4438966 379.69273,69.137931 368.249506,69.137931 L153.775533,69.137931 L153.775533,41.87436 C153.775533,38.0510324 150.676038,34.9605669 146.857017,34.9605669 C143.037997,34.9605669 139.938502,38.0510324 139.938502,41.87436 L139.938502,69.137931 L126.101472,69.137931 L126.101472,7.30539449 C126.101472,3.48206705 123.001977,0.391601563 119.182956,0.391601563 Z M49.9978036,82.9655172 L368.249506,82.9655172 C372.061608,82.9655172 375.168021,86.0628966 375.168021,89.8793103 C375.168021,93.6957241 372.061608,96.7931034 368.249506,96.7931034 L49.9978036,96.7931034 C46.1857017,96.7931034 43.0792884,93.6957241 43.0792884,89.8793103 C43.0792884,86.0628966 46.1857017,82.9655172 49.9978036,82.9655172 Z M54.2678248,110.62069 L105.264848,110.62069 L91.6710514,171.737542 C90.8408296,175.464077 93.1984174,179.158524 96.9274971,179.988179 C97.4325488,180.0988 97.9427893,180.150225 98.4409224,180.150225 C101.609602,180.150225 104.471163,177.957142 105.18377,174.735321 L119.0208,112.511183 C119.166096,111.868201 119.089342,111.242931 119.047831,110.62069 L299.185967,110.62069 C299.151374,111.242931 299.088132,111.875108 299.226509,112.511183 L313.06354,174.735321 C313.783059,177.957149 316.637707,180.150225 319.806387,180.150225 C320.30452,180.150225 320.814761,180.091886 321.319812,179.988179 C325.048892,179.158524 327.392968,175.464077 326.562746,171.737542 L312.982462,110.62069 L363.979481,110.62069 L401.571884,185.754179 C405.577705,193.753438 404.010661,203.383266 397.680219,209.709387 L395.734387,211.653891 C383.647741,223.746115 364.205634,225.127795 350.52081,214.867726 L332.27863,201.188676 C324.938085,195.685297 314.694794,195.685297 307.361168,201.188676 L285.227323,217.784483 C273.002306,226.938345 255.941248,226.938345 243.716231,217.784483 L221.582386,201.202179 C219.873512,199.91622 217.993191,198.956385 216.04217,198.27192 L216.04217,138.667466 C216.04217,134.844139 212.942675,131.753673 209.123655,131.753673 C205.304634,131.753673 202.205139,134.844139 202.205139,138.667466 L202.205139,198.27192 C200.254118,198.956385 198.373797,199.91622 196.664924,201.202179 L174.531078,217.784483 C162.306062,226.945259 145.238085,226.938345 133.019987,217.784483 L110.886141,201.202179 C103.545597,195.691886 93.3023058,195.691892 85.9686797,201.202179 L67.726499,214.867726 C54.0416758,225.113968 34.5929725,223.739201 22.4994078,211.653891 L20.5535754,209.709387 C14.223134,203.383266 12.676522,193.76694 16.6754238,185.767682 L54.2678248,110.62069 Z M98.4274105,210.87069 C99.8906765,210.87069 101.354697,211.328514 102.575815,212.248049 L124.723172,228.843848 C141.825742,241.668935 165.718405,241.668935 182.827893,228.843848 L204.975251,212.248049 C207.417487,210.40898 210.829823,210.40898 213.272059,212.248049 L235.419416,228.843848 C243.977619,235.259848 254.218537,238.458342 264.471777,238.458342 C274.725016,238.458342 284.972853,235.259848 293.524138,228.843848 L315.671495,212.248049 C318.113731,210.40898 321.526067,210.40898 323.968303,212.248049 L342.210484,225.927092 C351.924079,233.200402 363.704041,236.258574 375.168021,235.339032 L375.168021,317.858935 L354.412475,317.858935 C350.593455,317.858935 347.49396,320.9494 347.49396,324.772728 C347.49396,328.596055 350.593455,331.686521 354.412475,331.686521 L375.168021,331.686521 L375.168021,387.172414 L181.449594,387.172414 L181.449594,331.862069 L203.367236,331.862069 C207.186256,331.862069 210.285751,328.771603 210.285751,324.948276 C210.285751,321.124948 207.186256,318.034483 203.367236,318.034483 L181.449594,318.034483 L181.449594,262.724138 C181.449594,255.098224 175.243685,248.896552 167.612563,248.896552 L98.4274105,248.896552 C90.7962882,248.896552 84.59038,255.098224 84.59038,262.724138 L84.59038,318.034483 L43.0792884,318.034483 L43.0792884,235.325529 C54.5432682,236.251978 66.3232304,233.200402 76.0368258,225.927092 L94.2790065,212.248049 C95.5001244,211.328514 96.9641445,210.87069 98.4274105,210.87069 Z M236.797716,248.896552 C229.166593,248.896552 222.960685,255.098224 222.960685,262.724138 L222.960685,317.683393 C222.960685,325.309307 229.166593,331.51098 236.797716,331.51098 L319.819899,331.51098 C327.451021,331.51098 333.656929,325.309307 333.656929,317.683393 L333.656929,262.724138 C333.656929,255.098224 327.451021,248.896552 319.819899,248.896552 L236.797716,248.896552 Z M98.4138986,262.724138 L167.612563,262.724138 L167.612563,386.821324 L98.4274105,386.821324 L98.4138986,262.724138 Z M236.784204,262.724138 L236.797716,262.724138 L319.819899,262.724138 L319.819899,317.683393 L236.797716,317.683393 L236.784204,262.724138 Z M146.857017,311.12069 C143.037997,311.12069 139.938502,314.211155 139.938502,318.034483 L139.938502,331.862069 C139.938502,335.685397 143.037997,338.775862 146.857017,338.775862 C150.676038,338.775862 153.775533,335.685397 153.775533,331.862069 L153.775533,318.034483 C153.775533,314.211155 150.676038,311.12069 146.857017,311.12069 Z M43.0792884,331.862069 L84.59038,331.862069 L84.59038,387.172414 L43.0792884,387.172414 L43.0792884,331.862069 Z M63.8348342,345.689655 C60.0158137,345.689655 56.9163189,348.780121 56.9163189,352.603448 L56.9163189,366.431034 C56.9163189,370.254362 60.0158137,373.344828 63.8348342,373.344828 C67.6538546,373.344828 70.7533494,370.254362 70.7533494,366.431034 L70.7533494,352.603448 C70.7533494,348.780121 67.6538546,345.689655 63.8348342,345.689655 Z M209.123655,345.689655 C205.304634,345.689655 202.205139,348.780121 202.205139,352.603448 L202.205139,366.431034 C202.205139,370.254362 205.304634,373.344828 209.123655,373.344828 C212.942675,373.344828 216.04217,370.254362 216.04217,366.431034 L216.04217,352.603448 C216.04217,348.780121 212.942675,345.689655 209.123655,345.689655 Z M243.716231,345.689655 C239.897211,345.689655 236.797716,348.780121 236.797716,352.603448 L236.797716,366.431034 C236.797716,370.254362 239.897211,373.344828 243.716231,373.344828 C247.535251,373.344828 250.634746,370.254362 250.634746,366.431034 L250.634746,352.603448 C250.634746,348.780121 247.535251,345.689655 243.716231,345.689655 Z M278.308807,345.689655 C274.489787,345.689655 271.390292,348.780121 271.390292,352.603448 L271.390292,366.431034 C271.390292,370.254362 274.489787,373.344828 278.308807,373.344828 C282.127828,373.344828 285.227323,370.254362 285.227323,366.431034 L285.227323,352.603448 C285.227323,348.780121 282.127828,345.689655 278.308807,345.689655 Z M312.901384,345.689655 C309.082363,345.689655 305.982868,348.780121 305.982868,352.603448 L305.982868,366.431034 C305.982868,370.254362 309.082363,373.344828 312.901384,373.344828 C316.720404,373.344828 319.819899,370.254362 319.819899,366.431034 L319.819899,352.603448 C319.819899,348.780121 316.720404,345.689655 312.901384,345.689655 Z M347.49396,345.689655 C343.67494,345.689655 340.575445,348.780121 340.575445,352.603448 L340.575445,366.431034 C340.575445,370.254362 343.67494,373.344828 347.49396,373.344828 C351.31298,373.344828 354.412475,370.254362 354.412475,366.431034 L354.412475,352.603448 C354.412475,348.780121 351.31298,345.689655 347.49396,345.689655 Z" transform="translate(350)"/>
    </g>
    <g fill="#FFF" fill-rule="nonzero" mask="url(#slide3-b)">
      <path d="M44.5517241,0.146484375 C43.1241379,0.146484375 41.9655172,1.30251887 41.9655172,2.73269121 L41.9655172,25.862069 L18.6896552,25.862069 C14.412069,25.862069 10.9310345,29.3431034 10.9310345,33.6206897 C10.9310345,36.5534483 12.5844289,39.0830017 14.9921875,40.399381 L1.60654621,67.1757129 C-0.886556983,72.1619198 0.0871499138,78.1580017 4.03111517,82.1019672 L4.75848586,82.8293379 C6.55331371,84.6241655 8.67327586,85.9176724 10.9310345,86.799569 L10.9310345,144.827586 L3.17241379,144.827586 C1.74482759,144.827586 0.586206897,145.983621 0.586206897,147.413793 C0.586206897,148.843966 1.74482759,150 3.17241379,150 L10.9310345,150 L145.413793,150 L153.172414,150 C154.6,150 155.758621,148.843966 155.758621,147.413793 C155.758621,145.983621 154.6,144.827586 153.172414,144.827586 L145.413793,144.827586 L145.413793,86.799569 C147.671552,85.9176724 149.791515,84.6241655 151.586342,82.8293379 L152.313713,82.1019672 C156.255092,78.1605879 157.228799,72.1593336 154.738282,67.1757129 L141.352641,40.399381 C143.7604,39.0804155 145.413793,36.5534483 145.413793,33.6206897 C145.413793,29.3431034 141.932759,25.862069 137.655172,25.862069 L57.4827586,25.862069 L57.4827586,15.6637257 C57.4827586,14.2335533 56.3241379,13.0775188 54.8965517,13.0775188 C53.4689655,13.0775188 52.3103448,14.2335533 52.3103448,15.6637257 L52.3103448,25.862069 L47.137931,25.862069 L47.137931,2.73269121 C47.137931,1.30251884 45.9793103,0.146484375 44.5517241,0.146484375 Z M18.6896552,31.0344828 L137.655172,31.0344828 C139.080172,31.0344828 140.241379,32.1931034 140.241379,33.6206897 C140.241379,35.0482759 139.080172,36.2068966 137.655172,36.2068966 L18.6896552,36.2068966 C17.2646552,36.2068966 16.1034483,35.0482759 16.1034483,33.6206897 C16.1034483,32.1931034 17.2646552,31.0344828 18.6896552,31.0344828 Z M20.2858297,41.3793103 L39.3490026,41.3793103 L34.2675121,64.2409759 C33.9571672,65.6349414 34.838456,67.0169043 36.2324216,67.3272491 C36.4212147,67.3686284 36.6119474,67.3878647 36.7981543,67.3878647 C37.9826371,67.3878647 39.0523155,66.5675095 39.3186948,65.3623397 L44.4911086,42.0864776 C44.5454216,41.8459603 44.5167302,41.612069 44.5012129,41.3793103 L111.838564,41.3793103 C111.825633,41.612069 111.801992,41.848544 111.853719,42.0864776 L117.026133,65.3623397 C117.295096,66.5675121 118.362191,67.3878647 119.546673,67.3878647 C119.73288,67.3878647 119.923613,67.3660422 120.112406,67.3272491 C121.506372,67.0169043 122.382609,65.6349414 122.072265,64.2409759 L116.995825,41.3793103 L136.058997,41.3793103 L150.111395,69.4841069 C151.608809,72.4763483 151.023033,76.0785284 148.656653,78.4449078 L147.929283,79.1722784 C143.411179,83.6955543 136.143534,84.2123922 131.028017,80.3744612 L124.208916,75.2576095 C121.464951,73.1989888 117.635911,73.1989888 114.894532,75.2576095 L106.62069,81.4655172 C102.050862,84.8896552 95.6732759,84.8896552 91.1034483,81.4655172 L82.829606,75.2626603 C82.1908129,74.7816284 81.487931,74.4225879 80.7586207,74.1665534 L80.7586207,51.8706233 C80.7586207,50.4404509 79.6,49.2844164 78.1724138,49.2844164 C76.7448276,49.2844164 75.5862069,50.4404509 75.5862069,51.8706233 L75.5862069,74.1665534 C74.8568966,74.4225879 74.1540147,74.7816284 73.5152216,75.2626603 L65.2413793,81.4655172 C60.6715517,84.8922414 54.2913793,84.8896552 49.7241379,81.4655172 L41.4502957,75.2626603 C38.7063302,73.2014534 34.8772905,73.201456 32.1359112,75.2626603 L25.3168103,80.3744612 C20.2012931,84.2072198 12.9311826,83.6929681 8.41049293,79.1722784 L7.68312224,78.4449078 C5.31674293,76.0785284 4.73860466,72.4813991 6.23343224,69.4891578 L20.2858297,41.3793103 Z M36.7931034,78.8793103 C37.3400862,78.8793103 37.8873509,79.0505664 38.3438164,79.3945319 L46.6227095,85.6024371 C53.0158129,90.3998509 61.9471181,90.3998509 68.3428078,85.6024371 L76.6217009,79.3945319 C77.5346319,78.7066009 78.8101957,78.7066009 79.7231267,79.3945319 L88.0020198,85.6024371 C91.2011578,88.0024371 95.0293103,89.198881 98.862069,89.198881 C102.694828,89.198881 106.525566,88.0024371 109.722118,85.6024371 L118.001011,79.3945319 C118.913942,78.7066009 120.189506,78.7066009 121.102437,79.3945319 L127.921538,84.511381 C131.552572,87.2320707 135.956034,88.376025 140.241379,88.0320569 L140.241379,118.899851 L132.482759,118.899851 C131.055172,118.899851 129.896552,120.055885 129.896552,121.486058 C129.896552,122.91623 131.055172,124.072265 132.482759,124.072265 L140.241379,124.072265 L140.241379,144.827586 L67.8275862,144.827586 L67.8275862,124.137931 L76.0206095,124.137931 C77.4481957,124.137931 78.6068164,122.981897 78.6068164,121.551724 C78.6068164,120.121552 77.4481957,118.965517 76.0206095,118.965517 L67.8275862,118.965517 L67.8275862,98.2758621 C67.8275862,95.4232759 65.5077586,93.1034483 62.6551724,93.1034483 L36.7931034,93.1034483 C33.9405172,93.1034483 31.6206897,95.4232759 31.6206897,98.2758621 L31.6206897,118.965517 L16.1034483,118.965517 L16.1034483,88.027006 C20.3887931,88.3735578 24.7922552,87.2320707 28.4232897,84.511381 L35.2423905,79.3945319 C35.698856,79.0505664 36.2461207,78.8793103 36.7931034,78.8793103 Z M88.5172414,93.1034483 C85.6646552,93.1034483 83.3448276,95.4232759 83.3448276,98.2758621 L83.3448276,118.834187 C83.3448276,121.686773 85.6646552,124.006601 88.5172414,124.006601 L119.551724,124.006601 C122.40431,124.006601 124.724138,121.686773 124.724138,118.834187 L124.724138,98.2758621 C124.724138,95.4232759 122.40431,93.1034483 119.551724,93.1034483 L88.5172414,93.1034483 Z M36.7880526,98.2758621 L62.6551724,98.2758621 L62.6551724,144.696256 L36.7931034,144.696256 L36.7880526,98.2758621 Z M88.5121905,98.2758621 L88.5172414,98.2758621 L119.551724,98.2758621 L119.551724,118.834187 L88.5172414,118.834187 L88.5121905,98.2758621 Z M54.8965517,116.37931 C53.4689655,116.37931 52.3103448,117.535345 52.3103448,118.965517 L52.3103448,124.137931 C52.3103448,125.568103 53.4689655,126.724138 54.8965517,126.724138 C56.3241379,126.724138 57.4827586,125.568103 57.4827586,124.137931 L57.4827586,118.965517 C57.4827586,117.535345 56.3241379,116.37931 54.8965517,116.37931 Z M16.1034483,124.137931 L31.6206897,124.137931 L31.6206897,144.827586 L16.1034483,144.827586 L16.1034483,124.137931 Z M23.862069,129.310345 C22.4344828,129.310345 21.2758621,130.466379 21.2758621,131.896552 L21.2758621,137.068966 C21.2758621,138.499138 22.4344828,139.655172 23.862069,139.655172 C25.2896552,139.655172 26.4482759,138.499138 26.4482759,137.068966 L26.4482759,131.896552 C26.4482759,130.466379 25.2896552,129.310345 23.862069,129.310345 Z M78.1724138,129.310345 C76.7448276,129.310345 75.5862069,130.466379 75.5862069,131.896552 L75.5862069,137.068966 C75.5862069,138.499138 76.7448276,139.655172 78.1724138,139.655172 C79.6,139.655172 80.7586207,138.499138 80.7586207,137.068966 L80.7586207,131.896552 C80.7586207,130.466379 79.6,129.310345 78.1724138,129.310345 Z M91.1034483,129.310345 C89.6758621,129.310345 88.5172414,130.466379 88.5172414,131.896552 L88.5172414,137.068966 C88.5172414,138.499138 89.6758621,139.655172 91.1034483,139.655172 C92.5310345,139.655172 93.6896552,138.499138 93.6896552,137.068966 L93.6896552,131.896552 C93.6896552,130.466379 92.5310345,129.310345 91.1034483,129.310345 Z M104.034483,129.310345 C102.606897,129.310345 101.448276,130.466379 101.448276,131.896552 L101.448276,137.068966 C101.448276,138.499138 102.606897,139.655172 104.034483,139.655172 C105.462069,139.655172 106.62069,138.499138 106.62069,137.068966 L106.62069,131.896552 C106.62069,130.466379 105.462069,129.310345 104.034483,129.310345 Z M116.965517,129.310345 C115.537931,129.310345 114.37931,130.466379 114.37931,131.896552 L114.37931,137.068966 C114.37931,138.499138 115.537931,139.655172 116.965517,139.655172 C118.393103,139.655172 119.551724,138.499138 119.551724,137.068966 L119.551724,131.896552 C119.551724,130.466379 118.393103,129.310345 116.965517,129.310345 Z M129.896552,129.310345 C128.468966,129.310345 127.310345,130.466379 127.310345,131.896552 L127.310345,137.068966 C127.310345,138.499138 128.468966,139.655172 129.896552,139.655172 C131.324138,139.655172 132.482759,138.499138 132.482759,137.068966 L132.482759,131.896552 C132.482759,130.466379 131.324138,129.310345 129.896552,129.310345 Z" transform="translate(272 125)"/>
    </g>
  </g>
</svg>
