<svg xmlns="http://www.w3.org/2000/svg" xmlns:xlink="http://www.w3.org/1999/xlink" width="700" height="400" viewBox="0 0 700 400"><defs><path id="a" d="M0 0h700v400H0z"/></defs><g fill="none" fill-rule="evenodd"><mask id="b" fill="#fff"><use xlink:href="#a"/></mask><use fill="#8400FF" xlink:href="#a"/><g fill="#FFF" fill-rule="nonzero" mask="url(#b)" opacity=".2"><path d="M469.183.392a6.914 6.914 0 0 0-6.919 6.913v61.833h-62.266c-11.443 0-20.756 9.306-20.756 20.741 0 7.84 4.423 14.603 10.864 18.122l-35.808 71.582a34.5 34.5 0 0 0 6.486 39.903l1.946 1.944c4.801 4.799 10.472 8.257 16.512 10.614v155.128h-20.755a6.914 6.914 0 1 0 0 13.828H759.76a6.914 6.914 0 1 0 0-13.828h-20.756V232.044c6.04-2.357 11.711-5.815 16.513-10.614l1.945-1.944a34.522 34.522 0 0 0 6.487-39.903l-35.81-71.582c6.442-3.526 10.865-10.281 10.865-18.122 0-11.435-9.312-20.741-20.755-20.741H503.776V41.874c0-3.823-3.1-6.913-6.919-6.913a6.914 6.914 0 0 0-6.918 6.913v27.264H476.1V7.305a6.913 6.913 0 0 0-6.918-6.913zm-69.185 82.574H718.25c3.812 0 6.918 3.097 6.918 6.913 0 3.817-3.106 6.914-6.918 6.914H399.998c-3.812 0-6.919-3.097-6.919-6.914 0-3.816 3.107-6.913 6.919-6.913zm4.27 27.655h50.997l-13.594 61.117c-.83 3.726 1.527 7.42 5.256 8.25a7.14 7.14 0 0 0 1.514.162c3.169 0 6.03-2.193 6.743-5.415l13.837-62.224c.145-.643.068-1.268.027-1.89h180.138c-.035.622-.098 1.254.04 1.89l13.838 62.224a6.92 6.92 0 0 0 6.742 5.415c.499 0 1.009-.058 1.514-.162a6.91 6.91 0 0 0 5.243-8.25l-13.58-61.117h50.996l37.593 75.133c4.006 8 2.439 17.63-3.892 23.955l-1.946 1.945c-12.086 12.092-31.528 13.474-45.213 3.214l-18.242-13.68c-7.34-5.503-17.584-5.503-24.918 0l-22.134 16.596c-12.225 9.154-29.286 9.154-41.51 0l-22.135-16.582c-1.708-1.286-3.589-2.246-5.54-2.93v-59.605c0-3.823-3.1-6.913-6.918-6.913a6.914 6.914 0 0 0-6.919 6.913v59.605c-1.95.684-3.831 1.644-5.54 2.93l-22.134 16.582c-12.225 9.161-29.293 9.154-41.511 0l-22.134-16.582c-7.34-5.51-17.584-5.51-24.917 0l-18.243 13.666c-13.684 10.246-33.133 8.871-45.227-3.214l-1.945-1.945a20.7 20.7 0 0 1-3.879-23.941l37.593-75.147zm44.16 100.25a6.89 6.89 0 0 1 4.148 1.377l22.147 16.596c17.103 12.825 40.995 12.825 58.105 0l22.147-16.596a6.928 6.928 0 0 1 8.297 0l22.147 16.596c8.559 6.416 18.8 9.614 29.053 9.614s20.5-3.198 29.052-9.614l22.147-16.596a6.928 6.928 0 0 1 8.297 0l18.242 13.68c9.714 7.272 21.494 10.33 32.958 9.411v82.52h-20.756a6.914 6.914 0 1 0 0 13.828h20.756v55.485H531.45v-55.31h21.917a6.914 6.914 0 1 0 0-13.828H531.45v-55.31c0-7.626-6.206-13.827-13.837-13.827h-69.186c-7.63 0-13.837 6.201-13.837 13.827v55.31h-41.51v-82.708c11.463.926 23.243-2.126 32.957-9.399l18.242-13.679a6.888 6.888 0 0 1 4.148-1.377zm138.37 38.026c-7.631 0-13.837 6.201-13.837 13.827v54.96c0 7.625 6.206 13.827 13.837 13.827h83.022c7.631 0 13.837-6.202 13.837-13.828v-54.959c0-7.626-6.206-13.827-13.837-13.827h-83.022zm-138.384 13.827h69.199v124.097h-69.186l-.013-124.097zm138.37 0h83.036v54.96h-83.022l-.014-54.96zm-89.927 48.397a6.914 6.914 0 0 0-6.918 6.913v13.828a6.914 6.914 0 0 0 6.918 6.914 6.914 6.914 0 0 0 6.919-6.914v-13.828c0-3.823-3.1-6.913-6.919-6.913zm-103.778 20.741h41.511v55.31h-41.51v-55.31zm20.756 13.828a6.914 6.914 0 0 0-6.919 6.913v13.828c0 3.823 3.1 6.914 6.919 6.914a6.914 6.914 0 0 0 6.918-6.914v-13.828c0-3.823-3.1-6.913-6.918-6.913zm145.289 0a6.914 6.914 0 0 0-6.919 6.913v13.828c0 3.823 3.1 6.914 6.919 6.914a6.914 6.914 0 0 0 6.918-6.914v-13.828c0-3.823-3.1-6.913-6.918-6.913zm34.592 0a6.914 6.914 0 0 0-6.918 6.913v13.828c0 3.823 3.1 6.914 6.918 6.914a6.914 6.914 0 0 0 6.919-6.914v-13.828c0-3.823-3.1-6.913-6.919-6.913zm34.593 0a6.914 6.914 0 0 0-6.919 6.913v13.828c0 3.823 3.1 6.914 6.919 6.914a6.914 6.914 0 0 0 6.918-6.914v-13.828c0-3.823-3.1-6.913-6.918-6.913zm34.592 0a6.914 6.914 0 0 0-6.918 6.913v13.828c0 3.823 3.1 6.914 6.918 6.914a6.914 6.914 0 0 0 6.919-6.914v-13.828c0-3.823-3.1-6.913-6.919-6.913zm34.593 0a6.914 6.914 0 0 0-6.919 6.913v13.828c0 3.823 3.1 6.914 6.919 6.914a6.914 6.914 0 0 0 6.918-6.914v-13.828a6.913 6.913 0 0 0-6.918-6.913z"/></g><g fill="#FFF" fill-rule="nonzero" mask="url(#b)"><path d="M316.552 125.146a2.585 2.585 0 0 0-2.586 2.587v23.13H290.69c-4.278 0-7.759 3.48-7.759 7.758 0 2.932 1.653 5.462 4.061 6.778l-13.385 26.777a12.912 12.912 0 0 0 2.424 14.926l.727.727c1.795 1.795 3.915 3.089 6.173 3.97v58.029h-7.759a2.585 2.585 0 1 0 0 5.172h150a2.585 2.585 0 1 0 0-5.172h-7.758V211.8c2.258-.882 4.378-2.176 6.172-3.97l.728-.728a12.92 12.92 0 0 0 2.424-14.926l-13.385-26.777c2.407-1.319 4.06-3.846 4.06-6.778 0-4.278-3.48-7.759-7.758-7.759h-80.172v-10.198a2.585 2.585 0 1 0-5.173 0v10.198h-5.172v-23.13a2.585 2.585 0 0 0-2.586-2.586zm-25.862 30.888h118.965a2.589 2.589 0 0 1 2.586 2.587 2.589 2.589 0 0 1-2.586 2.586H290.69a2.589 2.589 0 0 1-2.587-2.586 2.589 2.589 0 0 1 2.587-2.587zm1.596 10.345h19.063l-5.081 22.862a2.588 2.588 0 0 0 5.05 1.121l5.173-23.276c.054-.24.026-.474.01-.707h67.338c-.013.233-.037.47.015.707l5.172 23.276a2.587 2.587 0 0 0 3.086 1.965 2.585 2.585 0 0 0 1.96-3.086l-5.076-22.862h19.063l14.052 28.105a7.752 7.752 0 0 1-1.454 8.96l-.728.728c-4.518 4.524-11.785 5.04-16.901 1.202l-6.82-5.116c-2.743-2.059-6.572-2.059-9.313 0l-8.274 6.208c-4.57 3.424-10.948 3.424-15.518 0l-8.273-6.203a7.632 7.632 0 0 0-2.071-1.096V176.87a2.585 2.585 0 1 0-5.173 0v22.296a7.632 7.632 0 0 0-2.07 1.096l-8.275 6.203c-4.57 3.426-10.95 3.424-15.517 0l-8.274-6.203c-2.744-2.062-6.573-2.062-9.314 0l-6.82 5.111c-5.115 3.833-12.385 3.319-16.906-1.202l-.727-.727a7.747 7.747 0 0 1-1.45-8.956l14.053-28.11zm16.507 37.5c.547 0 1.094.172 1.55.516l8.28 6.207c6.393 4.798 15.324 4.798 21.72 0l8.279-6.207a2.588 2.588 0 0 1 3.101 0l8.279 6.207c3.2 2.4 7.027 3.597 10.86 3.597 3.833 0 7.664-1.197 10.86-3.597l8.279-6.207a2.588 2.588 0 0 1 3.101 0l6.82 5.116c3.63 2.721 8.034 3.865 12.32 3.521V243.9h-7.76a2.585 2.585 0 1 0 0 5.172h7.76v20.756h-72.414v-20.69h8.193a2.585 2.585 0 1 0 0-5.172h-8.193v-20.69a5.178 5.178 0 0 0-5.173-5.173h-25.862a5.178 5.178 0 0 0-5.172 5.173v20.69h-15.518v-30.939c4.286.347 8.69-.795 12.32-3.516l6.82-5.116a2.574 2.574 0 0 1 1.55-.516zm51.724 14.224a5.178 5.178 0 0 0-5.172 5.173v20.558a5.178 5.178 0 0 0 5.172 5.173h31.035a5.178 5.178 0 0 0 5.172-5.173v-20.558a5.178 5.178 0 0 0-5.172-5.173h-31.035zm-51.729 5.173h25.867v46.42h-25.862l-.005-46.42zm51.724 0h31.04v20.558h-31.035l-.005-20.558zm-33.615 18.103a2.585 2.585 0 0 0-2.587 2.587v5.172a2.585 2.585 0 1 0 5.173 0v-5.172a2.585 2.585 0 0 0-2.586-2.587zm-38.794 7.759h15.518v20.69h-15.518v-20.69zm7.76 5.172a2.585 2.585 0 0 0-2.587 2.587v5.172a2.585 2.585 0 1 0 5.172 0v-5.172a2.585 2.585 0 0 0-2.586-2.587zm54.31 0a2.585 2.585 0 0 0-2.587 2.587v5.172a2.585 2.585 0 1 0 5.173 0v-5.172a2.585 2.585 0 0 0-2.587-2.587zm12.93 0a2.585 2.585 0 0 0-2.586 2.587v5.172a2.585 2.585 0 1 0 5.173 0v-5.172a2.585 2.585 0 0 0-2.587-2.587zm12.931 0a2.585 2.585 0 0 0-2.586 2.587v5.172a2.585 2.585 0 1 0 5.173 0v-5.172a2.585 2.585 0 0 0-2.587-2.587zm12.932 0a2.585 2.585 0 0 0-2.587 2.587v5.172a2.585 2.585 0 1 0 5.173 0v-5.172a2.585 2.585 0 0 0-2.586-2.587zm12.93 0a2.585 2.585 0 0 0-2.586 2.587v5.172a2.585 2.585 0 1 0 5.173 0v-5.172a2.585 2.585 0 0 0-2.586-2.587z"/></g></g></svg>