<svg xmlns="http://www.w3.org/2000/svg" viewBox="0 0 64 64" width="50" height="50"><path d="M19.438 2.008c-.348.01-.698.043-1.047.101-3.19.53-5.762 3.12-6.272 6.32-.39 2.47.392 4.892 2.102 6.632A15.41 15.41 0 0 0 13.02 21c0 1.18.13 2.33.39 3.44L2.35 31.35a4.945 4.945 0 0 0-1.93 6.17l.04.09a4.882 4.882 0 0 0 2.82 2.62c1.3.48 2.7.4 3.93-.22l6.36-3.18-.46 2.13c-.26 1.19-.4 2.4-.43 3.61v.01C8.81 43.95 6.02 47.66 6.02 52c0 5.51 4.49 10 10 10 3.27 0 6.17-1.57 7.99-4h16.02c1.82 2.43 4.73 4 7.99 4 5.52 0 10-4.49 10-10 0-4.34-2.79-8.06-6.67-9.43a19.08 19.08 0 0 0-.45-3.68l-.46-2.05 6.35 3.17c1.23.62 2.63.7 3.93.22a4.882 4.882 0 0 0 2.82-2.62l.04-.09c.97-2.27.16-4.86-1.93-6.17l-11.03-6.89c.257-1.11.396-2.26.398-3.429 0-.01.005-.02.005-.031 0-.508-.029-1.016-.08-1.52 0-.01-.003-.019-.004-.029-.05-.487-.122-.971-.218-1.451-.008-.041-.022-.08-.03-.121a15.713 15.713 0 0 0-.88-2.83 7.584 7.584 0 0 0 2.22-5.37c0-.42-.03-.83-.1-1.25-.51-3.2-3.08-5.79-6.27-6.32-2.82-.47-5.65.642-7.36 2.852a21 21 0 0 0-6.686-.947c-.367.007-.731.017-1.095.043-.115.008-.23.022-.344.033a20.89 20.89 0 0 0-4.438.875 7.698 7.698 0 0 0-6.3-2.957zM19.698 4c1.536 0 2.965.602 4.035 1.705a19.63 19.63 0 0 0-2.22 1.13.998.998 0 0 0 .511 1.86.989.989 0 0 0 .51-.14 17.872 17.872 0 0 1 3.793-1.682c.007-.002.015 0 .022-.002.449-.142.903-.266 1.36-.373l.06-.012c.428-.099.86-.18 1.294-.248l.14-.023c.44-.066.883-.117 1.327-.15l.069-.006a19.09 19.09 0 0 1 7.1.812c.8.25 1.68-.01 2.17-.65 1.3-1.69 3.34-2.49 5.46-2.14 1.17.2 2.24.77 3.05 1.6a5.569 5.569 0 0 1 1.57 3.06c.251 1.59-.147 3.158-1.102 4.388a16.703 16.703 0 0 0-2.03-2.799 1 1 0 1 0-1.484 1.342 14.536 14.536 0 0 1 2.68 4.226c.125.303.23.613.332.922.035.106.077.212.11.319.103.346.188.696.263 1.047.015.068.035.134.049.203.168.857.252 1.731.252 2.613 0 .79-.07 1.568-.21 2.328a12.88 12.88 0 0 1-.52 2.031C46.17 31.511 39.68 36 32.02 36s-14.16-4.5-16.27-10.66c-.23-.66-.41-1.34-.53-2.04a13.373 13.373 0 0 1 .84-7.47c.32-.76.17-1.61-.38-2.17-1.3-1.29-1.87-3.09-1.58-4.92.37-2.35 2.27-4.27 4.62-4.66.33-.05.66-.08.98-.08zm6.324 10a2 2 0 0 0-2 2 2 2 0 0 0 2 2 2 2 0 0 0 2-2 2 2 0 0 0-2-2zm12 0a2 2 0 0 0-2 2 2 2 0 0 0 2 2 2 2 0 0 0 2-2 2 2 0 0 0-2-2zm-6 4c-5.514 0-10 3.589-10 8s4.487 8 10 8c5.514 0 10-3.589 10-8s-4.486-8-10-8zm0 2c4.411 0 8 2.691 8 6s-3.589 6-8 6c-4.41 0-8-2.691-8-6s3.59-6 8-6zm0 1c-1.103 0-2 .897-2 2 0 .737.405 1.376 1 1.723v1.863l-.29.293a1.002 1.002 0 0 1-1.417 0l-.586-.586a.999.999 0 1 0-1.414 1.412l.586.588a3.005 3.005 0 0 0 4.121.115 2.993 2.993 0 0 0 2 .762c.77 0 1.537-.292 2.123-.877l.586-.586a.999.999 0 1 0-1.416-1.412l-.584.584c-.39.39-1.024.39-1.416 0l-.293-.293v-1.863c.595-.347 1-.986 1-1.723 0-1.103-.897-2-2-2zM14.02 26.42c2.53 6.72 9.65 11.58 18 11.58s15.46-4.85 18-11.56l10.56 6.6c1.24.77 1.73 2.29 1.18 3.64l-.02.06c-.33.76-.93 1.33-1.71 1.61-.77.29-1.61.24-2.35-.13l-6.35-3.17c-.7-.35-1.51-.27-2.12.21-.62.48-.89 1.26-.72 2.02l.46 2.05c.21.91.33 1.83.39 2.76-.43-.06-.87-.09-1.32-.09-5.51 0-10 4.49-10 10 0 1.42.3 2.78.84 4H25.18c.54-1.22.84-2.58.84-4 0-2.9-1.24-5.51-3.22-7.35a15.47 15.47 0 0 1 8.72-2.68c.47 0 .95.02 1.42.06a.96.96 0 0 0 1.05-.88.966.966 0 0 0-.88-1.04c-.53-.05-1.06-.08-1.59-.08-3.88 0-7.46 1.27-10.35 3.4A9.914 9.914 0 0 0 16.02 42c-.45 0-.9.03-1.33.09.05-.91.18-1.81.37-2.7l.47-2.13c.16-.76-.11-1.53-.73-2.01a1.99 1.99 0 0 0-2.12-.21l-6.36 3.18c-.74.37-1.58.42-2.35.13-.78-.28-1.38-.85-1.71-1.61l-.02-.05a2.967 2.967 0 0 1 1.18-3.65l10.6-6.62zm22.949 14.555a.964.964 0 0 0-.266 1.873c.646.229 1.28.501 1.887.812a.962.962 0 0 0 1.297-.42.968.968 0 0 0-.42-1.3 17.658 17.658 0 0 0-2.12-.913.962.962 0 0 0-.378-.052zM16.019 44a7.942 7.942 0 0 1 5.18 1.91A7.946 7.946 0 0 1 24.02 52c0 1.45-.39 2.82-1.08 4-.43.75-.978 1.43-1.628 2a7.99 7.99 0 0 1-5.291 2c-4.41 0-8-3.59-8-8 0-3.24 1.94-6.05 4.73-7.29v-.01a8.004 8.004 0 0 1 3.27-.7zm32 0c.45 0 .881.04 1.311.11.69.11 1.34.31 1.96.59a7.998 7.998 0 0 1 4.73 7.3c0 4.41-3.58 8-8 8a7.98 7.98 0 0 1-5.28-2 7.9 7.9 0 0 1-1.64-2 7.906 7.906 0 0 1-1.08-4c0-4.41 3.59-8 8-8zm-31.996 2a1 1 0 0 0-1 1v2a1 1 0 1 0 2 0v-2a1 1 0 0 0-1-1zm32 0a1 1 0 0 0-1 1v2a1 1 0 1 0 2 0v-2a1 1 0 0 0-1-1zm-36.205 2.508a1 1 0 0 0-.623 1.857l1.733 1a.999.999 0 0 0 1-1.73l-1.733-1a.998.998 0 0 0-.377-.127zm8.412 0a.987.987 0 0 0-.375.127l-1.732 1a.998.998 0 1 0 1 1.73l1.732-1A.998.998 0 0 0 21.221 49a1.002 1.002 0 0 0-.99-.492zm23.588 0a1 1 0 0 0-.623 1.857l1.733 1a.999.999 0 0 0 1-1.73l-1.733-1a.998.998 0 0 0-.377-.127zm8.412 0a.987.987 0 0 0-.375.127l-1.732 1a.998.998 0 1 0 1 1.73l1.732-1a1 1 0 1 0-.625-1.857z"/></svg>