<svg xmlns="http://www.w3.org/2000/svg" width="1858" height="530" viewBox="0 0 1858 530"><g fill="none" opacity=".2"><path fill="#6E00FF" d="M789.1 72.4c-4.4-.6-8-2.9-11.4-5.2l-.6-.4c-.3-.2-.7-.4-1-.5-.1 0-.2-.1-.2-.1-.4.1-.5.3-.6.7-.1.4-.2.8-.3 1.3-.2 1-.4 2-.9 2.9-1.2 2.4-2.4 4.7-4.9 6-.8.4-1.7 1.3-1.3 2.7.2.6.5.7 1.5.7.2 0 .4 0 .6.1 1.8.2 3.6.9 5.5 2.2 1.6 1 3 2.4 4.3 3.7l.4.4c.6.6 1.3.9 1.9.9.7 0 1.2-.4 1.3-1.2.8-5 2.8-8.4 6.5-10.9.8-.6 1.2-1.3 1.1-1.9-.3-.8-1-1.2-1.9-1.4zm-4.1 3.1c-.1.2-.1.4-.1.5-.1.3-.1.6-.5.8-.7.4-1.1 1.2-1.5 2.1-.5 1.2-1.2 2.6-2.9 2.6-1.2 0-2.3-.8-3.2-1.6-.7-.6-1.5-1.2-2.3-1.4l-.5-.1v-.5c0-1.3.6-2 1.1-2.6.2-.3.5-.5.6-.8l.2-.4c.3-.9.7-1.9 1.7-2.7l.4-.3 7.3 3.8-.3.6zM408.7 299.9c-4.3-1.5-7.5-3.3-9-7.6-.1-.3-.3-.4-.5-.4-.3 0-.8.3-.9.9-1.3 4.8-3.3 9.6-8.4 13.2 4.6 1.6 5 2 9.5 6.7l.2.2c.4.4.8.9 1.2.9h.2c.8-.3.8-1.4.7-1.6-.3-4.4 2.5-6.7 5.4-8.4.2-.1.4-.2.6-.4.5-.3.9-.5 1.3-.8 1.4-1 1.4-1.5 1.4-1.5-.1-.3-.2-.7-1.7-1.2zm-3.5 1.4c-.7 1.6-1.8 2.7-2.8 3.7-.9.9-1.7 1.7-2.2 2.8l-.3.7-.7-.4c-.4-.2-.8-.4-1.1-.6-.8-.4-1.4-.8-2.1-1.2-.6-.4-1-.9-1.1-1.5-.1-.5.1-1.1.6-1.5.6-.6 1-1.4 1.3-2.2.5-1.2 1.1-2.4 2.4-3.3l.2-.2.3.1c1.1.2 1.8.9 2.5 1.5.7.7 1.4 1.2 2.4 1.3h1l-.4.8zM438 122.1c.3-1.4.6-1.9 1.2-2.2 4.2-2 6.2-5.5 6.5-10.1.1-.9 0-2 1.1-2.3 1.3-.3 1.3.9 1.8 1.6 2.6 3.6 5.9 6.1 10.7 5.5.7-.1 1.3.1 1.5.7.3.7-.1 1.2-.6 1.6-.5.4-1 .8-1.6 1-3.6 1.9-5.6 4.9-6.5 8.8-.2.8-.2 1.6-.5 2.3-.7 1.5-2.3 1.7-3.3.2-.7-1-1.1-2.3-1.8-3.3-1.7-3.1-4.8-4-8.5-3.8zm6.8-2.8c1.7 1.4 3.2 2.6 4.9 3.9 1.3-2.2 2.5-4.1 3.8-6.1-2-1.2-3.8-2.3-5.6-3.5-1.1 2-2 3.7-3.1 5.7zm429.8 67.3c-3.6 2.3-5.8 5.1-7.7 8.4-.8 1.4-2.4.7-2.5-.3-.1-4.3-3.7-4.5-6.3-5.7-.3-1.1.3-1.8 1-2 2.7-1 3.3-3.6 4.5-5.7 1.4-2.5 2.1-2.6 3.4-.3 1.8 2.8 3.9 4.8 7.6 5.6zm-9-3.3c-.8 1.2-1.7 2.1-2.1 3.3-.6 1.7 1.1 2.4 2 3.2 1 .8 1.7-.2 2.3-.8.8-.8 1.2-1.7.2-2.7-.9-1-1.6-2-2.4-3zm-505 277.1c2.1-3.1 3.5-5.9 4.6-9 .6-1.8 2-1.1 2.9 0 1.6 2 3.1 3.7 5.9 4 1.4.2 2.1 1.7.5 2.7-2.2 1.5-3.4 3.5-3.9 6.1-.2 1-.5 2.3-1.9 2.2-1.1 0-1.6-.8-1.9-1.8-.8-2.6-2.8-4.1-6.2-4.2zm6.3-5.1c-.9.7-1.2 1.7-1.3 2.6-.1 1.3 1 1.8 2 2.3.9.4 1.4-.2 1.9-.9.8-1.2.4-2-.8-2.6-.6-.4-1.2-1-1.8-1.4zm800.9-62.3c-3.2 3-5.7 5.7-7.6 8.9-.6 1-1.6.8-2.4.1-1.2-1.2-3.5-3.2-4.7-4.4-1.1-1.1-1.3-2.1-.1-3.2 1.9-1.6 3.5-2.9 2.8-5.2-.2-.6 0-1.2.5-1.6.7-.5 1.3 0 1.7.4 2.7 2.3 5.4 4.5 9.8 5zm-9.1 5.3c1-.1 2.9-2.8 2.6-3.6-.3-.9-1.7-2.3-2.5-2.2-1.5.2-2.9 2.1-2.9 3.5 0 1.7 1.8 2.2 2.8 2.3zM637.8 163c-3.2 3-5.7 5.7-7.6 8.9-.6 1-1.6.8-2.4.1-1.2-1.2-3.5-3.2-4.7-4.4-1.1-1.1-1.3-2.1-.1-3.2 1.9-1.6 3.5-2.9 2.8-5.2-.2-.6 0-1.2.5-1.6.7-.5 1.3 0 1.7.4 2.7 2.3 5.4 4.5 9.8 5zm-9.1 5.3c1-.1 2.9-2.8 2.6-3.6-.3-.9-1.7-2.3-2.5-2.2-1.5.2-2.9 2.1-2.9 3.5 0 1.7 1.8 2.2 2.8 2.3zm355.6 343.1c-3.1 3.2-5.3 5.7-6.7 8.9-.3.6-1.3 1.3-1.9.4-2.3-2.8-5.9-2.6-9.1-4.2 2.8-2.6 4.5-5.7 6-8.9.6-1.2 1.6-1.8 2.6-.6 2.1 2.6 4.9 4 9.1 4.4zm-10.2-2.2c-3.2 4.8-3.2 5.4-1 6.5 3.2 1.7 3.7 1.5 5.8-3.3-1.5-.9-3-2-4.8-3.2zm22-432.7c-1.1-5-5.7-2.7-8.3-4.6 1.9-3 5-5.2 5-9.2 0-1.1 1.7-1.1 2.2-.3 1.8 2.5 4 4.3 7.1 4.8.9.2 1 1.4.2 1.8-2.8 1.7-4.1 4.6-6.2 7.5zm-4.1-6.3c1.2.4 2 .7 2.9 1 1.2.6 2 .1 2.7-1 .8-1.2.2-2-.7-2.7-.7-.5-1.4-1.1-2.1-1.7-1.4 1.3-2 2.7-2.8 4.4zM227.9 53c-1.5-3.1-2.4-5.4-6.2-4.5 2.3-2.8 4.7-3.8 5.1-6.6 1.6 2.2 3.9 3.1 5.9 4.6-1.3 2.3-4.1 3-4.8 6.5zm1-5.9c-.3-.8-.8-1.2-1.6-1.2-.5 0-.8.2-.9.8-.1.9.6 1.4 1.3 1.5.6 0 1.1-.4 1.2-1.1zm-8.8 292.2c1.4 3.3 4.7 3.4 7.5 5.3-3.2 1.2-5.4 3.2-7.4 5.4-1.8-1.2-3.2-2.7-5.2-3.5 1.3-2.7 4.7-3.7 5.1-7.2zm4 5.6c-2.1-1.9-3.3-3.5-5.2-1.2-.9 1.1-1.4 2 0 3 2.7 1.8 2.8-1.6 5.2-1.8zM23.3 519.3c1.4 3.3 4.7 3.4 7.5 5.3-3.2 1.2-5.4 3.2-7.4 5.4-1.8-1.2-3.2-2.7-5.2-3.5 1.4-2.7 4.7-3.7 5.1-7.2zm4 5.6c-2.1-1.9-3.3-3.5-5.2-1.2-.9 1.1-1.4 2 0 3 2.7 1.8 2.9-1.6 5.2-1.8zm1618.2-445c-.1-.8-2.5-1-.4-2.3 1-.6 1.7-1.7 2.8-2.9 1.6 1.5 2.9 3.2 5.2 3.7-1 2.7-3.6 3.3-5 5.2-1.4-1.1-1.9-2.6-2.7-3.9.8-.3 1.5 0 2.1.4.9.6 1.7.6 2.4-.2.6-.7 0-1.1-.5-1.4-.8-.6-1.6-1.7-2.7-.5-.4.5-.8 1.2-1.2 1.9zm204.6-74.3c-.1-.8-2.5-1-.4-2.3 1-.6 1.7-1.7 2.8-2.9 1.6 1.5 2.9 3.2 5.2 3.7-1 2.7-3.6 3.3-5 5.2-1.4-1.1-1.9-2.6-2.7-3.9.8-.3 1.5 0 2.1.4.9.6 1.7.6 2.4-.2.6-.7 0-1.1-.5-1.4-.8-.6-1.6-1.7-2.7-.5-.4.6-.7 1.3-1.2 1.9zm-415.1 307c-1.6.6-2.7 2.1-4 3.5-1.6-1-2-3.1-4.7-3.2 2.5-1.5 3.2-3.5 4.6-5 1.4 1.5 2.6 2.9 4.1 4.7zm-2.8-.9c-.2-.6-.6-1.1-1.2-1-.6.1-1 .7-1 1.4 0 .9.6 1 1.2.9.7-.1.9-.6 1-1.3z"/><path fill="#02D3FB" d="M948 309.1c0 1-.4 1.7-1.1 2.1-3.1 1.7-5.3 4.2-7.2 7.2-1.6 2.5-3.1 2.1-4-.8-1.2-3.6-2.1-7.2-6.3-8.8-1.2-.4-1.2-1.9 0-2.7 2.9-1.9 5.4-4.1 7.3-7.1.7-1.1 2-.9 2.8.1.8 1 1.4 2.1 2.1 3.1 1.4 1.9 2.4 4.1 4.8 4.9 1.1.4 1.5 1.2 1.6 2zm-5.1.5c-1.2-1.4-2.2-2.7-3.3-4-1.9-2.3-1.9-2.3-4.1-.1-.5.5-1.3 1-1.1 2.1 1.8 1.3 2.9 3.4 3.7 5.9 1.9-1.5 3.3-2.7 4.8-3.9zm-205.5-84.3c1.5 1.4 2.8 2.7 4.2 4 1.8 1.8 3.9 3.2 6.5 3.4.7.1 1.6-.1 1.9.9.3.9-.4 1.6-1.1 1.9-4.3 1.7-5.1 5.1-4.7 9.2.1 1 0 1.9-1.1 2.3-1.1.4-1.8-.3-2.2-1.3-1.6-4.3-5-5.6-9.2-5.9-.6 0-1.2-.1-1.9-.2-.6-.1-1.1-.5-1.3-1.2-.2-.7.2-1.3.8-1.5 5.2-1.6 6.6-5.7 7.1-10.4 0-.2.4-.4 1-1.2zm-185 100c1.5 1.4 2.8 2.7 4.2 4 1.8 1.8 3.9 3.2 6.5 3.4.7.1 1.6-.1 1.9.9.3.9-.4 1.6-1.1 1.9-4.3 1.7-5.1 5.1-4.7 9.2.1 1 0 1.9-1.1 2.3-1.1.4-1.8-.3-2.2-1.3-1.6-4.3-5-5.6-9.2-5.9-.6 0-1.2-.1-1.9-.2-.6-.1-1.1-.5-1.3-1.2-.2-.7.2-1.3.8-1.5 5.2-1.6 6.6-5.7 7.1-10.4 0-.2.4-.4 1-1.2zm183.3-88.2c6.3 3.1 5.4 2.2 6.8-.6 1-2 .7-2.2-4.1-4.4-1 1.4-1.1 3.5-2.7 5zm856.1 202.4c3.6-.4 6.6-.9 9.1-3.5 1.7-1.8 3.4-1 3.1 1.4-.4 3.6 2.7 5.4 4 8.6-3.7.2-7 .8-9.5 3.5-.6.7-1.8.1-1.7-.6.9-4.6-1.8-6.9-5-9.4zm5.2 1.9c2.1 1 1.1 4.6 4.4 3 3.4-1.6-.1-3.2.4-5.1-.9.3-1.4.4-1.8.6-.7.2-1.4.6-3 1.5zM595.3 22.9c-.9-4.5-3.1-7.2-8.3-6.9 4.4-2.1 5.7-5.6 6-9.7 2.8.7 3.2 3.3 4.6 4.8 1.6 1.7 4 1.5 6 3.5-3.8 1.8-6.1 4.7-8.3 8.3zm-.3-11.1c-1.2.3-1.7 1.4-1.6 2.1.2 1.5 1.4 2.4 2.8 2.6.9.1 1.7-1 1.5-1.9-.4-1.3-1.4-2.3-2.7-2.8zm-45.9 481.3c3.8-2.8 5.1-6.3 4.9-10.2 1.7-.7 2.2.2 2.5 1 1.1 2.7 2.7 4.6 5.9 4.3.8-.1 1.7.2 1.9 1 .3.9-.5 1.3-1.2 1.7-2.3 1.3-3.3 3.6-4.3 5.9-1.2 2.7-1.1 2.6-3.1.7-1.8-1.6-3.6-3.3-6.6-4.4zm10.3-2.5c-1.3-.9-2.4-1.8-4-2.1 0 1.7-1.8 2.5-2.1 4 3.6 2.5 3.6 2.5 6.1-1.9zM350 356.3c1.4 3.8 4.4 4.9 8.3 5.3-2.2 3.2-4.6 5.6-5.6 8.9-.3.8-1.5.9-1.8 0-1.3-4-4.5-4.3-8.3-4 .9-2.3 3.5-2.5 4.1-4.6.6-1.9.9-4 3.3-5.6zm3.7 7c-1.3-1-2.6-1.9-4.1-3-.7 1.5-1.2 2.8-1.7 4 3.7 2.1 3.7 2.1 5.8-1zm22.1-260.8c-.1-2.7 2-4.9 5-5 2.6-.2 4.4 1.5 4.6 4.2.2 2.9-1.8 5.3-4.6 5.3-2.8-.1-4.9-2-5-4.5zm10.9 140.1c-3.9 2.3-4.6 6.2-5.9 10.3-2.4-2.9-4-6.6-8.8-4.1 2.8-3.4 4.3-6.7 4.6-11.7 2.8 4.1 6 5.3 10.1 5.5zm-7.9-.1c-1.4.3-2 1.5-2 2.7-.1 1.3 1.3 1.6 2.3 1.8 1.5.3 1.7-1.1 2-2 .4-1.7-1.3-1.8-2.3-2.5zm391.5 184.6c-1.9-2.6-3.6-4.9-6.9-5.7 1.7-2.4 3.6-3.9 3.5-6.6 0-1.2 1.5-1.6 1.9-.8 1.4 2.8 4.3 2.7 7.2 3.8-3 2.7-4.2 5.9-5.7 9.3zm-.9-8.6c-.6.4-1.4.8-1.3 1.7.1.8.7 1.4 1.6 1.2.8-.2 1.2-1 1-1.8-.1-.6-.7-.9-1.3-1.1zM1531.7 170c-2.1-5.3-2.1-5.3-5.9-6.6 2.7-2.1 5.7-3.7 7.6-7.1 2.1 2.8 2.6 5.9 5.1 7.7.9.7.4 2-.7 2-2.7.3-4.1 2.1-6.1 4zm1.2-4.1c.8-.6 1.6-1 2.1-1.7.4-.6-1.6-3.7-2.3-3.5-.8.2-1.9.8-1.9 1.7 0 1.4.9 2.5 2.1 3.5zm307.4 240.8c-2.1-5.3-2.1-5.3-5.9-6.6 2.7-2.1 5.7-3.7 7.6-7.1 2.1 2.8 2.6 5.9 5.1 7.7.9.7.4 2-.7 2-2.6.2-4.1 2.1-6.1 4zm1.2-4.1c.8-.6 1.6-1 2.1-1.7.4-.6-1.6-3.7-2.3-3.5-.8.2-1.9.8-1.9 1.7 0 1.4 1 2.4 2.1 3.5zm-766.4-173.3c-1.4-2.1-1.5-4.3-3.6-5.1-.8-.3-.6-1.3 0-2 1.5-1.8 1.9-4.2 2.9-7.1 2.1 3.1 4.7 4.8 8.6 6.1-4.4 1.6-6.3 4.4-7.9 8.1zm2.7-7.7c-.3-1.2-1.2-2.1-2.3-2.1-1.7 0-2.1 1.7-2.4 3-.3 1.1.9 1.7 1.8 1.7 1.4-.1 2.2-1.4 2.9-2.6zM82.8 266c.8-1.7 1.7-3.3 2.7-5.4 1.7 2.4 3 4.8 6.7 4.9-2.8 2.3-5.1 3.8-5.5 7.8-2.2-2.7-3.1-5.3-6.1-5.1.1-1.6 1.1-1.9 2.2-2.2.6.6 1.2 1.3 1.9 1.9.8.8 1.6.7 2.3-.2.8-.9.4-1.5-.2-2.3-1.9-2.7-2.5.9-4 .6zm781.4-11.4c1.7-.1 3.5 2.1 3.5 4.3 0 1.7-.7 3.1-2.6 3.2-2 .2-3.9-1.3-4-3-.2-2.2 1.3-4.4 3.1-4.5zm921-32.9c1.7-.1 3.5 2.1 3.5 4.3 0 1.7-.7 3.1-2.6 3.2-2 .2-3.9-1.3-4-3-.2-2.3 1.3-4.4 3.1-4.5zM316.5 279.9c0 2.1-1.3 3.9-3.1 3.9-1.6.1-3.3-1.6-3.3-3.2 0-1.7 1.8-4 3.2-4.1 1.8-.1 3.2 1.4 3.2 3.4zm1023.6-109.3c-2.5 1.5-4.6 2.4-5.9 4.8-1.2-1.5-2.1-2.6-3.2-4 1.7-1.3 2.5-3.1 3.7-5.2 1.3 2.2 2.7 3.8 5.4 4.4zm-43.6 316.5c1.6 1.5 3.1 3.1 5.9 3.7-2.3 1.6-3.9 3.1-5.1 5-3.9-3.3-3.9-3.3-.8-8.7zm1.9 4c-.4-.7-.9-1.3-1.7-1.2-1 .1-1 1-.9 1.8.1.7.7 1.1 1.3 1 .8-.1 1.3-.7 1.3-1.6zm-1087.5.8c2 1.6 3.5 2.9 6 3.4-1.3 1.9-2.9 3-3.1 5-2.3-.2-3.1-2.9-5.7-1.8 1.1-2.5 1.9-4.3 2.8-6.6zm1.7 5.4c.5-.2.9-.3.8-.9-.1-.9-.7-1.4-1.5-1.5-.9-.2-1 .6-.9 1.2.1.8.7 1.2 1.6 1.2zM228 217.4c0 1.5-.9 2.6-2.4 3-1.2.3-3-1.4-3.2-2.9-.2-1.5 1.3-3.4 2.6-3.4s2.9 1.8 3 3.3zm968.2-131.9c0 1.5-.9 2.6-2.4 3-1.2.3-3-1.4-3.2-2.9-.2-1.5 1.3-3.4 2.6-3.4s3 1.7 3 3.3zM318.1 512.4c-1.9-1-3.2-1.7-4-3.2-.5-1-.4-1.7.5-2.4 1-.7 2-.9 2.8.3 1 1.6 1.2 3.2.7 5.3zM500.1 94c-1.2-.3-1.8-1-1.7-2.1.1-1.1.6-2.2 2-2 1.1.1 2 .9 1.8 2.2-.2 1.3-1.2 1.6-2.1 1.9zM2 15.9c-1.2-.3-1.8-1-1.7-2.1.1-1.1.6-2.2 2-2 1.1.1 2 .9 1.8 2.2C4 15.3 3 15.7 2 15.9z"/></g></svg>